<mxfile host="app.diagrams.net" modified="2021-01-08T14:35:05.910Z" agent="5.0 (Windows NT 10.0; Win64; x64) AppleWebKit/537.36 (KHTML, like Gecko) Chrome/87.0.4280.88 Safari/537.36" etag="f_9IwrYnSNgGtcCGbCFN" version="14.1.8" type="github" pages="5">
  <diagram id="nulgUZcRM6IO7Wxl4WT8" name="Object Resources">
    <mxGraphModel dx="1220" dy="1112" grid="1" gridSize="10" guides="1" tooltips="1" connect="1" arrows="1" fold="1" page="1" pageScale="1" pageWidth="850" pageHeight="1100" math="0" shadow="0">
      <root>
        <mxCell id="xkv93dfL5ZNA0a60ZzHi-0" />
        <mxCell id="xkv93dfL5ZNA0a60ZzHi-1" parent="xkv93dfL5ZNA0a60ZzHi-0" />
        <mxCell id="xkv93dfL5ZNA0a60ZzHi-7" value="Modal title" style="html=1;shadow=0;dashed=0;shape=mxgraph.bootstrap.rrect;rSize=5;html=1;strokeColor=#C8C8C8;fillColor=#ffffff;whiteSpace=wrap;verticalAlign=top;align=left;fontSize=18;spacing=15;spacingTop=-5;" parent="xkv93dfL5ZNA0a60ZzHi-1" vertex="1">
          <mxGeometry x="410" y="280" width="400" height="200" as="geometry" />
        </mxCell>
        <mxCell id="xkv93dfL5ZNA0a60ZzHi-8" value="" style="shape=line;strokeColor=#dddddd;resizeWidth=1;" parent="xkv93dfL5ZNA0a60ZzHi-7" vertex="1">
          <mxGeometry width="400" height="10" relative="1" as="geometry">
            <mxPoint y="50" as="offset" />
          </mxGeometry>
        </mxCell>
        <mxCell id="xkv93dfL5ZNA0a60ZzHi-9" value="" style="html=1;shadow=0;dashed=0;shape=mxgraph.bootstrap.x;strokeColor=#868686;strokeWidth=2;" parent="xkv93dfL5ZNA0a60ZzHi-7" vertex="1">
          <mxGeometry x="1" width="8" height="8" relative="1" as="geometry">
            <mxPoint x="-24" y="20" as="offset" />
          </mxGeometry>
        </mxCell>
        <mxCell id="xkv93dfL5ZNA0a60ZzHi-10" value="Modal body text goes here." style="strokeColor=none;fillColor=none;resizeWidth=1;align=left;verticalAlign=top;spacing=10;fontSize=13;" parent="xkv93dfL5ZNA0a60ZzHi-7" vertex="1">
          <mxGeometry width="400" height="40" relative="1" as="geometry">
            <mxPoint y="60" as="offset" />
          </mxGeometry>
        </mxCell>
        <mxCell id="xkv93dfL5ZNA0a60ZzHi-11" value="" style="shape=line;strokeColor=#dddddd;resizeWidth=1;" parent="xkv93dfL5ZNA0a60ZzHi-7" vertex="1">
          <mxGeometry width="400" height="10" relative="1" as="geometry">
            <mxPoint y="120" as="offset" />
          </mxGeometry>
        </mxCell>
        <mxCell id="xkv93dfL5ZNA0a60ZzHi-12" value="Save changes" style="html=1;shadow=0;dashed=0;shape=mxgraph.bootstrap.rrect;rSize=5;fillColor=#0085FC;strokeColor=none;fontColor=#FFFFFF;fontSize=14;" parent="xkv93dfL5ZNA0a60ZzHi-7" vertex="1">
          <mxGeometry x="1" y="1" width="110" height="40" relative="1" as="geometry">
            <mxPoint x="-130" y="-60" as="offset" />
          </mxGeometry>
        </mxCell>
        <mxCell id="xkv93dfL5ZNA0a60ZzHi-13" value="Close" style="html=1;shadow=0;dashed=0;shape=mxgraph.bootstrap.rrect;rSize=5;fillColor=#6C757D;strokeColor=none;fontColor=#FFFFFF;fontSize=14;" parent="xkv93dfL5ZNA0a60ZzHi-7" vertex="1">
          <mxGeometry x="1" y="1" width="70" height="40" relative="1" as="geometry">
            <mxPoint x="-220" y="-60" as="offset" />
          </mxGeometry>
        </mxCell>
        <mxCell id="eUFhsMvUKg0KT--hQEIe-0" value="" style="rounded=0;whiteSpace=wrap;html=1;align=left;labelBackgroundColor=#ffffff;shadow=0;strokeColor=#CCCCCC;" parent="xkv93dfL5ZNA0a60ZzHi-1" vertex="1">
          <mxGeometry x="65.5" y="258" width="243.5" height="138" as="geometry" />
        </mxCell>
        <mxCell id="eUFhsMvUKg0KT--hQEIe-1" value="Go To IMA" style="rounded=0;whiteSpace=wrap;html=1;fontColor=#FFFFFF;fillColor=#3333FF;strokeColor=#3333FF;" parent="xkv93dfL5ZNA0a60ZzHi-1" vertex="1">
          <mxGeometry x="191" y="356" width="104" height="30" as="geometry" />
        </mxCell>
        <mxCell id="eUFhsMvUKg0KT--hQEIe-2" value="" style="rounded=0;whiteSpace=wrap;html=1;shadow=0;sketch=0;strokeColor=#CCCCCC;fillColor=#808080;fontSize=10;fontColor=#808080;" parent="xkv93dfL5ZNA0a60ZzHi-1" vertex="1">
          <mxGeometry x="65" y="396" width="244" height="154" as="geometry" />
        </mxCell>
        <mxCell id="eUFhsMvUKg0KT--hQEIe-3" value="&lt;div style=&quot;text-align: left ; font-size: 16px&quot;&gt;&lt;font style=&quot;font-size: 16px&quot;&gt;IMA Process Assignment(s)&lt;/font&gt;&lt;/div&gt;&lt;br style=&quot;font-size: 16px&quot;&gt;&lt;span style=&quot;font-weight: normal&quot;&gt;There are 2 new Systems awaiting IMA Process Review.&lt;/span&gt;" style="text;html=1;strokeColor=none;fillColor=none;align=center;verticalAlign=middle;whiteSpace=wrap;rounded=0;shadow=0;sketch=0;fontSize=10;fontColor=#808080;fontStyle=1" parent="xkv93dfL5ZNA0a60ZzHi-1" vertex="1">
          <mxGeometry x="71" y="258" width="186" height="94" as="geometry" />
        </mxCell>
        <mxCell id="eUFhsMvUKg0KT--hQEIe-4" value="Assigned item information displayed here" style="text;html=1;strokeColor=none;fillColor=none;align=center;verticalAlign=middle;whiteSpace=wrap;rounded=0;shadow=0;sketch=0;fontSize=10;" parent="xkv93dfL5ZNA0a60ZzHi-1" vertex="1">
          <mxGeometry x="123" y="449" width="128" height="56" as="geometry" />
        </mxCell>
        <mxCell id="eUFhsMvUKg0KT--hQEIe-7" value="" style="html=1;shadow=0;dashed=0;shape=mxgraph.bootstrap.rrect;rSize=5;strokeColor=#DFDFDF;html=1;whiteSpace=wrap;fillColor=#FFFFFF;fontColor=#495057;" parent="xkv93dfL5ZNA0a60ZzHi-1" vertex="1">
          <mxGeometry x="60" y="590" width="300" height="300" as="geometry" />
        </mxCell>
        <mxCell id="eUFhsMvUKg0KT--hQEIe-8" value="&lt;font style=&quot;font-size: 16px&quot;&gt;Dataset Title #1&lt;/font&gt;&lt;br&gt;Guide: 123456/1258d25s8f22f&lt;br&gt;other data goes here" style="html=1;shadow=0;dashed=0;shape=mxgraph.bootstrap.topButton;rSize=5;perimeter=none;whiteSpace=wrap;resizeWidth=1;align=left;spacing=10;verticalAlign=top;fillColor=#0085FC;strokeColor=#0085FC;fontColor=#ffffff;" parent="eUFhsMvUKg0KT--hQEIe-7" vertex="1">
          <mxGeometry width="300" height="100" relative="1" as="geometry" />
        </mxCell>
        <mxCell id="eUFhsMvUKg0KT--hQEIe-10" value="&lt;font style=&quot;font-size: 16px&quot;&gt;Dataset Title #2&lt;/font&gt;&lt;br&gt;Guide: 185576/58d6s8dd222dgf8&lt;br&gt;Other data goes here&lt;br&gt;&lt;br&gt;&lt;br&gt;" style="strokeColor=inherit;fillColor=inherit;gradientColor=inherit;fontColor=inherit;html=1;shadow=0;dashed=0;perimeter=none;whiteSpace=wrap;resizeWidth=1;align=left;spacing=10;" parent="eUFhsMvUKg0KT--hQEIe-7" vertex="1">
          <mxGeometry width="300" height="100" relative="1" as="geometry">
            <mxPoint y="100" as="offset" />
          </mxGeometry>
        </mxCell>
        <mxCell id="eUFhsMvUKg0KT--hQEIe-12" value="&lt;font style=&quot;font-size: 16px&quot;&gt;Dataset Title #3&lt;/font&gt;&lt;br&gt;Guide: 123456/88d55s6c8fs6&lt;br&gt;other data goes here&lt;br&gt;&lt;br&gt;&lt;br&gt;" style="strokeColor=inherit;fillColor=inherit;gradientColor=inherit;fontColor=inherit;html=1;shadow=0;dashed=0;shape=mxgraph.bootstrap.bottomButton;rSize=5;perimeter=none;whiteSpace=wrap;resizeWidth=1;resizeHeight=0;align=left;spacing=10;" parent="eUFhsMvUKg0KT--hQEIe-7" vertex="1">
          <mxGeometry y="1" width="300" height="100" relative="1" as="geometry">
            <mxPoint y="-100" as="offset" />
          </mxGeometry>
        </mxCell>
        <mxCell id="GMRbsEK7jlrv7o2Da9Vz-0" value="" style="rounded=0;whiteSpace=wrap;html=1;fillColor=#3333FF;" parent="xkv93dfL5ZNA0a60ZzHi-1" vertex="1">
          <mxGeometry x="22" y="19" width="818" height="61" as="geometry" />
        </mxCell>
        <mxCell id="GMRbsEK7jlrv7o2Da9Vz-1" value="&lt;font style=&quot;font-size: 14px&quot;&gt;FEEDBACK&lt;/font&gt;" style="rounded=1;whiteSpace=wrap;html=1;fillColor=#FF8000;strokeColor=#FF8000;fontColor=#FFFFFF;" parent="xkv93dfL5ZNA0a60ZzHi-1" vertex="1">
          <mxGeometry x="714" y="29.5" width="120" height="40" as="geometry" />
        </mxCell>
        <mxCell id="GMRbsEK7jlrv7o2Da9Vz-2" value="" style="shape=image;html=1;verticalAlign=top;verticalLabelPosition=bottom;labelBackgroundColor=#ffffff;imageAspect=0;aspect=fixed;image=https://cdn3.iconfinder.com/data/icons/social-media-2125/78/bell-128.png;strokeColor=#FF8000;fillColor=#FF8000;fontColor=#FFFFFF;" parent="xkv93dfL5ZNA0a60ZzHi-1" vertex="1">
          <mxGeometry x="652" y="29.5" width="37" height="37" as="geometry" />
        </mxCell>
        <mxCell id="GMRbsEK7jlrv7o2Da9Vz-3" value="" style="whiteSpace=wrap;html=1;shape=mxgraph.basic.octagon2;align=center;verticalAlign=middle;dx=12;shadow=0;sketch=0;fontSize=20;fontColor=#808080;fillColor=#FF8000;strokeColor=#FF8000;" parent="xkv93dfL5ZNA0a60ZzHi-1" vertex="1">
          <mxGeometry x="32" y="25.5" width="56" height="42" as="geometry" />
        </mxCell>
        <mxCell id="GMRbsEK7jlrv7o2Da9Vz-4" value="Eva" style="text;html=1;strokeColor=none;fillColor=none;align=center;verticalAlign=middle;whiteSpace=wrap;rounded=0;shadow=0;sketch=0;fontSize=20;fontColor=#FFFFFF;fontStyle=1" parent="xkv93dfL5ZNA0a60ZzHi-1" vertex="1">
          <mxGeometry x="98" y="39" width="40" height="20" as="geometry" />
        </mxCell>
        <mxCell id="GMRbsEK7jlrv7o2Da9Vz-5" value="" style="html=1;verticalLabelPosition=bottom;align=center;labelBackgroundColor=#ffffff;verticalAlign=top;strokeWidth=2;shadow=0;dashed=0;shape=mxgraph.ios7.icons.user;sketch=0;fontSize=20;fontColor=#FFFFFF;fillColor=#FFFFFF;" parent="xkv93dfL5ZNA0a60ZzHi-1" vertex="1">
          <mxGeometry x="500" y="34.5" width="30" height="30" as="geometry" />
        </mxCell>
        <mxCell id="GMRbsEK7jlrv7o2Da9Vz-6" value="John Doe" style="text;html=1;strokeColor=none;fillColor=none;align=center;verticalAlign=middle;whiteSpace=wrap;rounded=0;shadow=0;sketch=0;fontSize=19;fontColor=#FFFFFF;" parent="xkv93dfL5ZNA0a60ZzHi-1" vertex="1">
          <mxGeometry x="543.5" y="39.5" width="94" height="20" as="geometry" />
        </mxCell>
        <mxCell id="GMRbsEK7jlrv7o2Da9Vz-13" value="" style="html=1;shadow=0;dashed=0;shape=mxgraph.bootstrap.rrect;rSize=5;strokeColor=#DEE2E6;html=1;whiteSpace=wrap;fillColor=#ffffff;fontColor=#0085FC;fontSize=14;" parent="xkv93dfL5ZNA0a60ZzHi-1" vertex="1">
          <mxGeometry x="590" y="640" width="220" height="30" as="geometry" />
        </mxCell>
        <mxCell id="GMRbsEK7jlrv7o2Da9Vz-14" value="Previous" style="strokeColor=inherit;fillColor=inherit;gradientColor=inherit;html=1;shadow=0;dashed=0;shape=mxgraph.bootstrap.leftButton;rSize=5;perimeter=none;whiteSpace=wrap;resizeHeight=1;fontColor=#6C767D;fontSize=14;" parent="GMRbsEK7jlrv7o2Da9Vz-13" vertex="1">
          <mxGeometry width="70" height="30" relative="1" as="geometry" />
        </mxCell>
        <mxCell id="GMRbsEK7jlrv7o2Da9Vz-15" value="1" style="strokeColor=inherit;fillColor=inherit;gradientColor=inherit;fontColor=inherit;html=1;shadow=0;dashed=0;perimeter=none;whiteSpace=wrap;resizeHeight=1;fontSize=14;" parent="GMRbsEK7jlrv7o2Da9Vz-13" vertex="1">
          <mxGeometry width="30" height="30" relative="1" as="geometry">
            <mxPoint x="70" as="offset" />
          </mxGeometry>
        </mxCell>
        <mxCell id="GMRbsEK7jlrv7o2Da9Vz-16" value="2" style="html=1;shadow=0;dashed=0;perimeter=none;whiteSpace=wrap;resizeHeight=1;fillColor=#0085FC;strokeColor=none;fontColor=#ffffff;fontSize=14;" parent="GMRbsEK7jlrv7o2Da9Vz-13" vertex="1">
          <mxGeometry width="30" height="30" relative="1" as="geometry">
            <mxPoint x="100" as="offset" />
          </mxGeometry>
        </mxCell>
        <mxCell id="GMRbsEK7jlrv7o2Da9Vz-17" value="3" style="strokeColor=inherit;fillColor=inherit;gradientColor=inherit;fontColor=inherit;html=1;shadow=0;dashed=0;perimeter=none;whiteSpace=wrap;resizeHeight=1;fontSize=14;" parent="GMRbsEK7jlrv7o2Da9Vz-13" vertex="1">
          <mxGeometry width="30" height="30" relative="1" as="geometry">
            <mxPoint x="130" as="offset" />
          </mxGeometry>
        </mxCell>
        <mxCell id="GMRbsEK7jlrv7o2Da9Vz-18" value="Next" style="strokeColor=inherit;fillColor=inherit;gradientColor=inherit;fontColor=inherit;html=1;shadow=0;dashed=0;shape=mxgraph.bootstrap.rightButton;rSize=5;perimeter=none;whiteSpace=wrap;resizeHeight=1;fontSize=14;" parent="GMRbsEK7jlrv7o2Da9Vz-13" vertex="1">
          <mxGeometry x="1" width="60" height="30" relative="1" as="geometry">
            <mxPoint x="-60" as="offset" />
          </mxGeometry>
        </mxCell>
        <mxCell id="GMRbsEK7jlrv7o2Da9Vz-19" value="" style="html=1;shadow=0;dashed=0;shape=mxgraph.bootstrap.rrect;rSize=5;fillColor=#f6f6f6;whiteSpace=wrap;" parent="xkv93dfL5ZNA0a60ZzHi-1" vertex="1">
          <mxGeometry x="390" y="780" width="430" height="20" as="geometry" />
        </mxCell>
        <mxCell id="GMRbsEK7jlrv7o2Da9Vz-20" value="" style="html=1;shadow=0;dashed=0;shape=mxgraph.bootstrap.leftButtonStriped;fillColor=#55BFE0;fontColor=#FFFFFF;whiteSpace=wrap;" parent="GMRbsEK7jlrv7o2Da9Vz-19" vertex="1">
          <mxGeometry width="268.75" height="20" as="geometry" />
        </mxCell>
        <mxCell id="AXpmR5Ptf7vZE80HdJZA-2" value="1" style="shape=ellipse;fontSize=12;strokeColor=none;fillColor=#4285F4;fontColor=#ffffff;align=center;verticalAlign=middle;" parent="xkv93dfL5ZNA0a60ZzHi-1" vertex="1">
          <mxGeometry x="70" y="930" width="24" height="24" as="geometry" />
        </mxCell>
        <mxCell id="AXpmR5Ptf7vZE80HdJZA-3" value="Ad unit details" style="shape=rect;fontColor=#4d4d4dlfontSize=13;strokeColor=none;fillColor=none;" parent="xkv93dfL5ZNA0a60ZzHi-1" vertex="1">
          <mxGeometry x="32" y="960" width="100" height="20" as="geometry" />
        </mxCell>
        <mxCell id="AXpmR5Ptf7vZE80HdJZA-4" value="" style="shape=line;strokeColor=#b3b3b3;" parent="xkv93dfL5ZNA0a60ZzHi-1" vertex="1">
          <mxGeometry x="102" y="937" width="110" height="10" as="geometry" />
        </mxCell>
        <mxCell id="AXpmR5Ptf7vZE80HdJZA-5" value="2" style="shape=ellipse;fontSize=12;strokeColor=none;fillColor=#9e9e9e;fontColor=#ffffff;align=center;verticalAlign=middle;" parent="xkv93dfL5ZNA0a60ZzHi-1" vertex="1">
          <mxGeometry x="222" y="930" width="24" height="24" as="geometry" />
        </mxCell>
        <mxCell id="AXpmR5Ptf7vZE80HdJZA-6" value="Ad sizes" style="shape=rect;fontColor=#4d4d4dlfontSize=13;strokeColor=none;fillColor=none;" parent="xkv93dfL5ZNA0a60ZzHi-1" vertex="1">
          <mxGeometry x="184" y="960" width="100" height="20" as="geometry" />
        </mxCell>
        <mxCell id="AXpmR5Ptf7vZE80HdJZA-7" value="" style="shape=line;strokeColor=#b3b3b3;" parent="xkv93dfL5ZNA0a60ZzHi-1" vertex="1">
          <mxGeometry x="254" y="937" width="110" height="10" as="geometry" />
        </mxCell>
        <mxCell id="AXpmR5Ptf7vZE80HdJZA-8" value="3" style="shape=ellipse;fontSize=12;strokeColor=none;fillColor=#9e9e9e;fontColor=#ffffff;" parent="xkv93dfL5ZNA0a60ZzHi-1" vertex="1">
          <mxGeometry x="374" y="930" width="24" height="24" as="geometry" />
        </mxCell>
        <mxCell id="AXpmR5Ptf7vZE80HdJZA-9" value="Create an ad" style="shape=rect;fontColor=#4d4d4dlfontSize=13;strokeColor=none;fillColor=none;align=center;verticalAlign=middle;" parent="xkv93dfL5ZNA0a60ZzHi-1" vertex="1">
          <mxGeometry x="336" y="960" width="100" height="20" as="geometry" />
        </mxCell>
        <mxCell id="AXpmR5Ptf7vZE80HdJZA-10" value="" style="shape=rect;fillColor=#ffffff;strokeColor=#eeeeee;shadow=1;" parent="xkv93dfL5ZNA0a60ZzHi-1" vertex="1">
          <mxGeometry x="560" y="880" width="280" height="328" as="geometry" />
        </mxCell>
        <mxCell id="AXpmR5Ptf7vZE80HdJZA-11" value="Title goes here" style="text;fontSize=19;fontColor=#000000;align=left;spacing=16;verticalAlign=middle;fontStyle=1;resizeWidth=1;" parent="AXpmR5Ptf7vZE80HdJZA-10" vertex="1">
          <mxGeometry width="280" height="68" relative="1" as="geometry" />
        </mxCell>
        <mxCell id="AXpmR5Ptf7vZE80HdJZA-12" value="Single line text goes here" style="text;fontSize=15;fontColor=#000000;align=left;spacing=16;fillColor=#e0e0e0;verticalAlign=middle;resizeWidth=1;" parent="AXpmR5Ptf7vZE80HdJZA-10" vertex="1">
          <mxGeometry width="280" height="50" relative="1" as="geometry">
            <mxPoint y="68" as="offset" />
          </mxGeometry>
        </mxCell>
        <mxCell id="AXpmR5Ptf7vZE80HdJZA-13" value="Two line wrapped text goes here making it wrap to next line" style="text;fontSize=15;fontColor=#000000;align=left;spacing=16;verticalAlign=middle;whiteSpace=wrap;resizeWidth=1;" parent="AXpmR5Ptf7vZE80HdJZA-10" vertex="1">
          <mxGeometry width="280" height="70" relative="1" as="geometry">
            <mxPoint y="118" as="offset" />
          </mxGeometry>
        </mxCell>
        <mxCell id="AXpmR5Ptf7vZE80HdJZA-14" value="Single line text goes here" style="text;fontSize=15;fontColor=#000000;align=left;spacing=16;verticalAlign=middle;resizeWidth=1;" parent="AXpmR5Ptf7vZE80HdJZA-10" vertex="1">
          <mxGeometry width="280" height="50" relative="1" as="geometry">
            <mxPoint y="188" as="offset" />
          </mxGeometry>
        </mxCell>
        <mxCell id="AXpmR5Ptf7vZE80HdJZA-15" value="Three line wrapped text goes here making it wrap to next line and continues longer to be here" style="text;fontSize=15;fontColor=#000000;align=left;spacing=16;verticalAlign=middle;whiteSpace=wrap;resizeWidth=1;" parent="AXpmR5Ptf7vZE80HdJZA-10" vertex="1">
          <mxGeometry width="280" height="90" relative="1" as="geometry">
            <mxPoint y="238" as="offset" />
          </mxGeometry>
        </mxCell>
        <mxCell id="AXpmR5Ptf7vZE80HdJZA-16" value="Chip text here" style="shape=rect;arcSize=50;strokeColor=none;fillColor=#eeeeee;rounded=1;spacingLeft=24;fontSize=13;align=left;" parent="xkv93dfL5ZNA0a60ZzHi-1" vertex="1">
          <mxGeometry x="42" y="1020" width="148" height="32" as="geometry" />
        </mxCell>
        <mxCell id="AXpmR5Ptf7vZE80HdJZA-18" value="" style="shape=ellipse;strokeColor=none;fillColor=#A5A5A5;aspect=fixed;" parent="AXpmR5Ptf7vZE80HdJZA-16" vertex="1">
          <mxGeometry x="1" y="0.5" width="16" height="16" relative="1" as="geometry">
            <mxPoint x="-24" y="-8" as="offset" />
          </mxGeometry>
        </mxCell>
        <mxCell id="AXpmR5Ptf7vZE80HdJZA-19" value="" style="dashed=0;shape=mxgraph.gmdl.x;strokeColor=#ffffff;strokeWidth=2;" parent="AXpmR5Ptf7vZE80HdJZA-18" vertex="1">
          <mxGeometry x="5" y="5" width="6" height="6" as="geometry" />
        </mxCell>
        <mxCell id="5jCBTZgDd5pSJJfWpDrM-0" value="" style="group" parent="xkv93dfL5ZNA0a60ZzHi-1" connectable="0" vertex="1">
          <mxGeometry x="440" y="223" width="346" height="35" as="geometry" />
        </mxCell>
        <mxCell id="AXpmR5Ptf7vZE80HdJZA-0" value="Hint text" style="text;fontColor=#808080;fontSize=16;verticalAlign=middle;strokeColor=none;fillColor=none;" parent="5jCBTZgDd5pSJJfWpDrM-0" vertex="1">
          <mxGeometry width="346" height="30" as="geometry" />
        </mxCell>
        <mxCell id="AXpmR5Ptf7vZE80HdJZA-1" value="" style="dashed=0;shape=line;strokeWidth=1;noLabel=1;strokeColor=#cccccc;opacity=50;" parent="5jCBTZgDd5pSJJfWpDrM-0" vertex="1">
          <mxGeometry y="25" width="346" height="10" as="geometry" />
        </mxCell>
        <mxCell id="XB1SntbMcaMM9CkIJR_m-0" value="" style="html=1;shadow=0;dashed=0;shape=mxgraph.bootstrap.rrect;rSize=5;strokeColor=#CED4DA;html=1;whiteSpace=wrap;fillColor=#FFFFFF;fontColor=#7D868C;align=left;spacing=15;spacingLeft=40;fontSize=14;" parent="xkv93dfL5ZNA0a60ZzHi-1" vertex="1">
          <mxGeometry x="530" y="520" width="230.00000000000006" height="30" as="geometry" />
        </mxCell>
        <mxCell id="hCrV3XMsrdQ1lhvqrHGt-57" value="" style="group" parent="xkv93dfL5ZNA0a60ZzHi-1" vertex="1" connectable="0">
          <mxGeometry x="30" y="1130" width="236" height="638" as="geometry" />
        </mxCell>
        <mxCell id="hCrV3XMsrdQ1lhvqrHGt-28" value="1" style="shape=ellipse;strokeColor=none;fillColor=#4285F4;fontColor=#ffffff;" parent="hCrV3XMsrdQ1lhvqrHGt-57" vertex="1">
          <mxGeometry width="24" height="24" as="geometry" />
        </mxCell>
        <mxCell id="hCrV3XMsrdQ1lhvqrHGt-29" value="Dataset Details" style="shape=rect;strokeColor=none;fillColor=none;align=left;fontStyle=1;" parent="hCrV3XMsrdQ1lhvqrHGt-57" vertex="1">
          <mxGeometry x="36" width="200" height="24" as="geometry" />
        </mxCell>
        <mxCell id="hCrV3XMsrdQ1lhvqrHGt-30" value="" style="shape=line;direction=north;strokeColor=#b3b3b3;" parent="hCrV3XMsrdQ1lhvqrHGt-57" vertex="1">
          <mxGeometry x="7" y="30" width="10" height="296" as="geometry" />
        </mxCell>
        <mxCell id="hCrV3XMsrdQ1lhvqrHGt-31" value="Next" style="shape=rect;strokeColor=none;fillColor=#4285f4;fontColor=#ffffff;rounded=1;" parent="hCrV3XMsrdQ1lhvqrHGt-57" vertex="1">
          <mxGeometry x="36" y="276" width="102" height="36" as="geometry" />
        </mxCell>
        <mxCell id="hCrV3XMsrdQ1lhvqrHGt-32" value="2" style="shape=ellipse;strokeColor=none;fillColor=#9e9e9e;fontColor=#ffffff;" parent="hCrV3XMsrdQ1lhvqrHGt-57" vertex="1">
          <mxGeometry y="332" width="24" height="24" as="geometry" />
        </mxCell>
        <mxCell id="hCrV3XMsrdQ1lhvqrHGt-33" value="Dataset Classification Details" style="shape=rect;strokeColor=none;fillColor=none;align=left;fontColor=#aaaaaa;" parent="hCrV3XMsrdQ1lhvqrHGt-57" vertex="1">
          <mxGeometry x="36" y="332" width="200" height="24" as="geometry" />
        </mxCell>
        <mxCell id="hCrV3XMsrdQ1lhvqrHGt-34" value="3" style="shape=ellipse;strokeColor=none;fillColor=#9e9e9e;fontColor=#ffffff;" parent="hCrV3XMsrdQ1lhvqrHGt-57" vertex="1">
          <mxGeometry y="398" width="24" height="24" as="geometry" />
        </mxCell>
        <mxCell id="hCrV3XMsrdQ1lhvqrHGt-35" value="Dataset Location" style="shape=rect;strokeColor=none;fillColor=none;align=left;fontColor=#aaaaaa;" parent="hCrV3XMsrdQ1lhvqrHGt-57" vertex="1">
          <mxGeometry x="36" y="398" width="200" height="24" as="geometry" />
        </mxCell>
        <mxCell id="hCrV3XMsrdQ1lhvqrHGt-36" value="" style="shape=line;direction=north;strokeColor=#b3b3b3;" parent="hCrV3XMsrdQ1lhvqrHGt-57" vertex="1">
          <mxGeometry x="7" y="366" width="10" height="25" as="geometry" />
        </mxCell>
        <mxCell id="hCrV3XMsrdQ1lhvqrHGt-39" value="Cancel" style="html=1;shadow=0;dashed=0;shape=mxgraph.bootstrap.rrect;rSize=5;fillColor=#6C757D;strokeColor=none;fontColor=#FFFFFF;fontSize=14;" parent="hCrV3XMsrdQ1lhvqrHGt-57" vertex="1">
          <mxGeometry x="146.00402733964256" y="276" width="70" height="36" as="geometry" />
        </mxCell>
        <mxCell id="hCrV3XMsrdQ1lhvqrHGt-47" value="4" style="shape=ellipse;strokeColor=none;fillColor=#9e9e9e;fontColor=#ffffff;" parent="hCrV3XMsrdQ1lhvqrHGt-57" vertex="1">
          <mxGeometry y="474" width="24" height="24" as="geometry" />
        </mxCell>
        <mxCell id="hCrV3XMsrdQ1lhvqrHGt-48" value="" style="shape=line;direction=north;strokeColor=#b3b3b3;" parent="hCrV3XMsrdQ1lhvqrHGt-57" vertex="1">
          <mxGeometry x="7" y="436" width="10" height="25" as="geometry" />
        </mxCell>
        <mxCell id="hCrV3XMsrdQ1lhvqrHGt-49" value="5" style="shape=ellipse;strokeColor=none;fillColor=#9e9e9e;fontColor=#ffffff;" parent="hCrV3XMsrdQ1lhvqrHGt-57" vertex="1">
          <mxGeometry y="544" width="24" height="24" as="geometry" />
        </mxCell>
        <mxCell id="hCrV3XMsrdQ1lhvqrHGt-50" value="" style="shape=line;direction=north;strokeColor=#b3b3b3;" parent="hCrV3XMsrdQ1lhvqrHGt-57" vertex="1">
          <mxGeometry x="7" y="506" width="10" height="25" as="geometry" />
        </mxCell>
        <mxCell id="hCrV3XMsrdQ1lhvqrHGt-51" value="6" style="shape=ellipse;strokeColor=none;fillColor=#9e9e9e;fontColor=#ffffff;" parent="hCrV3XMsrdQ1lhvqrHGt-57" vertex="1">
          <mxGeometry y="614" width="24" height="24" as="geometry" />
        </mxCell>
        <mxCell id="hCrV3XMsrdQ1lhvqrHGt-52" value="" style="shape=line;direction=north;strokeColor=#b3b3b3;" parent="hCrV3XMsrdQ1lhvqrHGt-57" vertex="1">
          <mxGeometry x="7" y="576" width="10" height="25" as="geometry" />
        </mxCell>
        <mxCell id="hCrV3XMsrdQ1lhvqrHGt-53" value="PII" style="shape=rect;strokeColor=none;fillColor=none;align=left;fontColor=#aaaaaa;" parent="hCrV3XMsrdQ1lhvqrHGt-57" vertex="1">
          <mxGeometry x="36" y="474" width="200" height="24" as="geometry" />
        </mxCell>
        <mxCell id="hCrV3XMsrdQ1lhvqrHGt-54" value="Record Schedule" style="shape=rect;strokeColor=none;fillColor=none;align=left;fontColor=#aaaaaa;" parent="hCrV3XMsrdQ1lhvqrHGt-57" vertex="1">
          <mxGeometry x="36" y="544" width="200" height="24" as="geometry" />
        </mxCell>
        <mxCell id="hCrV3XMsrdQ1lhvqrHGt-55" value="Notes" style="shape=rect;strokeColor=none;fillColor=none;align=left;fontColor=#aaaaaa;" parent="hCrV3XMsrdQ1lhvqrHGt-57" vertex="1">
          <mxGeometry x="36" y="614" width="200" height="24" as="geometry" />
        </mxCell>
        <mxCell id="2PX1hrpuTWqkZqvQyhOm-13" value="" style="group" parent="xkv93dfL5ZNA0a60ZzHi-1" vertex="1" connectable="0">
          <mxGeometry x="370" y="1290" width="440.33" height="55" as="geometry" />
        </mxCell>
        <mxCell id="2PX1hrpuTWqkZqvQyhOm-14" value="&lt;font color=&quot;#000000&quot; style=&quot;font-size: 11px;&quot;&gt;Originating Org:&lt;/font&gt;" style="text;html=1;strokeColor=none;fillColor=none;align=left;verticalAlign=middle;whiteSpace=wrap;rounded=0;shadow=0;sketch=0;fontSize=11;fontColor=#0645AD;" parent="2PX1hrpuTWqkZqvQyhOm-13" vertex="1">
          <mxGeometry width="80.33" height="20" as="geometry" />
        </mxCell>
        <mxCell id="2PX1hrpuTWqkZqvQyhOm-15" value="Level 4" style="rounded=1;fillColor=#F1F2F4;strokeColor=none;html=1;fontColor=#596780;align=left;fontSize=12;spacingLeft=10;shadow=0;sketch=0;" parent="2PX1hrpuTWqkZqvQyhOm-13" vertex="1">
          <mxGeometry x="270" y="25" width="80" height="30" as="geometry" />
        </mxCell>
        <mxCell id="2PX1hrpuTWqkZqvQyhOm-16" value="" style="shape=triangle;direction=south;fillColor=#596780;strokeColor=none;html=1" parent="2PX1hrpuTWqkZqvQyhOm-15" vertex="1">
          <mxGeometry x="1" y="0.5" width="12" height="6" relative="1" as="geometry">
            <mxPoint x="-20" y="-3" as="offset" />
          </mxGeometry>
        </mxCell>
        <mxCell id="2PX1hrpuTWqkZqvQyhOm-17" value="&lt;font color=&quot;#000000&quot;&gt;PPP/QQQ/RRR/ZZZ/AAA&lt;/font&gt;" style="text;html=1;strokeColor=none;fillColor=none;align=left;verticalAlign=middle;whiteSpace=wrap;rounded=0;shadow=0;sketch=0;fontSize=10;fontColor=#0645AD;" parent="2PX1hrpuTWqkZqvQyhOm-13" vertex="1">
          <mxGeometry x="90" width="80.33" height="20" as="geometry" />
        </mxCell>
        <mxCell id="2PX1hrpuTWqkZqvQyhOm-18" value="Level 5" style="rounded=1;fillColor=#F1F2F4;strokeColor=none;html=1;fontColor=#596780;align=left;fontSize=12;spacingLeft=10;shadow=0;sketch=0;" parent="2PX1hrpuTWqkZqvQyhOm-13" vertex="1">
          <mxGeometry x="360.33" y="25" width="80" height="30" as="geometry" />
        </mxCell>
        <mxCell id="2PX1hrpuTWqkZqvQyhOm-19" value="" style="shape=triangle;direction=south;fillColor=#596780;strokeColor=none;html=1" parent="2PX1hrpuTWqkZqvQyhOm-18" vertex="1">
          <mxGeometry x="1" y="0.5" width="12" height="6" relative="1" as="geometry">
            <mxPoint x="-20" y="-3" as="offset" />
          </mxGeometry>
        </mxCell>
        <mxCell id="2PX1hrpuTWqkZqvQyhOm-20" value="Level 1" style="rounded=1;fillColor=#F1F2F4;strokeColor=none;html=1;fontColor=#596780;align=left;fontSize=12;spacingLeft=10;shadow=0;sketch=0;" parent="2PX1hrpuTWqkZqvQyhOm-13" vertex="1">
          <mxGeometry y="25" width="80" height="30" as="geometry" />
        </mxCell>
        <mxCell id="2PX1hrpuTWqkZqvQyhOm-21" value="" style="shape=triangle;direction=south;fillColor=#596780;strokeColor=none;html=1" parent="2PX1hrpuTWqkZqvQyhOm-20" vertex="1">
          <mxGeometry x="1" y="0.5" width="12" height="6" relative="1" as="geometry">
            <mxPoint x="-20" y="-3" as="offset" />
          </mxGeometry>
        </mxCell>
        <mxCell id="2PX1hrpuTWqkZqvQyhOm-22" value="Level 2" style="rounded=1;fillColor=#F1F2F4;strokeColor=none;html=1;fontColor=#596780;align=left;fontSize=12;spacingLeft=10;shadow=0;sketch=0;" parent="2PX1hrpuTWqkZqvQyhOm-13" vertex="1">
          <mxGeometry x="90" y="25" width="80" height="30" as="geometry" />
        </mxCell>
        <mxCell id="2PX1hrpuTWqkZqvQyhOm-23" value="" style="shape=triangle;direction=south;fillColor=#596780;strokeColor=none;html=1" parent="2PX1hrpuTWqkZqvQyhOm-22" vertex="1">
          <mxGeometry x="1" y="0.5" width="12" height="6" relative="1" as="geometry">
            <mxPoint x="-20" y="-3" as="offset" />
          </mxGeometry>
        </mxCell>
        <mxCell id="2PX1hrpuTWqkZqvQyhOm-24" value="Level 3" style="rounded=1;fillColor=#F1F2F4;strokeColor=none;html=1;fontColor=#596780;align=left;fontSize=12;spacingLeft=10;shadow=0;sketch=0;" parent="2PX1hrpuTWqkZqvQyhOm-13" vertex="1">
          <mxGeometry x="180" y="25" width="80" height="30" as="geometry" />
        </mxCell>
        <mxCell id="2PX1hrpuTWqkZqvQyhOm-25" value="" style="shape=triangle;direction=south;fillColor=#596780;strokeColor=none;html=1" parent="2PX1hrpuTWqkZqvQyhOm-24" vertex="1">
          <mxGeometry x="1" y="0.5" width="12" height="6" relative="1" as="geometry">
            <mxPoint x="-20" y="-3" as="offset" />
          </mxGeometry>
        </mxCell>
        <mxCell id="PjoGtc6Fw8YFjYWqu3ur-3" value="" style="group" parent="xkv93dfL5ZNA0a60ZzHi-1" connectable="0" vertex="1">
          <mxGeometry x="370" y="1370" width="346" height="55" as="geometry" />
        </mxCell>
        <mxCell id="PjoGtc6Fw8YFjYWqu3ur-0" value="Label text" style="text;fontColor=#1F9BFD;fontSize=12;verticalAlign=middle;strokeColor=none;fillColor=none;" parent="PjoGtc6Fw8YFjYWqu3ur-3" vertex="1">
          <mxGeometry width="346" height="30" as="geometry" />
        </mxCell>
        <mxCell id="PjoGtc6Fw8YFjYWqu3ur-1" value="Input text" style="text;fontSize=16;verticalAlign=middle;strokeColor=none;fillColor=none;" parent="PjoGtc6Fw8YFjYWqu3ur-3" vertex="1">
          <mxGeometry y="20" width="346" height="30" as="geometry" />
        </mxCell>
        <mxCell id="PjoGtc6Fw8YFjYWqu3ur-2" value="" style="dashed=0;shape=line;strokeWidth=2;noLabel=1;strokeColor=#1F9BFD;" parent="PjoGtc6Fw8YFjYWqu3ur-3" vertex="1">
          <mxGeometry y="45" width="346" height="10" as="geometry" />
        </mxCell>
        <mxCell id="LsmkeChisaqdX0jZGm3e-0" value="" style="shape=ellipse;dashed=0;strokeColor=none;shadow=1;fontSize=13;align=center;verticalAlign=top;labelPosition=center;verticalLabelPosition=bottom;html=1;aspect=fixed;rounded=1;sketch=0;fillColor=#F8F9FA;" parent="xkv93dfL5ZNA0a60ZzHi-1" vertex="1">
          <mxGeometry x="380" y="1480" width="30" height="30" as="geometry" />
        </mxCell>
        <mxCell id="LsmkeChisaqdX0jZGm3e-1" value="" style="dashed=0;html=1;shape=mxgraph.gmdl.cloud;strokeColor=none;fillColor=#737373;shadow=0;" parent="LsmkeChisaqdX0jZGm3e-0" vertex="1">
          <mxGeometry x="8.571428571428571" y="10.714285714285714" width="12.857142857142858" height="8.571428571428571" as="geometry" />
        </mxCell>
        <mxCell id="LsmkeChisaqdX0jZGm3e-2" value="" style="shape=flexArrow;endArrow=classic;html=1;width=1.627906976744186;endWidth=1.4940886059503704;endSize=0.670391061452514;fillColor=#FFFFFF;strokeColor=none;" parent="LsmkeChisaqdX0jZGm3e-0" edge="1">
          <mxGeometry width="50" height="50" relative="1" as="geometry">
            <mxPoint x="14.940000000000055" y="12" as="sourcePoint" />
            <mxPoint x="14.940000000000055" y="18" as="targetPoint" />
          </mxGeometry>
        </mxCell>
        <mxCell id="4wY3HowodGtWrObB14q6-0" value="" style="group" parent="xkv93dfL5ZNA0a60ZzHi-1" connectable="0" vertex="1">
          <mxGeometry x="145" y="140" width="555" height="60" as="geometry" />
        </mxCell>
        <mxCell id="pSqkXLJ9_N4VDg3yCQ0M-0" value="" style="html=1;shadow=0;dashed=0;fillColor=#F8F9FA;strokeColor=none;fontSize=16;fontColor=#181819;align=left;spacing=15;" parent="4wY3HowodGtWrObB14q6-0" vertex="1">
          <mxGeometry width="555" height="60" as="geometry" />
        </mxCell>
        <mxCell id="pSqkXLJ9_N4VDg3yCQ0M-1" value="Search" style="html=1;shadow=0;dashed=0;shape=mxgraph.bootstrap.rrect;rSize=5;fontSize=14;fontColor=#6C767D;strokeColor=#CED4DA;fillColor=#ffffff;align=left;spacing=10;" parent="pSqkXLJ9_N4VDg3yCQ0M-0" vertex="1">
          <mxGeometry width="470" height="40" relative="1" as="geometry">
            <mxPoint x="10" y="10" as="offset" />
          </mxGeometry>
        </mxCell>
        <mxCell id="s2X8znYwR4Jzq7JiZqey-3" value="" style="ellipse;whiteSpace=wrap;html=1;fillColor=#FFFFFF;" parent="pSqkXLJ9_N4VDg3yCQ0M-0" vertex="1">
          <mxGeometry x="425.67961165048536" y="22" width="10.776699029126211" height="10" as="geometry" />
        </mxCell>
        <mxCell id="s2X8znYwR4Jzq7JiZqey-4" value="" style="endArrow=none;html=1;" parent="pSqkXLJ9_N4VDg3yCQ0M-0" edge="1">
          <mxGeometry width="50" height="50" relative="1" as="geometry">
            <mxPoint x="436.4563106796116" y="32" as="sourcePoint" />
            <mxPoint x="436.4563106796116" y="32" as="targetPoint" />
            <Array as="points">
              <mxPoint x="447.23300970873777" y="40" />
            </Array>
          </mxGeometry>
        </mxCell>
        <mxCell id="s2X8znYwR4Jzq7JiZqey-6" value="" style="triangle;whiteSpace=wrap;html=1;rotation=90;fillColor=#000000;" parent="pSqkXLJ9_N4VDg3yCQ0M-0" vertex="1">
          <mxGeometry x="458.00970873786395" y="25" width="10.776699029126211" height="10" as="geometry" />
        </mxCell>
        <mxCell id="pSqkXLJ9_N4VDg3yCQ0M-3" value="" style="shape=ellipse;dashed=0;strokeColor=none;shadow=1;fontSize=13;align=center;verticalAlign=top;labelPosition=center;verticalLabelPosition=bottom;html=1;aspect=fixed;" parent="4wY3HowodGtWrObB14q6-0" vertex="1">
          <mxGeometry x="492.5" y="10" width="40" height="40" as="geometry" />
        </mxCell>
        <mxCell id="pSqkXLJ9_N4VDg3yCQ0M-4" value="" style="dashed=0;html=1;shape=mxgraph.gmdl.plus;strokeColor=#737373;strokeWidth=2;shadow=0;" parent="pSqkXLJ9_N4VDg3yCQ0M-3" vertex="1">
          <mxGeometry x="12" y="12" width="16" height="16" as="geometry" />
        </mxCell>
        <mxCell id="LsmkeChisaqdX0jZGm3e-3" value="" style="shape=ellipse;dashed=0;strokeColor=none;shadow=1;fontSize=13;align=center;verticalAlign=top;labelPosition=center;verticalLabelPosition=bottom;html=1;aspect=fixed;rounded=1;sketch=0;fillColor=#F8F9FA;" parent="xkv93dfL5ZNA0a60ZzHi-1" vertex="1">
          <mxGeometry x="470" y="1520" width="30" height="30" as="geometry" />
        </mxCell>
        <mxCell id="LsmkeChisaqdX0jZGm3e-4" value="" style="dashed=0;html=1;shape=mxgraph.gmdl.cloud;strokeColor=none;fillColor=#737373;shadow=0;" parent="LsmkeChisaqdX0jZGm3e-3" vertex="1">
          <mxGeometry x="8.571428571428571" y="10.714285714285714" width="12.857142857142858" height="8.571428571428571" as="geometry" />
        </mxCell>
        <mxCell id="LsmkeChisaqdX0jZGm3e-5" value="" style="shape=flexArrow;endArrow=classic;html=1;width=1.627906976744186;endWidth=1.4940886059503704;endSize=0.670391061452514;strokeColor=none;fillColor=#ffffff;" parent="LsmkeChisaqdX0jZGm3e-3" edge="1">
          <mxGeometry width="50" height="50" relative="1" as="geometry">
            <mxPoint x="14.939999999999827" y="18" as="sourcePoint" />
            <mxPoint x="14.939999999999827" y="12" as="targetPoint" />
          </mxGeometry>
        </mxCell>
        <mxCell id="h2KlU3Mq0JFBnVk52u2B-9" value="" style="group" parent="xkv93dfL5ZNA0a60ZzHi-1" connectable="0" vertex="1">
          <mxGeometry x="360" y="1560" width="280" height="328" as="geometry" />
        </mxCell>
        <mxCell id="h2KlU3Mq0JFBnVk52u2B-0" value="" style="shape=rect;fillColor=#ffffff;strokeColor=#eeeeee;shadow=1;container=0;" parent="h2KlU3Mq0JFBnVk52u2B-9" vertex="1">
          <mxGeometry width="280" height="328" as="geometry" />
        </mxCell>
        <mxCell id="h2KlU3Mq0JFBnVk52u2B-1" value="Title goes here" style="text;fontSize=19;fontColor=#000000;align=left;spacing=16;verticalAlign=middle;fontStyle=1;resizeWidth=1;" parent="h2KlU3Mq0JFBnVk52u2B-9" vertex="1">
          <mxGeometry width="280" height="50" as="geometry" />
        </mxCell>
        <mxCell id="h2KlU3Mq0JFBnVk52u2B-6" value="" style="shape=triangle;direction=north;fillColor=#596780;strokeColor=none;html=1;" parent="h2KlU3Mq0JFBnVk52u2B-9" vertex="1">
          <mxGeometry x="250" y="22" width="18" height="9" as="geometry" />
        </mxCell>
        <mxCell id="h2KlU3Mq0JFBnVk52u2B-7" value="" style="line;strokeWidth=1;fillColor=none;align=left;verticalAlign=middle;spacingTop=-1;spacingLeft=3;spacingRight=3;rotatable=0;labelPosition=right;points=[];portConstraint=eastwest;labelBackgroundColor=none;sketch=0;fontSize=16;strokeColor=#E6E6E6;" parent="h2KlU3Mq0JFBnVk52u2B-9" vertex="1">
          <mxGeometry x="1" y="42" width="279" height="8" as="geometry" />
        </mxCell>
        <mxCell id="h2KlU3Mq0JFBnVk52u2B-8" value="Expandable Panel conten" style="text;html=1;strokeColor=none;fillColor=none;align=center;verticalAlign=middle;whiteSpace=wrap;rounded=0;labelBackgroundColor=none;sketch=0;fontSize=16;" parent="h2KlU3Mq0JFBnVk52u2B-9" vertex="1">
          <mxGeometry x="8" y="60" width="215" height="20" as="geometry" />
        </mxCell>
        <mxCell id="EqVPE0Dl84wnntA0E7xP-0" value="" style="group" parent="xkv93dfL5ZNA0a60ZzHi-1" vertex="1" connectable="0">
          <mxGeometry x="425" y="1520" width="30" height="30" as="geometry" />
        </mxCell>
        <mxCell id="EqVPE0Dl84wnntA0E7xP-1" value="" style="shape=ellipse;dashed=0;strokeColor=none;shadow=1;fontSize=13;align=center;verticalAlign=top;labelPosition=center;verticalLabelPosition=bottom;html=1;aspect=fixed;rounded=1;sketch=0;fillColor=#F8F9FA;" parent="EqVPE0Dl84wnntA0E7xP-0" vertex="1">
          <mxGeometry width="30" height="30" as="geometry" />
        </mxCell>
        <mxCell id="EqVPE0Dl84wnntA0E7xP-2" value="" style="dashed=0;aspect=fixed;verticalLabelPosition=bottom;verticalAlign=top;align=center;shape=mxgraph.gmdl.reply;strokeColor=none;fillColor=#737373;shadow=0;labelBackgroundColor=#00FF00;fontSize=14;fontColor=#00FF00;direction=west;flipV=1;" parent="EqVPE0Dl84wnntA0E7xP-0" vertex="1">
          <mxGeometry x="7" y="7.800000000000011" width="16" height="14.4" as="geometry" />
        </mxCell>
        <mxCell id="RFJ4KLtVArKrq3MvSFmw-10" value="" style="group" parent="xkv93dfL5ZNA0a60ZzHi-1" connectable="0" vertex="1">
          <mxGeometry x="88" y="1940" width="232" height="120" as="geometry" />
        </mxCell>
        <mxCell id="RFJ4KLtVArKrq3MvSFmw-0" value="Line item selected" style="dashed=0;shape=rect;fillColor=#ffffff;strokeColor=none;verticalLabelPosition=middle;align=left;verticalAlign=middle;fontSize=15;spacingLeft=72;" parent="RFJ4KLtVArKrq3MvSFmw-10" vertex="1">
          <mxGeometry width="232" height="30" as="geometry" />
        </mxCell>
        <mxCell id="RFJ4KLtVArKrq3MvSFmw-1" value="" style="dashed=0;shape=mxgraph.gmdl.checkbox;strokeColor=none;fillColor=#089953;strokeWidth=2;" parent="RFJ4KLtVArKrq3MvSFmw-0" vertex="1">
          <mxGeometry y="0.5" width="18" height="18" relative="1" as="geometry">
            <mxPoint x="16" y="-9" as="offset" />
          </mxGeometry>
        </mxCell>
        <mxCell id="RFJ4KLtVArKrq3MvSFmw-3" value="Line item unselected" style="dashed=0;shape=rect;fillColor=#ffffff;strokeColor=none;verticalLabelPosition=middle;align=left;verticalAlign=middle;fontSize=15;spacingLeft=72;" parent="RFJ4KLtVArKrq3MvSFmw-10" vertex="1">
          <mxGeometry y="30" width="232" height="30" as="geometry" />
        </mxCell>
        <mxCell id="RFJ4KLtVArKrq3MvSFmw-4" value="" style="dashed=0;shape=mxgraph.gmdl.checkbox;strokeColor=#666666;fillColor=none;strokeWidth=2;" parent="RFJ4KLtVArKrq3MvSFmw-3" vertex="1">
          <mxGeometry y="0.5" width="18" height="18" relative="1" as="geometry">
            <mxPoint x="16" y="-9" as="offset" />
          </mxGeometry>
        </mxCell>
        <mxCell id="RFJ4KLtVArKrq3MvSFmw-6" value="Line item unselected" style="dashed=0;shape=rect;fillColor=#ffffff;strokeColor=none;verticalLabelPosition=middle;align=left;verticalAlign=middle;fontSize=15;spacingLeft=72;" parent="RFJ4KLtVArKrq3MvSFmw-10" vertex="1">
          <mxGeometry y="60" width="232" height="30" as="geometry" />
        </mxCell>
        <mxCell id="RFJ4KLtVArKrq3MvSFmw-7" value="" style="dashed=0;shape=mxgraph.gmdl.checkbox;strokeColor=#666666;fillColor=none;strokeWidth=2;" parent="RFJ4KLtVArKrq3MvSFmw-6" vertex="1">
          <mxGeometry y="0.5" width="18" height="18" relative="1" as="geometry">
            <mxPoint x="16" y="-9" as="offset" />
          </mxGeometry>
        </mxCell>
        <mxCell id="RFJ4KLtVArKrq3MvSFmw-8" value="Line item unselected" style="dashed=0;shape=rect;fillColor=#ffffff;strokeColor=none;verticalLabelPosition=middle;align=left;verticalAlign=middle;fontSize=15;spacingLeft=72;" parent="RFJ4KLtVArKrq3MvSFmw-10" vertex="1">
          <mxGeometry y="90" width="232" height="30" as="geometry" />
        </mxCell>
        <mxCell id="RFJ4KLtVArKrq3MvSFmw-9" value="" style="dashed=0;shape=mxgraph.gmdl.checkbox;strokeColor=#666666;fillColor=none;strokeWidth=2;" parent="RFJ4KLtVArKrq3MvSFmw-8" vertex="1">
          <mxGeometry y="0.5" width="18" height="18" relative="1" as="geometry">
            <mxPoint x="16" y="-9" as="offset" />
          </mxGeometry>
        </mxCell>
      </root>
    </mxGraphModel>
  </diagram>
  <diagram id="KpbvxCAzStFy-anKuCE8" name="Page flow">
    <mxGraphModel dx="1220" dy="2812" grid="1" gridSize="10" guides="1" tooltips="1" connect="1" arrows="1" fold="1" page="1" pageScale="1" pageWidth="1100" pageHeight="850" math="0" shadow="0">
      <root>
        <mxCell id="RuPx1UHHEncBN2G26UzA-0" />
        <mxCell id="RuPx1UHHEncBN2G26UzA-1" parent="RuPx1UHHEncBN2G26UzA-0" />
        <mxCell id="9uaFkI6WG2ya4906JB7S-10" style="edgeStyle=orthogonalEdgeStyle;rounded=0;orthogonalLoop=1;jettySize=auto;html=1;" edge="1" parent="RuPx1UHHEncBN2G26UzA-1" source="oDnZfw5xfhsKCACOhcGE-1" target="oDnZfw5xfhsKCACOhcGE-2">
          <mxGeometry relative="1" as="geometry" />
        </mxCell>
        <mxCell id="oDnZfw5xfhsKCACOhcGE-1" value="Bulk Upload" style="rounded=1;whiteSpace=wrap;html=1;strokeColor=#b85450;fontSize=10;fillColor=#FFFFFF;" parent="RuPx1UHHEncBN2G26UzA-1" vertex="1">
          <mxGeometry x="572" y="-1264" width="100" height="43" as="geometry" />
        </mxCell>
        <mxCell id="9uaFkI6WG2ya4906JB7S-11" style="edgeStyle=orthogonalEdgeStyle;rounded=0;orthogonalLoop=1;jettySize=auto;html=1;entryX=0.5;entryY=0;entryDx=0;entryDy=0;" edge="1" parent="RuPx1UHHEncBN2G26UzA-1" source="oDnZfw5xfhsKCACOhcGE-2" target="oDnZfw5xfhsKCACOhcGE-5">
          <mxGeometry relative="1" as="geometry" />
        </mxCell>
        <mxCell id="oDnZfw5xfhsKCACOhcGE-2" value="Publish to IDL" style="rounded=1;whiteSpace=wrap;html=1;strokeColor=#b85450;fontSize=10;fillColor=#FFFFFF;" parent="RuPx1UHHEncBN2G26UzA-1" vertex="1">
          <mxGeometry x="572" y="-1191" width="100" height="43" as="geometry" />
        </mxCell>
        <mxCell id="9uaFkI6WG2ya4906JB7S-13" style="edgeStyle=orthogonalEdgeStyle;rounded=0;orthogonalLoop=1;jettySize=auto;html=1;" edge="1" parent="RuPx1UHHEncBN2G26UzA-1" source="oDnZfw5xfhsKCACOhcGE-3" target="oDnZfw5xfhsKCACOhcGE-7">
          <mxGeometry relative="1" as="geometry" />
        </mxCell>
        <mxCell id="oDnZfw5xfhsKCACOhcGE-3" value="Reprocess Page" style="rounded=1;whiteSpace=wrap;html=1;strokeColor=#b85450;fontSize=10;fillColor=#FFFFFF;" parent="RuPx1UHHEncBN2G26UzA-1" vertex="1">
          <mxGeometry x="572" y="-1048" width="100" height="43" as="geometry" />
        </mxCell>
        <mxCell id="8TnECuXolE1XBAmrDQSm-0" style="edgeStyle=orthogonalEdgeStyle;rounded=0;orthogonalLoop=1;jettySize=auto;html=1;exitX=0.5;exitY=1;exitDx=0;exitDy=0;entryX=0.5;entryY=0;entryDx=0;entryDy=0;" edge="1" parent="RuPx1UHHEncBN2G26UzA-1" source="oDnZfw5xfhsKCACOhcGE-4" target="oDnZfw5xfhsKCACOhcGE-9">
          <mxGeometry relative="1" as="geometry" />
        </mxCell>
        <mxCell id="oDnZfw5xfhsKCACOhcGE-4" value="Digitization Page" style="rounded=0;whiteSpace=wrap;html=1;strokeColor=#b85450;gradientColor=#ea6b66;fillColor=#f8cecc;" parent="RuPx1UHHEncBN2G26UzA-1" vertex="1">
          <mxGeometry x="492" y="-1690" width="120" height="60" as="geometry" />
        </mxCell>
        <mxCell id="9uaFkI6WG2ya4906JB7S-12" style="edgeStyle=orthogonalEdgeStyle;rounded=0;orthogonalLoop=1;jettySize=auto;html=1;" edge="1" parent="RuPx1UHHEncBN2G26UzA-1" source="oDnZfw5xfhsKCACOhcGE-5" target="oDnZfw5xfhsKCACOhcGE-3">
          <mxGeometry relative="1" as="geometry" />
        </mxCell>
        <mxCell id="oDnZfw5xfhsKCACOhcGE-5" value="View Status" style="rounded=1;whiteSpace=wrap;html=1;strokeColor=#b85450;fontSize=10;fillColor=#FFFFFF;" parent="RuPx1UHHEncBN2G26UzA-1" vertex="1">
          <mxGeometry x="572" y="-1119.5" width="100" height="43" as="geometry" />
        </mxCell>
        <mxCell id="8TnECuXolE1XBAmrDQSm-4" style="edgeStyle=orthogonalEdgeStyle;rounded=0;orthogonalLoop=1;jettySize=auto;html=1;" edge="1" parent="RuPx1UHHEncBN2G26UzA-1" source="oDnZfw5xfhsKCACOhcGE-6" target="oDnZfw5xfhsKCACOhcGE-18">
          <mxGeometry relative="1" as="geometry" />
        </mxCell>
        <mxCell id="oDnZfw5xfhsKCACOhcGE-6" value="Eva&#39;s Holding Pen" style="rounded=1;whiteSpace=wrap;html=1;strokeColor=#b85450;fontSize=10;fillColor=#FFFFFF;" parent="RuPx1UHHEncBN2G26UzA-1" vertex="1">
          <mxGeometry x="358" y="-1520" width="100" height="43" as="geometry" />
        </mxCell>
        <mxCell id="9uaFkI6WG2ya4906JB7S-14" style="edgeStyle=orthogonalEdgeStyle;rounded=0;orthogonalLoop=1;jettySize=auto;html=1;entryX=0.5;entryY=0;entryDx=0;entryDy=0;" edge="1" parent="RuPx1UHHEncBN2G26UzA-1" source="oDnZfw5xfhsKCACOhcGE-7" target="oDnZfw5xfhsKCACOhcGE-8">
          <mxGeometry relative="1" as="geometry" />
        </mxCell>
        <mxCell id="oDnZfw5xfhsKCACOhcGE-7" value="Edit Metadata" style="rounded=1;whiteSpace=wrap;html=1;strokeColor=#b85450;fontSize=10;fillColor=#FFFFFF;" parent="RuPx1UHHEncBN2G26UzA-1" vertex="1">
          <mxGeometry x="572" y="-973" width="100" height="43" as="geometry" />
        </mxCell>
        <mxCell id="oDnZfw5xfhsKCACOhcGE-8" value="Reprocess Failed Objects" style="rounded=1;whiteSpace=wrap;html=1;strokeColor=#b85450;fontSize=10;fillColor=#FFFFFF;" parent="RuPx1UHHEncBN2G26UzA-1" vertex="1">
          <mxGeometry x="572" y="-903" width="100" height="43" as="geometry" />
        </mxCell>
        <mxCell id="8TnECuXolE1XBAmrDQSm-1" style="edgeStyle=orthogonalEdgeStyle;rounded=0;orthogonalLoop=1;jettySize=auto;html=1;" edge="1" parent="RuPx1UHHEncBN2G26UzA-1" source="oDnZfw5xfhsKCACOhcGE-9" target="oDnZfw5xfhsKCACOhcGE-6">
          <mxGeometry relative="1" as="geometry" />
        </mxCell>
        <mxCell id="9uaFkI6WG2ya4906JB7S-1" style="edgeStyle=orthogonalEdgeStyle;rounded=0;orthogonalLoop=1;jettySize=auto;html=1;" edge="1" parent="RuPx1UHHEncBN2G26UzA-1" source="oDnZfw5xfhsKCACOhcGE-9" target="9uaFkI6WG2ya4906JB7S-0">
          <mxGeometry relative="1" as="geometry" />
        </mxCell>
        <mxCell id="oDnZfw5xfhsKCACOhcGE-9" value="Choose Processing Option" style="rounded=1;whiteSpace=wrap;html=1;strokeColor=#b85450;fontSize=10;fillColor=#FFFFFF;" parent="RuPx1UHHEncBN2G26UzA-1" vertex="1">
          <mxGeometry x="502" y="-1590" width="100" height="43" as="geometry" />
        </mxCell>
        <mxCell id="9uaFkI6WG2ya4906JB7S-15" style="edgeStyle=orthogonalEdgeStyle;rounded=0;orthogonalLoop=1;jettySize=auto;html=1;exitX=0.5;exitY=1;exitDx=0;exitDy=0;entryX=0.5;entryY=0;entryDx=0;entryDy=0;" edge="1" parent="RuPx1UHHEncBN2G26UzA-1" source="oDnZfw5xfhsKCACOhcGE-10" target="oDnZfw5xfhsKCACOhcGE-12">
          <mxGeometry relative="1" as="geometry" />
        </mxCell>
        <mxCell id="oDnZfw5xfhsKCACOhcGE-10" value="Certify Upload" style="rounded=1;whiteSpace=wrap;html=1;strokeColor=#b85450;fontSize=10;fillColor=#FFFFFF;" parent="RuPx1UHHEncBN2G26UzA-1" vertex="1">
          <mxGeometry x="730" y="-1411" width="100" height="43" as="geometry" />
        </mxCell>
        <mxCell id="9uaFkI6WG2ya4906JB7S-8" style="edgeStyle=orthogonalEdgeStyle;rounded=0;orthogonalLoop=1;jettySize=auto;html=1;entryX=0.5;entryY=0;entryDx=0;entryDy=0;" edge="1" parent="RuPx1UHHEncBN2G26UzA-1" source="oDnZfw5xfhsKCACOhcGE-11" target="oDnZfw5xfhsKCACOhcGE-19">
          <mxGeometry relative="1" as="geometry" />
        </mxCell>
        <mxCell id="oDnZfw5xfhsKCACOhcGE-11" value="Select Dataset" style="rounded=1;whiteSpace=wrap;html=1;strokeColor=#b85450;fontSize=10;fillColor=#FFFFFF;" parent="RuPx1UHHEncBN2G26UzA-1" vertex="1">
          <mxGeometry x="572" y="-1411" width="100" height="43" as="geometry" />
        </mxCell>
        <mxCell id="9uaFkI6WG2ya4906JB7S-16" style="edgeStyle=orthogonalEdgeStyle;rounded=0;orthogonalLoop=1;jettySize=auto;html=1;exitX=0.5;exitY=1;exitDx=0;exitDy=0;" edge="1" parent="RuPx1UHHEncBN2G26UzA-1" source="oDnZfw5xfhsKCACOhcGE-12" target="oDnZfw5xfhsKCACOhcGE-13">
          <mxGeometry relative="1" as="geometry" />
        </mxCell>
        <mxCell id="oDnZfw5xfhsKCACOhcGE-12" value="Bulk Upload" style="rounded=1;whiteSpace=wrap;html=1;strokeColor=#b85450;fontSize=10;fillColor=#FFFFFF;" parent="RuPx1UHHEncBN2G26UzA-1" vertex="1">
          <mxGeometry x="730" y="-1337" width="100" height="43" as="geometry" />
        </mxCell>
        <mxCell id="9uaFkI6WG2ya4906JB7S-17" style="edgeStyle=orthogonalEdgeStyle;rounded=0;orthogonalLoop=1;jettySize=auto;html=1;" edge="1" parent="RuPx1UHHEncBN2G26UzA-1" source="oDnZfw5xfhsKCACOhcGE-13" target="oDnZfw5xfhsKCACOhcGE-15">
          <mxGeometry relative="1" as="geometry" />
        </mxCell>
        <mxCell id="oDnZfw5xfhsKCACOhcGE-13" value="Publish to IDL" style="rounded=1;whiteSpace=wrap;html=1;strokeColor=#b85450;fontSize=10;fillColor=#FFFFFF;" parent="RuPx1UHHEncBN2G26UzA-1" vertex="1">
          <mxGeometry x="730" y="-1264" width="100" height="43" as="geometry" />
        </mxCell>
        <mxCell id="9uaFkI6WG2ya4906JB7S-19" style="edgeStyle=orthogonalEdgeStyle;rounded=0;orthogonalLoop=1;jettySize=auto;html=1;exitX=0.5;exitY=1;exitDx=0;exitDy=0;entryX=0.5;entryY=0;entryDx=0;entryDy=0;" edge="1" parent="RuPx1UHHEncBN2G26UzA-1" source="oDnZfw5xfhsKCACOhcGE-14" target="oDnZfw5xfhsKCACOhcGE-16">
          <mxGeometry relative="1" as="geometry" />
        </mxCell>
        <mxCell id="oDnZfw5xfhsKCACOhcGE-14" value="Reprocess Page" style="rounded=1;whiteSpace=wrap;html=1;strokeColor=#b85450;fontSize=10;fillColor=#FFFFFF;" parent="RuPx1UHHEncBN2G26UzA-1" vertex="1">
          <mxGeometry x="730" y="-1121" width="100" height="43" as="geometry" />
        </mxCell>
        <mxCell id="9uaFkI6WG2ya4906JB7S-18" style="edgeStyle=orthogonalEdgeStyle;rounded=0;orthogonalLoop=1;jettySize=auto;html=1;exitX=0.5;exitY=1;exitDx=0;exitDy=0;entryX=0.5;entryY=0;entryDx=0;entryDy=0;" edge="1" parent="RuPx1UHHEncBN2G26UzA-1" source="oDnZfw5xfhsKCACOhcGE-15" target="oDnZfw5xfhsKCACOhcGE-14">
          <mxGeometry relative="1" as="geometry" />
        </mxCell>
        <mxCell id="oDnZfw5xfhsKCACOhcGE-15" value="View Status" style="rounded=1;whiteSpace=wrap;html=1;strokeColor=#b85450;fontSize=10;fillColor=#FFFFFF;" parent="RuPx1UHHEncBN2G26UzA-1" vertex="1">
          <mxGeometry x="730" y="-1192.5" width="100" height="43" as="geometry" />
        </mxCell>
        <mxCell id="9uaFkI6WG2ya4906JB7S-20" style="edgeStyle=orthogonalEdgeStyle;rounded=0;orthogonalLoop=1;jettySize=auto;html=1;exitX=0.5;exitY=1;exitDx=0;exitDy=0;" edge="1" parent="RuPx1UHHEncBN2G26UzA-1" source="oDnZfw5xfhsKCACOhcGE-16" target="oDnZfw5xfhsKCACOhcGE-17">
          <mxGeometry relative="1" as="geometry" />
        </mxCell>
        <mxCell id="oDnZfw5xfhsKCACOhcGE-16" value="Edit Metadata" style="rounded=1;whiteSpace=wrap;html=1;strokeColor=#b85450;fontSize=10;fillColor=#FFFFFF;" parent="RuPx1UHHEncBN2G26UzA-1" vertex="1">
          <mxGeometry x="730" y="-1046" width="100" height="43" as="geometry" />
        </mxCell>
        <mxCell id="oDnZfw5xfhsKCACOhcGE-17" value="Reprocess Failed Objects" style="rounded=1;whiteSpace=wrap;html=1;strokeColor=#b85450;fontSize=10;fillColor=#FFFFFF;" parent="RuPx1UHHEncBN2G26UzA-1" vertex="1">
          <mxGeometry x="730" y="-973" width="100" height="43" as="geometry" />
        </mxCell>
        <mxCell id="8TnECuXolE1XBAmrDQSm-5" style="edgeStyle=orthogonalEdgeStyle;rounded=0;orthogonalLoop=1;jettySize=auto;html=1;" edge="1" parent="RuPx1UHHEncBN2G26UzA-1" source="oDnZfw5xfhsKCACOhcGE-18" target="oDnZfw5xfhsKCACOhcGE-21">
          <mxGeometry relative="1" as="geometry" />
        </mxCell>
        <mxCell id="oDnZfw5xfhsKCACOhcGE-18" value="Certify Upload" style="rounded=1;whiteSpace=wrap;html=1;strokeColor=#b85450;fontSize=10;fillColor=#FFFFFF;" parent="RuPx1UHHEncBN2G26UzA-1" vertex="1">
          <mxGeometry x="358" y="-1447" width="100" height="43" as="geometry" />
        </mxCell>
        <mxCell id="9uaFkI6WG2ya4906JB7S-9" style="edgeStyle=orthogonalEdgeStyle;rounded=0;orthogonalLoop=1;jettySize=auto;html=1;entryX=0.5;entryY=0;entryDx=0;entryDy=0;" edge="1" parent="RuPx1UHHEncBN2G26UzA-1" source="oDnZfw5xfhsKCACOhcGE-19" target="oDnZfw5xfhsKCACOhcGE-1">
          <mxGeometry relative="1" as="geometry" />
        </mxCell>
        <mxCell id="oDnZfw5xfhsKCACOhcGE-19" value="Certify Upload" style="rounded=1;whiteSpace=wrap;html=1;strokeColor=#b85450;fontSize=10;fillColor=#FFFFFF;" parent="RuPx1UHHEncBN2G26UzA-1" vertex="1">
          <mxGeometry x="572" y="-1337" width="100" height="43" as="geometry" />
        </mxCell>
        <mxCell id="oDnZfw5xfhsKCACOhcGE-21" value="Bulk Upload to S3" style="rounded=1;whiteSpace=wrap;html=1;strokeColor=#b85450;fontSize=10;fillColor=#FFFFFF;" parent="RuPx1UHHEncBN2G26UzA-1" vertex="1">
          <mxGeometry x="358" y="-1373.5" width="100" height="43" as="geometry" />
        </mxCell>
        <mxCell id="9uaFkI6WG2ya4906JB7S-2" value="Manual" style="edgeStyle=orthogonalEdgeStyle;rounded=0;orthogonalLoop=1;jettySize=auto;html=1;verticalAlign=bottom;horizontal=1;labelPosition=left;verticalLabelPosition=top;align=right;" edge="1" parent="RuPx1UHHEncBN2G26UzA-1" source="9uaFkI6WG2ya4906JB7S-0" target="oDnZfw5xfhsKCACOhcGE-11">
          <mxGeometry relative="1" as="geometry" />
        </mxCell>
        <mxCell id="9uaFkI6WG2ya4906JB7S-3" value="Auto" style="edgeStyle=orthogonalEdgeStyle;rounded=0;orthogonalLoop=1;jettySize=auto;html=1;labelPosition=center;verticalLabelPosition=top;align=center;verticalAlign=bottom;" edge="1" parent="RuPx1UHHEncBN2G26UzA-1" source="9uaFkI6WG2ya4906JB7S-0" target="oDnZfw5xfhsKCACOhcGE-10">
          <mxGeometry relative="1" as="geometry" />
        </mxCell>
        <mxCell id="9uaFkI6WG2ya4906JB7S-0" value="Eva" style="rounded=1;whiteSpace=wrap;html=1;strokeColor=#b85450;fontSize=10;fillColor=#FFFFFF;" vertex="1" parent="RuPx1UHHEncBN2G26UzA-1">
          <mxGeometry x="650" y="-1520" width="100" height="43" as="geometry" />
        </mxCell>
      </root>
    </mxGraphModel>
  </diagram>
  <diagram id="Gk2GQlJoIHkklekkIzYf" name="Digitization Workflow">
    <mxGraphModel dx="1220" dy="1112" grid="1" gridSize="10" guides="1" tooltips="1" connect="1" arrows="1" fold="1" page="1" pageScale="1" pageWidth="1100" pageHeight="850" math="0" shadow="0">
      <root>
        <mxCell id="Ut1kNq3iIMRWoGplQkyB-0" />
        <mxCell id="Ut1kNq3iIMRWoGplQkyB-1" parent="Ut1kNq3iIMRWoGplQkyB-0" />
        <mxCell id="Ut1kNq3iIMRWoGplQkyB-2" value="1.&amp;nbsp; User navigates to the digitization page&lt;br&gt;2.&amp;nbsp; User drags 1-n files onto the page.&lt;br&gt;3.&amp;nbsp; Eva Smart upload modal is displayed, and the user select one of four options&lt;br&gt;3.a&amp;nbsp; Cancel&lt;br&gt;3.b&amp;nbsp; Pick a dataset&lt;br&gt;3.b.1&amp;nbsp; User Searches for/selects a dataset&lt;br&gt;3.b.2&amp;nbsp; With the dataset selected, the user is taken to the acknowledgement&amp;nbsp;section&lt;br&gt;3.c&amp;nbsp; Pick a Holding Pen Folder&lt;br&gt;3.c.1&amp;nbsp; User selects an existing folder&lt;br&gt;3.c.2&amp;nbsp; User creates a new folder&lt;br&gt;3.c.3&amp;nbsp; Data is uploaded into a folder&lt;br&gt;3.c.4&amp;nbsp; Bucket retention policy is set&lt;br&gt;3.c.5&amp;nbsp; Bucket is interrogated every XX days&lt;br&gt;3.c.6&amp;nbsp; Eva Dashboard is updated showing pending Holding Pen Actions.&amp;nbsp;&amp;nbsp;&lt;br&gt;3.c.7&amp;nbsp; User takes action on Holding Pen files.&lt;br&gt;3.d&amp;nbsp; Let Eva do the work.&amp;nbsp;&amp;nbsp;&lt;br&gt;3.d.1&amp;nbsp; Files are transferred to a landing zone&lt;br&gt;3.d.2&amp;nbsp; Files are interogated for the dataset matching metadata&lt;br&gt;4.&amp;nbsp; Files are updated with the appropriate metadata&lt;br&gt;5.&amp;nbsp; Files are placed into IDL Landing Zone&lt;br&gt;6.&amp;nbsp;&amp;nbsp;" style="text;html=1;strokeColor=none;fillColor=none;align=left;verticalAlign=top;whiteSpace=wrap;rounded=0;" parent="Ut1kNq3iIMRWoGplQkyB-1" vertex="1">
          <mxGeometry x="560" y="41" width="480" height="480" as="geometry" />
        </mxCell>
        <mxCell id="WrZMF_f2UJwBAKIdqZ60-0" style="edgeStyle=orthogonalEdgeStyle;rounded=0;orthogonalLoop=1;jettySize=auto;html=1;exitX=0.5;exitY=1;exitDx=0;exitDy=0;entryX=0.5;entryY=0;entryDx=0;entryDy=0;fontSize=12;align=center;" parent="Ut1kNq3iIMRWoGplQkyB-1" source="WrZMF_f2UJwBAKIdqZ60-1" target="WrZMF_f2UJwBAKIdqZ60-3" edge="1">
          <mxGeometry relative="1" as="geometry" />
        </mxCell>
        <mxCell id="WrZMF_f2UJwBAKIdqZ60-1" value="1" style="rounded=0;whiteSpace=wrap;html=1;fontSize=12;align=center;" parent="Ut1kNq3iIMRWoGplQkyB-1" vertex="1">
          <mxGeometry x="190" y="40" width="60" height="40" as="geometry" />
        </mxCell>
        <mxCell id="WrZMF_f2UJwBAKIdqZ60-23" style="edgeStyle=orthogonalEdgeStyle;rounded=0;orthogonalLoop=1;jettySize=auto;html=1;exitX=0.5;exitY=1;exitDx=0;exitDy=0;entryX=0.5;entryY=0;entryDx=0;entryDy=0;" parent="Ut1kNq3iIMRWoGplQkyB-1" source="WrZMF_f2UJwBAKIdqZ60-3" target="WrZMF_f2UJwBAKIdqZ60-13" edge="1">
          <mxGeometry relative="1" as="geometry" />
        </mxCell>
        <mxCell id="WrZMF_f2UJwBAKIdqZ60-3" value="2" style="rounded=0;whiteSpace=wrap;html=1;fontSize=12;align=center;" parent="Ut1kNq3iIMRWoGplQkyB-1" vertex="1">
          <mxGeometry x="190" y="100" width="60" height="40" as="geometry" />
        </mxCell>
        <mxCell id="WrZMF_f2UJwBAKIdqZ60-5" value="3.a" style="rounded=0;whiteSpace=wrap;html=1;fontSize=12;align=center;" parent="Ut1kNq3iIMRWoGplQkyB-1" vertex="1">
          <mxGeometry x="320" y="162.5" width="60" height="40" as="geometry" />
        </mxCell>
        <mxCell id="WrZMF_f2UJwBAKIdqZ60-17" style="edgeStyle=orthogonalEdgeStyle;rounded=0;orthogonalLoop=1;jettySize=auto;html=1;exitX=1;exitY=0.5;exitDx=0;exitDy=0;entryX=0;entryY=0.5;entryDx=0;entryDy=0;" parent="Ut1kNq3iIMRWoGplQkyB-1" source="WrZMF_f2UJwBAKIdqZ60-13" target="WrZMF_f2UJwBAKIdqZ60-5" edge="1">
          <mxGeometry relative="1" as="geometry" />
        </mxCell>
        <mxCell id="WrZMF_f2UJwBAKIdqZ60-20" style="edgeStyle=orthogonalEdgeStyle;rounded=0;orthogonalLoop=1;jettySize=auto;html=1;exitX=1;exitY=1;exitDx=0;exitDy=0;entryX=0;entryY=0.5;entryDx=0;entryDy=0;" parent="Ut1kNq3iIMRWoGplQkyB-1" source="WrZMF_f2UJwBAKIdqZ60-13" target="WrZMF_f2UJwBAKIdqZ60-19" edge="1">
          <mxGeometry relative="1" as="geometry">
            <Array as="points">
              <mxPoint x="281" y="194" />
              <mxPoint x="281" y="260" />
            </Array>
          </mxGeometry>
        </mxCell>
        <mxCell id="WrZMF_f2UJwBAKIdqZ60-21" style="edgeStyle=orthogonalEdgeStyle;rounded=0;orthogonalLoop=1;jettySize=auto;html=1;exitX=0.5;exitY=1;exitDx=0;exitDy=0;entryX=0.5;entryY=0;entryDx=0;entryDy=0;" parent="Ut1kNq3iIMRWoGplQkyB-1" source="WrZMF_f2UJwBAKIdqZ60-13" target="WrZMF_f2UJwBAKIdqZ60-16" edge="1">
          <mxGeometry relative="1" as="geometry" />
        </mxCell>
        <mxCell id="WrZMF_f2UJwBAKIdqZ60-22" style="edgeStyle=orthogonalEdgeStyle;rounded=0;orthogonalLoop=1;jettySize=auto;html=1;exitX=0;exitY=1;exitDx=0;exitDy=0;entryX=1;entryY=0.5;entryDx=0;entryDy=0;" parent="Ut1kNq3iIMRWoGplQkyB-1" source="WrZMF_f2UJwBAKIdqZ60-13" target="WrZMF_f2UJwBAKIdqZ60-18" edge="1">
          <mxGeometry relative="1" as="geometry" />
        </mxCell>
        <mxCell id="WrZMF_f2UJwBAKIdqZ60-13" value="3" style="rhombus;whiteSpace=wrap;html=1;fontSize=12;align=center;" parent="Ut1kNq3iIMRWoGplQkyB-1" vertex="1">
          <mxGeometry x="197.5" y="160" width="45" height="45" as="geometry" />
        </mxCell>
        <mxCell id="WrZMF_f2UJwBAKIdqZ60-46" style="edgeStyle=orthogonalEdgeStyle;rounded=0;orthogonalLoop=1;jettySize=auto;html=1;exitX=0.5;exitY=1;exitDx=0;exitDy=0;entryX=0.5;entryY=0;entryDx=0;entryDy=0;" parent="Ut1kNq3iIMRWoGplQkyB-1" source="WrZMF_f2UJwBAKIdqZ60-16" target="WrZMF_f2UJwBAKIdqZ60-45" edge="1">
          <mxGeometry relative="1" as="geometry" />
        </mxCell>
        <mxCell id="WrZMF_f2UJwBAKIdqZ60-16" value="3.d" style="rounded=0;whiteSpace=wrap;html=1;fontSize=12;align=center;" parent="Ut1kNq3iIMRWoGplQkyB-1" vertex="1">
          <mxGeometry x="190" y="240" width="60" height="40" as="geometry" />
        </mxCell>
        <mxCell id="WrZMF_f2UJwBAKIdqZ60-26" style="edgeStyle=orthogonalEdgeStyle;rounded=0;orthogonalLoop=1;jettySize=auto;html=1;exitX=0.5;exitY=1;exitDx=0;exitDy=0;" parent="Ut1kNq3iIMRWoGplQkyB-1" source="WrZMF_f2UJwBAKIdqZ60-18" target="WrZMF_f2UJwBAKIdqZ60-24" edge="1">
          <mxGeometry relative="1" as="geometry" />
        </mxCell>
        <mxCell id="WrZMF_f2UJwBAKIdqZ60-18" value="3.b" style="rounded=0;whiteSpace=wrap;html=1;fontSize=12;align=center;" parent="Ut1kNq3iIMRWoGplQkyB-1" vertex="1">
          <mxGeometry x="70" y="240" width="60" height="40" as="geometry" />
        </mxCell>
        <mxCell id="WrZMF_f2UJwBAKIdqZ60-31" style="edgeStyle=orthogonalEdgeStyle;rounded=0;orthogonalLoop=1;jettySize=auto;html=1;exitX=0.5;exitY=1;exitDx=0;exitDy=0;entryX=0.5;entryY=0;entryDx=0;entryDy=0;" parent="Ut1kNq3iIMRWoGplQkyB-1" source="WrZMF_f2UJwBAKIdqZ60-19" target="WrZMF_f2UJwBAKIdqZ60-30" edge="1">
          <mxGeometry relative="1" as="geometry" />
        </mxCell>
        <mxCell id="WrZMF_f2UJwBAKIdqZ60-32" style="edgeStyle=orthogonalEdgeStyle;rounded=0;orthogonalLoop=1;jettySize=auto;html=1;exitX=0.75;exitY=1;exitDx=0;exitDy=0;entryX=0.5;entryY=0;entryDx=0;entryDy=0;" parent="Ut1kNq3iIMRWoGplQkyB-1" source="WrZMF_f2UJwBAKIdqZ60-19" target="WrZMF_f2UJwBAKIdqZ60-29" edge="1">
          <mxGeometry relative="1" as="geometry" />
        </mxCell>
        <mxCell id="WrZMF_f2UJwBAKIdqZ60-19" value="3.c" style="rounded=0;whiteSpace=wrap;html=1;fontSize=12;align=center;" parent="Ut1kNq3iIMRWoGplQkyB-1" vertex="1">
          <mxGeometry x="320" y="240" width="60" height="40" as="geometry" />
        </mxCell>
        <mxCell id="WrZMF_f2UJwBAKIdqZ60-27" style="edgeStyle=orthogonalEdgeStyle;rounded=0;orthogonalLoop=1;jettySize=auto;html=1;exitX=0.5;exitY=1;exitDx=0;exitDy=0;entryX=0.5;entryY=0;entryDx=0;entryDy=0;" parent="Ut1kNq3iIMRWoGplQkyB-1" source="WrZMF_f2UJwBAKIdqZ60-24" target="WrZMF_f2UJwBAKIdqZ60-25" edge="1">
          <mxGeometry relative="1" as="geometry" />
        </mxCell>
        <mxCell id="WrZMF_f2UJwBAKIdqZ60-24" value="3.b.1" style="rounded=0;whiteSpace=wrap;html=1;fontSize=12;align=center;" parent="Ut1kNq3iIMRWoGplQkyB-1" vertex="1">
          <mxGeometry x="70" y="310" width="60" height="40" as="geometry" />
        </mxCell>
        <mxCell id="WrZMF_f2UJwBAKIdqZ60-49" style="edgeStyle=orthogonalEdgeStyle;rounded=0;orthogonalLoop=1;jettySize=auto;html=1;exitX=0.5;exitY=1;exitDx=0;exitDy=0;entryX=0.25;entryY=0;entryDx=0;entryDy=0;" parent="Ut1kNq3iIMRWoGplQkyB-1" source="WrZMF_f2UJwBAKIdqZ60-25" target="WrZMF_f2UJwBAKIdqZ60-28" edge="1">
          <mxGeometry relative="1" as="geometry" />
        </mxCell>
        <mxCell id="WrZMF_f2UJwBAKIdqZ60-25" value="3.b.2" style="rounded=0;whiteSpace=wrap;html=1;fontSize=12;align=center;" parent="Ut1kNq3iIMRWoGplQkyB-1" vertex="1">
          <mxGeometry x="70" y="380" width="60" height="40" as="geometry" />
        </mxCell>
        <mxCell id="WgEcb-Owb7LlmtzQ8_LV-1" style="edgeStyle=orthogonalEdgeStyle;rounded=0;orthogonalLoop=1;jettySize=auto;html=1;exitX=0.5;exitY=1;exitDx=0;exitDy=0;entryX=0.5;entryY=0;entryDx=0;entryDy=0;" parent="Ut1kNq3iIMRWoGplQkyB-1" source="WrZMF_f2UJwBAKIdqZ60-28" target="WgEcb-Owb7LlmtzQ8_LV-0" edge="1">
          <mxGeometry relative="1" as="geometry" />
        </mxCell>
        <mxCell id="WrZMF_f2UJwBAKIdqZ60-28" value="4" style="rounded=0;whiteSpace=wrap;html=1;fontSize=12;align=center;" parent="Ut1kNq3iIMRWoGplQkyB-1" vertex="1">
          <mxGeometry x="120" y="470" width="60" height="40" as="geometry" />
        </mxCell>
        <mxCell id="WrZMF_f2UJwBAKIdqZ60-35" style="edgeStyle=orthogonalEdgeStyle;rounded=0;orthogonalLoop=1;jettySize=auto;html=1;exitX=0.5;exitY=1;exitDx=0;exitDy=0;entryX=1;entryY=0.5;entryDx=0;entryDy=0;" parent="Ut1kNq3iIMRWoGplQkyB-1" source="WrZMF_f2UJwBAKIdqZ60-29" target="WrZMF_f2UJwBAKIdqZ60-33" edge="1">
          <mxGeometry relative="1" as="geometry" />
        </mxCell>
        <mxCell id="WrZMF_f2UJwBAKIdqZ60-29" value="3.c.2" style="rounded=0;whiteSpace=wrap;html=1;fontSize=12;align=center;" parent="Ut1kNq3iIMRWoGplQkyB-1" vertex="1">
          <mxGeometry x="420" y="320" width="60" height="40" as="geometry" />
        </mxCell>
        <mxCell id="WrZMF_f2UJwBAKIdqZ60-34" style="edgeStyle=orthogonalEdgeStyle;rounded=0;orthogonalLoop=1;jettySize=auto;html=1;exitX=0.5;exitY=1;exitDx=0;exitDy=0;entryX=0.5;entryY=0;entryDx=0;entryDy=0;" parent="Ut1kNq3iIMRWoGplQkyB-1" source="WrZMF_f2UJwBAKIdqZ60-30" target="WrZMF_f2UJwBAKIdqZ60-33" edge="1">
          <mxGeometry relative="1" as="geometry" />
        </mxCell>
        <mxCell id="WrZMF_f2UJwBAKIdqZ60-30" value="3.c.1" style="rounded=0;whiteSpace=wrap;html=1;fontSize=12;align=center;" parent="Ut1kNq3iIMRWoGplQkyB-1" vertex="1">
          <mxGeometry x="320" y="320" width="60" height="40" as="geometry" />
        </mxCell>
        <mxCell id="WrZMF_f2UJwBAKIdqZ60-37" style="edgeStyle=orthogonalEdgeStyle;rounded=0;orthogonalLoop=1;jettySize=auto;html=1;exitX=0.5;exitY=1;exitDx=0;exitDy=0;entryX=0.5;entryY=0;entryDx=0;entryDy=0;" parent="Ut1kNq3iIMRWoGplQkyB-1" source="WrZMF_f2UJwBAKIdqZ60-33" target="WrZMF_f2UJwBAKIdqZ60-36" edge="1">
          <mxGeometry relative="1" as="geometry" />
        </mxCell>
        <mxCell id="WrZMF_f2UJwBAKIdqZ60-33" value="3.c.3" style="rounded=0;whiteSpace=wrap;html=1;fontSize=12;align=center;" parent="Ut1kNq3iIMRWoGplQkyB-1" vertex="1">
          <mxGeometry x="320" y="400" width="60" height="40" as="geometry" />
        </mxCell>
        <mxCell id="WrZMF_f2UJwBAKIdqZ60-41" style="edgeStyle=orthogonalEdgeStyle;rounded=0;orthogonalLoop=1;jettySize=auto;html=1;exitX=0.5;exitY=1;exitDx=0;exitDy=0;entryX=0.5;entryY=0;entryDx=0;entryDy=0;" parent="Ut1kNq3iIMRWoGplQkyB-1" source="WrZMF_f2UJwBAKIdqZ60-36" target="WrZMF_f2UJwBAKIdqZ60-38" edge="1">
          <mxGeometry relative="1" as="geometry" />
        </mxCell>
        <mxCell id="WrZMF_f2UJwBAKIdqZ60-36" value="3.c.4" style="rounded=0;whiteSpace=wrap;html=1;fontSize=12;align=center;" parent="Ut1kNq3iIMRWoGplQkyB-1" vertex="1">
          <mxGeometry x="320" y="480" width="60" height="40" as="geometry" />
        </mxCell>
        <mxCell id="WrZMF_f2UJwBAKIdqZ60-42" style="edgeStyle=orthogonalEdgeStyle;rounded=0;orthogonalLoop=1;jettySize=auto;html=1;exitX=0.5;exitY=1;exitDx=0;exitDy=0;entryX=0.5;entryY=0;entryDx=0;entryDy=0;" parent="Ut1kNq3iIMRWoGplQkyB-1" source="WrZMF_f2UJwBAKIdqZ60-38" target="WrZMF_f2UJwBAKIdqZ60-39" edge="1">
          <mxGeometry relative="1" as="geometry" />
        </mxCell>
        <mxCell id="WrZMF_f2UJwBAKIdqZ60-38" value="3.c.5" style="rounded=0;whiteSpace=wrap;html=1;fontSize=12;align=center;" parent="Ut1kNq3iIMRWoGplQkyB-1" vertex="1">
          <mxGeometry x="320" y="560" width="60" height="40" as="geometry" />
        </mxCell>
        <mxCell id="WrZMF_f2UJwBAKIdqZ60-43" style="edgeStyle=orthogonalEdgeStyle;rounded=0;orthogonalLoop=1;jettySize=auto;html=1;exitX=0.5;exitY=1;exitDx=0;exitDy=0;entryX=0.5;entryY=0;entryDx=0;entryDy=0;" parent="Ut1kNq3iIMRWoGplQkyB-1" source="WrZMF_f2UJwBAKIdqZ60-39" target="WrZMF_f2UJwBAKIdqZ60-40" edge="1">
          <mxGeometry relative="1" as="geometry" />
        </mxCell>
        <mxCell id="WrZMF_f2UJwBAKIdqZ60-39" value="3.c.6" style="rounded=0;whiteSpace=wrap;html=1;fontSize=12;align=center;" parent="Ut1kNq3iIMRWoGplQkyB-1" vertex="1">
          <mxGeometry x="320" y="640" width="60" height="40" as="geometry" />
        </mxCell>
        <mxCell id="WrZMF_f2UJwBAKIdqZ60-44" style="edgeStyle=orthogonalEdgeStyle;rounded=0;orthogonalLoop=1;jettySize=auto;html=1;exitX=1;exitY=0.5;exitDx=0;exitDy=0;entryX=1;entryY=0;entryDx=0;entryDy=0;" parent="Ut1kNq3iIMRWoGplQkyB-1" source="WrZMF_f2UJwBAKIdqZ60-40" target="WrZMF_f2UJwBAKIdqZ60-13" edge="1">
          <mxGeometry relative="1" as="geometry">
            <Array as="points">
              <mxPoint x="510" y="740" />
              <mxPoint x="510" y="140" />
              <mxPoint x="280" y="140" />
              <mxPoint x="280" y="171" />
            </Array>
          </mxGeometry>
        </mxCell>
        <mxCell id="WrZMF_f2UJwBAKIdqZ60-40" value="3.c.7" style="rounded=0;whiteSpace=wrap;html=1;fontSize=12;align=center;" parent="Ut1kNq3iIMRWoGplQkyB-1" vertex="1">
          <mxGeometry x="320" y="720" width="60" height="40" as="geometry" />
        </mxCell>
        <mxCell id="WrZMF_f2UJwBAKIdqZ60-48" style="edgeStyle=orthogonalEdgeStyle;rounded=0;orthogonalLoop=1;jettySize=auto;html=1;exitX=0.5;exitY=1;exitDx=0;exitDy=0;entryX=0.5;entryY=0;entryDx=0;entryDy=0;" parent="Ut1kNq3iIMRWoGplQkyB-1" source="WrZMF_f2UJwBAKIdqZ60-45" target="WrZMF_f2UJwBAKIdqZ60-47" edge="1">
          <mxGeometry relative="1" as="geometry" />
        </mxCell>
        <mxCell id="WrZMF_f2UJwBAKIdqZ60-45" value="3.d.1" style="rounded=0;whiteSpace=wrap;html=1;fontSize=12;align=center;" parent="Ut1kNq3iIMRWoGplQkyB-1" vertex="1">
          <mxGeometry x="190" y="310" width="60" height="40" as="geometry" />
        </mxCell>
        <mxCell id="WrZMF_f2UJwBAKIdqZ60-50" style="edgeStyle=orthogonalEdgeStyle;rounded=0;orthogonalLoop=1;jettySize=auto;html=1;exitX=0.5;exitY=1;exitDx=0;exitDy=0;entryX=0.75;entryY=0;entryDx=0;entryDy=0;" parent="Ut1kNq3iIMRWoGplQkyB-1" source="WrZMF_f2UJwBAKIdqZ60-47" target="WrZMF_f2UJwBAKIdqZ60-28" edge="1">
          <mxGeometry relative="1" as="geometry" />
        </mxCell>
        <mxCell id="WrZMF_f2UJwBAKIdqZ60-47" value="3.d.2" style="rounded=0;whiteSpace=wrap;html=1;fontSize=12;align=center;" parent="Ut1kNq3iIMRWoGplQkyB-1" vertex="1">
          <mxGeometry x="190" y="380" width="60" height="40" as="geometry" />
        </mxCell>
        <mxCell id="WgEcb-Owb7LlmtzQ8_LV-0" value="5" style="rounded=0;whiteSpace=wrap;html=1;fontSize=12;align=center;" parent="Ut1kNq3iIMRWoGplQkyB-1" vertex="1">
          <mxGeometry x="120" y="540" width="60" height="40" as="geometry" />
        </mxCell>
      </root>
    </mxGraphModel>
  </diagram>
  <diagram id="gcw-Up9msW1DDbZWgQ9p" name="Digitization">
    <mxGraphModel dx="1220" dy="1112" grid="1" gridSize="10" guides="1" tooltips="1" connect="1" arrows="1" fold="1" page="1" pageScale="1" pageWidth="1100" pageHeight="850" math="0" shadow="0">
      <root>
        <mxCell id="IsJ_MTZ3b37aoJfhhxWW-0" />
        <mxCell id="IsJ_MTZ3b37aoJfhhxWW-1" parent="IsJ_MTZ3b37aoJfhhxWW-0" />
        <mxCell id="9xa6xDA-MqHcSXDnbGct-0" value="" style="rounded=0;whiteSpace=wrap;html=1;strokeColor=#000000;fillColor=#F8F9FA;" parent="IsJ_MTZ3b37aoJfhhxWW-1" vertex="1">
          <mxGeometry x="40" y="951" width="984" height="719" as="geometry" />
        </mxCell>
        <mxCell id="9xa6xDA-MqHcSXDnbGct-37" value="" style="rounded=1;whiteSpace=wrap;html=1;shadow=1;labelBackgroundColor=#FFFFFF;sketch=0;gradientColor=none;fontSize=9;fontColor=#FFFFFF;opacity=30;align=left;arcSize=4;dashed=1;fillColor=#DFDFDF;" parent="IsJ_MTZ3b37aoJfhhxWW-1" vertex="1">
          <mxGeometry x="50" y="970" width="960" height="670" as="geometry" />
        </mxCell>
        <mxCell id="ENCc_kLAaLYJEzsmgBCa-0" value="" style="rounded=0;whiteSpace=wrap;html=1;strokeColor=#000000;fillColor=#F8F9FA;" parent="IsJ_MTZ3b37aoJfhhxWW-1" vertex="1">
          <mxGeometry x="40" y="111" width="984" height="719" as="geometry" />
        </mxCell>
        <mxCell id="ENCc_kLAaLYJEzsmgBCa-1" value="" style="rounded=0;whiteSpace=wrap;html=1;fillColor=#F8F9FA;" parent="IsJ_MTZ3b37aoJfhhxWW-1" vertex="1">
          <mxGeometry x="40" y="200" width="274" height="630" as="geometry" />
        </mxCell>
        <mxCell id="ENCc_kLAaLYJEzsmgBCa-2" value="" style="rounded=0;whiteSpace=wrap;html=1;fontSize=20;align=left;fillColor=#3333FF;" parent="IsJ_MTZ3b37aoJfhhxWW-1" vertex="1">
          <mxGeometry x="40" y="200" width="984" height="40" as="geometry" />
        </mxCell>
        <mxCell id="ENCc_kLAaLYJEzsmgBCa-3" value="" style="rounded=0;whiteSpace=wrap;html=1;fillColor=#F8F9FA;" parent="IsJ_MTZ3b37aoJfhhxWW-1" vertex="1">
          <mxGeometry x="40" y="111" width="984" height="89" as="geometry" />
        </mxCell>
        <mxCell id="ENCc_kLAaLYJEzsmgBCa-4" value="" style="rounded=0;whiteSpace=wrap;html=1;fillColor=#3333FF;" parent="IsJ_MTZ3b37aoJfhhxWW-1" vertex="1">
          <mxGeometry x="40" y="50" width="984" height="61" as="geometry" />
        </mxCell>
        <mxCell id="ENCc_kLAaLYJEzsmgBCa-5" value="&lt;font style=&quot;font-size: 14px&quot;&gt;FEEDBACK&lt;/font&gt;" style="rounded=1;whiteSpace=wrap;html=1;fillColor=#FF8000;strokeColor=#FF8000;fontColor=#FFFFFF;" parent="IsJ_MTZ3b37aoJfhhxWW-1" vertex="1">
          <mxGeometry x="890" y="60.5" width="120" height="40" as="geometry" />
        </mxCell>
        <mxCell id="ENCc_kLAaLYJEzsmgBCa-6" value="" style="shape=image;html=1;verticalAlign=top;verticalLabelPosition=bottom;labelBackgroundColor=#ffffff;imageAspect=0;aspect=fixed;image=https://cdn3.iconfinder.com/data/icons/social-media-2125/78/bell-128.png;strokeColor=#FF8000;fillColor=#FF8000;fontColor=#FFFFFF;" parent="IsJ_MTZ3b37aoJfhhxWW-1" vertex="1">
          <mxGeometry x="836" y="62" width="37" height="37" as="geometry" />
        </mxCell>
        <mxCell id="ENCc_kLAaLYJEzsmgBCa-7" value="" style="whiteSpace=wrap;html=1;shape=mxgraph.basic.octagon2;align=center;verticalAlign=middle;dx=12;shadow=0;sketch=0;fontSize=20;fontColor=#808080;fillColor=#FF8000;strokeColor=#FF8000;" parent="IsJ_MTZ3b37aoJfhhxWW-1" vertex="1">
          <mxGeometry x="50" y="56.5" width="56" height="42" as="geometry" />
        </mxCell>
        <mxCell id="ENCc_kLAaLYJEzsmgBCa-8" value="Eva" style="text;html=1;strokeColor=none;fillColor=none;align=center;verticalAlign=middle;whiteSpace=wrap;rounded=0;shadow=0;sketch=0;fontSize=20;fontColor=#FFFFFF;fontStyle=1" parent="IsJ_MTZ3b37aoJfhhxWW-1" vertex="1">
          <mxGeometry x="116" y="70" width="40" height="20" as="geometry" />
        </mxCell>
        <mxCell id="ENCc_kLAaLYJEzsmgBCa-9" value="" style="html=1;verticalLabelPosition=bottom;align=center;labelBackgroundColor=#ffffff;verticalAlign=top;strokeWidth=2;shadow=0;dashed=0;shape=mxgraph.ios7.icons.user;sketch=0;fontSize=20;fontColor=#FFFFFF;fillColor=#FFFFFF;" parent="IsJ_MTZ3b37aoJfhhxWW-1" vertex="1">
          <mxGeometry x="684" y="67" width="30" height="30" as="geometry" />
        </mxCell>
        <mxCell id="ENCc_kLAaLYJEzsmgBCa-10" value="John Doe" style="text;html=1;strokeColor=none;fillColor=none;align=center;verticalAlign=middle;whiteSpace=wrap;rounded=0;shadow=0;sketch=0;fontSize=19;fontColor=#FFFFFF;" parent="IsJ_MTZ3b37aoJfhhxWW-1" vertex="1">
          <mxGeometry x="727.5" y="72" width="94" height="20" as="geometry" />
        </mxCell>
        <mxCell id="ENCc_kLAaLYJEzsmgBCa-11" value="" style="html=1;shadow=0;dashed=0;fillColor=#F8F9FA;strokeColor=none;fontSize=16;fontColor=#181819;align=left;spacing=15;" parent="IsJ_MTZ3b37aoJfhhxWW-1" vertex="1">
          <mxGeometry x="264" y="130" width="555" height="60" as="geometry" />
        </mxCell>
        <mxCell id="ENCc_kLAaLYJEzsmgBCa-12" value="Search" style="html=1;shadow=0;dashed=0;shape=mxgraph.bootstrap.rrect;rSize=5;fontSize=14;fontColor=#6C767D;strokeColor=#CED4DA;fillColor=#ffffff;align=left;spacing=10;" parent="ENCc_kLAaLYJEzsmgBCa-11" vertex="1">
          <mxGeometry width="470" height="40" relative="1" as="geometry">
            <mxPoint x="10" y="10" as="offset" />
          </mxGeometry>
        </mxCell>
        <mxCell id="ENCc_kLAaLYJEzsmgBCa-13" value="" style="ellipse;whiteSpace=wrap;html=1;fillColor=#FFFFFF;" parent="ENCc_kLAaLYJEzsmgBCa-11" vertex="1">
          <mxGeometry x="425.67961165048536" y="22" width="10.776699029126211" height="10" as="geometry" />
        </mxCell>
        <mxCell id="ENCc_kLAaLYJEzsmgBCa-14" value="" style="endArrow=none;html=1;" parent="ENCc_kLAaLYJEzsmgBCa-11" edge="1">
          <mxGeometry width="50" height="50" relative="1" as="geometry">
            <mxPoint x="436.4563106796116" y="32" as="sourcePoint" />
            <mxPoint x="436.4563106796116" y="32" as="targetPoint" />
            <Array as="points">
              <mxPoint x="447.23300970873777" y="40" />
            </Array>
          </mxGeometry>
        </mxCell>
        <mxCell id="ENCc_kLAaLYJEzsmgBCa-15" value="" style="triangle;whiteSpace=wrap;html=1;rotation=90;fillColor=#000000;" parent="ENCc_kLAaLYJEzsmgBCa-11" vertex="1">
          <mxGeometry x="458.00970873786395" y="25" width="10.776699029126211" height="10" as="geometry" />
        </mxCell>
        <mxCell id="ENCc_kLAaLYJEzsmgBCa-31" value="Files" style="text;html=1;strokeColor=none;fillColor=none;align=left;verticalAlign=middle;whiteSpace=wrap;rounded=0;labelPosition=center;verticalLabelPosition=middle;fontSize=16;fontStyle=1;fontColor=#FFFFFF;" parent="IsJ_MTZ3b37aoJfhhxWW-1" vertex="1">
          <mxGeometry x="47" y="210" width="260" height="20" as="geometry" />
        </mxCell>
        <mxCell id="ENCc_kLAaLYJEzsmgBCa-36" value="&amp;lt;Classification Here&amp;gt;" style="rounded=0;whiteSpace=wrap;html=1;shadow=0;sketch=0;fontSize=12;align=center;fillColor=#FFFF33;" parent="IsJ_MTZ3b37aoJfhhxWW-1" vertex="1">
          <mxGeometry x="40" y="30" width="984" height="20" as="geometry" />
        </mxCell>
        <mxCell id="ENCc_kLAaLYJEzsmgBCa-37" value="" style="html=1;shadow=0;dashed=0;shape=mxgraph.bootstrap.rrect;rSize=5;strokeColor=#DEE2E6;html=1;whiteSpace=wrap;fillColor=#ffffff;fontColor=#0085FC;fontSize=14;" parent="IsJ_MTZ3b37aoJfhhxWW-1" vertex="1">
          <mxGeometry x="124" y="800" width="187" height="25" as="geometry" />
        </mxCell>
        <mxCell id="ENCc_kLAaLYJEzsmgBCa-38" value="Previous" style="strokeColor=inherit;fillColor=inherit;gradientColor=inherit;html=1;shadow=0;dashed=0;shape=mxgraph.bootstrap.leftButton;rSize=5;perimeter=none;whiteSpace=wrap;resizeHeight=1;fontColor=#6C767D;fontSize=14;" parent="ENCc_kLAaLYJEzsmgBCa-37" vertex="1">
          <mxGeometry width="70" height="25" relative="1" as="geometry" />
        </mxCell>
        <mxCell id="ENCc_kLAaLYJEzsmgBCa-39" value="1" style="strokeColor=inherit;fillColor=inherit;gradientColor=inherit;fontColor=inherit;html=1;shadow=0;dashed=0;perimeter=none;whiteSpace=wrap;resizeHeight=1;fontSize=14;" parent="ENCc_kLAaLYJEzsmgBCa-37" vertex="1">
          <mxGeometry width="30" height="25" relative="1" as="geometry">
            <mxPoint x="70" as="offset" />
          </mxGeometry>
        </mxCell>
        <mxCell id="ENCc_kLAaLYJEzsmgBCa-40" value="2" style="html=1;shadow=0;dashed=0;perimeter=none;whiteSpace=wrap;resizeHeight=1;fillColor=#0085FC;strokeColor=none;fontColor=#ffffff;fontSize=14;" parent="ENCc_kLAaLYJEzsmgBCa-37" vertex="1">
          <mxGeometry width="30" height="25" relative="1" as="geometry">
            <mxPoint x="100" as="offset" />
          </mxGeometry>
        </mxCell>
        <mxCell id="ENCc_kLAaLYJEzsmgBCa-41" value="3" style="strokeColor=inherit;fillColor=inherit;gradientColor=inherit;fontColor=inherit;html=1;shadow=0;dashed=0;perimeter=none;whiteSpace=wrap;resizeHeight=1;fontSize=14;" parent="ENCc_kLAaLYJEzsmgBCa-37" vertex="1">
          <mxGeometry width="30" height="25" relative="1" as="geometry">
            <mxPoint x="130" as="offset" />
          </mxGeometry>
        </mxCell>
        <mxCell id="ENCc_kLAaLYJEzsmgBCa-42" value="Next" style="strokeColor=inherit;fillColor=inherit;gradientColor=inherit;fontColor=inherit;html=1;shadow=0;dashed=0;shape=mxgraph.bootstrap.rightButton;rSize=5;perimeter=none;whiteSpace=wrap;resizeHeight=1;fontSize=14;" parent="ENCc_kLAaLYJEzsmgBCa-37" vertex="1">
          <mxGeometry x="1" width="60" height="25" relative="1" as="geometry">
            <mxPoint x="-60" as="offset" />
          </mxGeometry>
        </mxCell>
        <mxCell id="ENCc_kLAaLYJEzsmgBCa-43" value="Fav:" style="text;html=1;strokeColor=none;fillColor=none;align=center;verticalAlign=middle;whiteSpace=wrap;rounded=0;shadow=0;sketch=0;fontSize=10;fontColor=#FFFFFF;" parent="IsJ_MTZ3b37aoJfhhxWW-1" vertex="1">
          <mxGeometry x="241" y="210" width="40" height="20" as="geometry" />
        </mxCell>
        <mxCell id="ENCc_kLAaLYJEzsmgBCa-44" value="" style="shape=image;html=1;verticalAlign=top;verticalLabelPosition=bottom;labelBackgroundColor=#ffffff;imageAspect=0;aspect=fixed;image=https://cdn2.iconfinder.com/data/icons/font-awesome/1792/sort-alpha-asc-128.png;rounded=1;shadow=1;sketch=0;strokeColor=#000000;fillColor=#4285F4;fontSize=11;align=left;fontColor=#97D077;" parent="IsJ_MTZ3b37aoJfhhxWW-1" vertex="1">
          <mxGeometry x="194" y="213" width="15" height="15" as="geometry" />
        </mxCell>
        <mxCell id="ENCc_kLAaLYJEzsmgBCa-45" value="" style="shape=image;html=1;verticalAlign=top;verticalLabelPosition=bottom;labelBackgroundColor=#ffffff;imageAspect=0;aspect=fixed;image=https://cdn4.iconfinder.com/data/icons/ios-web-user-interface-multi-circle-flat-vol-5/512/Descending_filter_filtering_tool_funnel_sort-128.png;rounded=1;shadow=1;sketch=0;strokeColor=#000000;fillColor=#4285F4;fontSize=11;fontColor=#000000;align=left;" parent="IsJ_MTZ3b37aoJfhhxWW-1" vertex="1">
          <mxGeometry x="219" y="213" width="15" height="15" as="geometry" />
        </mxCell>
        <mxCell id="ENCc_kLAaLYJEzsmgBCa-46" value="" style="fillColor=#36B37E;strokeColor=none;rounded=1;arcSize=50;shadow=1;sketch=0;fontSize=11;fontColor=#FFFFFF;align=left;" parent="IsJ_MTZ3b37aoJfhhxWW-1" vertex="1">
          <mxGeometry x="274" y="212.5" width="30" height="16" as="geometry" />
        </mxCell>
        <mxCell id="ENCc_kLAaLYJEzsmgBCa-47" value="" style="shape=ellipse;strokeColor=none;fillColor=#ffffff" parent="ENCc_kLAaLYJEzsmgBCa-46" vertex="1">
          <mxGeometry x="1" y="0.5" width="12" height="12" relative="1" as="geometry">
            <mxPoint x="-15" y="-6" as="offset" />
          </mxGeometry>
        </mxCell>
        <mxCell id="ENCc_kLAaLYJEzsmgBCa-48" value="" style="html=1;shadow=0;dashed=0;shape=mxgraph.atlassian.check;strokeColor=#ffffff" parent="ENCc_kLAaLYJEzsmgBCa-46" vertex="1">
          <mxGeometry y="0.5" width="6" height="5" relative="1" as="geometry">
            <mxPoint x="4" y="-3" as="offset" />
          </mxGeometry>
        </mxCell>
        <mxCell id="ENCc_kLAaLYJEzsmgBCa-49" value="Dataset Title #1" style="text;html=1;align=left;verticalAlign=bottom;whiteSpace=wrap;rounded=0;fontColor=#FFFFFF;fontSize=14;" parent="IsJ_MTZ3b37aoJfhhxWW-1" vertex="1">
          <mxGeometry x="324" y="202" width="330" height="20" as="geometry" />
        </mxCell>
        <mxCell id="ENCc_kLAaLYJEzsmgBCa-50" value="Dataset GUIDE:&amp;nbsp; 885522/86548srsd583rs" style="text;html=1;align=left;verticalAlign=bottom;whiteSpace=wrap;rounded=0;fontColor=#FFFFFF;fontSize=10;" parent="IsJ_MTZ3b37aoJfhhxWW-1" vertex="1">
          <mxGeometry x="324" y="220" width="330" height="20" as="geometry" />
        </mxCell>
        <mxCell id="ENCc_kLAaLYJEzsmgBCa-51" value="Description:&amp;nbsp; This dataset contains information about how the Grinch stole Christmas.&amp;nbsp; There is a huge amount of ..." style="text;html=1;align=left;verticalAlign=top;whiteSpace=wrap;rounded=0;fontColor=#FFFFFF;fontSize=10;" parent="IsJ_MTZ3b37aoJfhhxWW-1" vertex="1">
          <mxGeometry x="674" y="200" width="260" height="40" as="geometry" />
        </mxCell>
        <mxCell id="28a3N5dpPjymD2EwGi4I-0" value="" style="html=1;shadow=0;dashed=0;shape=mxgraph.bootstrap.rrect;rSize=5;strokeColor=#DFDFDF;html=1;whiteSpace=wrap;fillColor=#FFFFFF;fontColor=#495057;" parent="IsJ_MTZ3b37aoJfhhxWW-1" vertex="1">
          <mxGeometry x="50" y="250" width="260" height="300" as="geometry" />
        </mxCell>
        <mxCell id="28a3N5dpPjymD2EwGi4I-1" value="&lt;font style=&quot;font-size: 16px&quot;&gt;Dataset Title #1&lt;/font&gt;&lt;br&gt;Guide: 123456/1258d25s8f22f&lt;br&gt;other data goes here" style="html=1;shadow=0;dashed=0;shape=mxgraph.bootstrap.topButton;rSize=5;perimeter=none;whiteSpace=wrap;resizeWidth=1;align=left;spacing=10;verticalAlign=top;fillColor=#0085FC;strokeColor=#0085FC;fontColor=#ffffff;" parent="28a3N5dpPjymD2EwGi4I-0" vertex="1">
          <mxGeometry width="260" height="100" relative="1" as="geometry" />
        </mxCell>
        <mxCell id="28a3N5dpPjymD2EwGi4I-2" value="&lt;font style=&quot;font-size: 16px&quot;&gt;Dataset Title #2&lt;/font&gt;&lt;br&gt;Guide: 185576/58d6s8dd222dgf8&lt;br&gt;Other data goes here&lt;br&gt;&lt;br&gt;&lt;br&gt;" style="strokeColor=inherit;fillColor=inherit;gradientColor=inherit;fontColor=inherit;html=1;shadow=0;dashed=0;perimeter=none;whiteSpace=wrap;resizeWidth=1;align=left;spacing=10;" parent="28a3N5dpPjymD2EwGi4I-0" vertex="1">
          <mxGeometry width="260" height="100" relative="1" as="geometry">
            <mxPoint y="100" as="offset" />
          </mxGeometry>
        </mxCell>
        <mxCell id="28a3N5dpPjymD2EwGi4I-3" value="&lt;font style=&quot;font-size: 16px&quot;&gt;Dataset Title #3&lt;/font&gt;&lt;br&gt;Guide: 123456/88d55s6c8fs6&lt;br&gt;other data goes here&lt;br&gt;&lt;br&gt;&lt;br&gt;" style="strokeColor=inherit;fillColor=inherit;gradientColor=inherit;fontColor=inherit;html=1;shadow=0;dashed=0;shape=mxgraph.bootstrap.bottomButton;rSize=5;perimeter=none;whiteSpace=wrap;resizeWidth=1;resizeHeight=0;align=left;spacing=10;" parent="28a3N5dpPjymD2EwGi4I-0" vertex="1">
          <mxGeometry y="1" width="260" height="100" relative="1" as="geometry">
            <mxPoint y="-100" as="offset" />
          </mxGeometry>
        </mxCell>
        <mxCell id="Ne3hNACKrlst3hWLKDeP-0" value="" style="shape=image;html=1;verticalAlign=top;verticalLabelPosition=bottom;labelBackgroundColor=#D0D0D0;imageAspect=0;aspect=fixed;image=https://cdn1.iconfinder.com/data/icons/jumpicon-basic-ui-glyph-1/32/-_Cloud-Computing-Data-Server-Upload-128.png;shadow=1;strokeColor=#D0D0D0;fillColor=#D0D0D0;gradientColor=none;fontSize=9;fontColor=#D0D0D0;align=left;sketch=0;opacity=30;" parent="IsJ_MTZ3b37aoJfhhxWW-1" vertex="1">
          <mxGeometry x="428" y="1230" width="208" height="208" as="geometry" />
        </mxCell>
        <mxCell id="9xa6xDA-MqHcSXDnbGct-4" value="" style="rounded=0;whiteSpace=wrap;html=1;fillColor=#3333FF;" parent="IsJ_MTZ3b37aoJfhhxWW-1" vertex="1">
          <mxGeometry x="40" y="890" width="984" height="61" as="geometry" />
        </mxCell>
        <mxCell id="9xa6xDA-MqHcSXDnbGct-5" value="&lt;font style=&quot;font-size: 14px&quot;&gt;FEEDBACK&lt;/font&gt;" style="rounded=1;whiteSpace=wrap;html=1;fillColor=#FF8000;strokeColor=#FF8000;fontColor=#FFFFFF;" parent="IsJ_MTZ3b37aoJfhhxWW-1" vertex="1">
          <mxGeometry x="890" y="900.5" width="120" height="40" as="geometry" />
        </mxCell>
        <mxCell id="9xa6xDA-MqHcSXDnbGct-6" value="" style="shape=image;html=1;verticalAlign=top;verticalLabelPosition=bottom;labelBackgroundColor=#ffffff;imageAspect=0;aspect=fixed;image=https://cdn3.iconfinder.com/data/icons/social-media-2125/78/bell-128.png;strokeColor=#FF8000;fillColor=#FF8000;fontColor=#FFFFFF;" parent="IsJ_MTZ3b37aoJfhhxWW-1" vertex="1">
          <mxGeometry x="836" y="902" width="37" height="37" as="geometry" />
        </mxCell>
        <mxCell id="9xa6xDA-MqHcSXDnbGct-7" value="" style="whiteSpace=wrap;html=1;shape=mxgraph.basic.octagon2;align=center;verticalAlign=middle;dx=12;shadow=0;sketch=0;fontSize=20;fontColor=#808080;fillColor=#FF8000;strokeColor=#FF8000;" parent="IsJ_MTZ3b37aoJfhhxWW-1" vertex="1">
          <mxGeometry x="50" y="896.5" width="56" height="42" as="geometry" />
        </mxCell>
        <mxCell id="9xa6xDA-MqHcSXDnbGct-8" value="Eva" style="text;html=1;strokeColor=none;fillColor=none;align=center;verticalAlign=middle;whiteSpace=wrap;rounded=0;shadow=0;sketch=0;fontSize=20;fontColor=#FFFFFF;fontStyle=1" parent="IsJ_MTZ3b37aoJfhhxWW-1" vertex="1">
          <mxGeometry x="116" y="910" width="40" height="20" as="geometry" />
        </mxCell>
        <mxCell id="9xa6xDA-MqHcSXDnbGct-9" value="" style="html=1;verticalLabelPosition=bottom;align=center;labelBackgroundColor=#ffffff;verticalAlign=top;strokeWidth=2;shadow=0;dashed=0;shape=mxgraph.ios7.icons.user;sketch=0;fontSize=20;fontColor=#FFFFFF;fillColor=#FFFFFF;" parent="IsJ_MTZ3b37aoJfhhxWW-1" vertex="1">
          <mxGeometry x="684" y="907" width="30" height="30" as="geometry" />
        </mxCell>
        <mxCell id="9xa6xDA-MqHcSXDnbGct-10" value="John Doe" style="text;html=1;strokeColor=none;fillColor=none;align=center;verticalAlign=middle;whiteSpace=wrap;rounded=0;shadow=0;sketch=0;fontSize=19;fontColor=#FFFFFF;" parent="IsJ_MTZ3b37aoJfhhxWW-1" vertex="1">
          <mxGeometry x="727.5" y="912" width="94" height="20" as="geometry" />
        </mxCell>
        <mxCell id="9xa6xDA-MqHcSXDnbGct-17" value="&amp;lt;Classification Here&amp;gt;" style="rounded=0;whiteSpace=wrap;html=1;shadow=0;sketch=0;fontSize=12;align=center;fillColor=#FFFF33;" parent="IsJ_MTZ3b37aoJfhhxWW-1" vertex="1">
          <mxGeometry x="40" y="870" width="984" height="20" as="geometry" />
        </mxCell>
        <mxCell id="9xa6xDA-MqHcSXDnbGct-38" value="" style="rounded=0;whiteSpace=wrap;html=1;strokeColor=#000000;fillColor=#F8F9FA;" parent="IsJ_MTZ3b37aoJfhhxWW-1" vertex="1">
          <mxGeometry x="50" y="1801" width="984" height="719" as="geometry" />
        </mxCell>
        <mxCell id="9xa6xDA-MqHcSXDnbGct-39" value="" style="rounded=1;whiteSpace=wrap;html=1;shadow=1;labelBackgroundColor=#FFFFFF;sketch=0;gradientColor=none;fontSize=9;fontColor=#FFFFFF;opacity=30;align=left;arcSize=4;dashed=1;fillColor=#DFDFDF;" parent="IsJ_MTZ3b37aoJfhhxWW-1" vertex="1">
          <mxGeometry x="60" y="1820" width="960" height="670" as="geometry" />
        </mxCell>
        <mxCell id="9xa6xDA-MqHcSXDnbGct-40" value="" style="shape=image;html=1;verticalAlign=top;verticalLabelPosition=bottom;labelBackgroundColor=#D0D0D0;imageAspect=0;aspect=fixed;image=https://cdn1.iconfinder.com/data/icons/jumpicon-basic-ui-glyph-1/32/-_Cloud-Computing-Data-Server-Upload-128.png;shadow=1;strokeColor=#D0D0D0;fillColor=#D0D0D0;gradientColor=none;fontSize=9;fontColor=#D0D0D0;align=left;sketch=0;opacity=30;" parent="IsJ_MTZ3b37aoJfhhxWW-1" vertex="1">
          <mxGeometry x="438" y="2080" width="208" height="208" as="geometry" />
        </mxCell>
        <mxCell id="9xa6xDA-MqHcSXDnbGct-41" value="" style="rounded=0;whiteSpace=wrap;html=1;fillColor=#3333FF;" parent="IsJ_MTZ3b37aoJfhhxWW-1" vertex="1">
          <mxGeometry x="50" y="1740" width="984" height="61" as="geometry" />
        </mxCell>
        <mxCell id="9xa6xDA-MqHcSXDnbGct-42" value="&lt;font style=&quot;font-size: 14px&quot;&gt;FEEDBACK&lt;/font&gt;" style="rounded=1;whiteSpace=wrap;html=1;fillColor=#FF8000;strokeColor=#FF8000;fontColor=#FFFFFF;" parent="IsJ_MTZ3b37aoJfhhxWW-1" vertex="1">
          <mxGeometry x="900" y="1750.5" width="120" height="40" as="geometry" />
        </mxCell>
        <mxCell id="9xa6xDA-MqHcSXDnbGct-43" value="" style="shape=image;html=1;verticalAlign=top;verticalLabelPosition=bottom;labelBackgroundColor=#ffffff;imageAspect=0;aspect=fixed;image=https://cdn3.iconfinder.com/data/icons/social-media-2125/78/bell-128.png;strokeColor=#FF8000;fillColor=#FF8000;fontColor=#FFFFFF;" parent="IsJ_MTZ3b37aoJfhhxWW-1" vertex="1">
          <mxGeometry x="846" y="1752" width="37" height="37" as="geometry" />
        </mxCell>
        <mxCell id="9xa6xDA-MqHcSXDnbGct-44" value="" style="whiteSpace=wrap;html=1;shape=mxgraph.basic.octagon2;align=center;verticalAlign=middle;dx=12;shadow=0;sketch=0;fontSize=20;fontColor=#808080;fillColor=#FF8000;strokeColor=#FF8000;" parent="IsJ_MTZ3b37aoJfhhxWW-1" vertex="1">
          <mxGeometry x="60" y="1746.5" width="56" height="42" as="geometry" />
        </mxCell>
        <mxCell id="9xa6xDA-MqHcSXDnbGct-45" value="Eva" style="text;html=1;strokeColor=none;fillColor=none;align=center;verticalAlign=middle;whiteSpace=wrap;rounded=0;shadow=0;sketch=0;fontSize=20;fontColor=#FFFFFF;fontStyle=1" parent="IsJ_MTZ3b37aoJfhhxWW-1" vertex="1">
          <mxGeometry x="126" y="1760" width="40" height="20" as="geometry" />
        </mxCell>
        <mxCell id="9xa6xDA-MqHcSXDnbGct-46" value="" style="html=1;verticalLabelPosition=bottom;align=center;labelBackgroundColor=#ffffff;verticalAlign=top;strokeWidth=2;shadow=0;dashed=0;shape=mxgraph.ios7.icons.user;sketch=0;fontSize=20;fontColor=#FFFFFF;fillColor=#FFFFFF;" parent="IsJ_MTZ3b37aoJfhhxWW-1" vertex="1">
          <mxGeometry x="694" y="1757" width="30" height="30" as="geometry" />
        </mxCell>
        <mxCell id="9xa6xDA-MqHcSXDnbGct-47" value="John Doe" style="text;html=1;strokeColor=none;fillColor=none;align=center;verticalAlign=middle;whiteSpace=wrap;rounded=0;shadow=0;sketch=0;fontSize=19;fontColor=#FFFFFF;" parent="IsJ_MTZ3b37aoJfhhxWW-1" vertex="1">
          <mxGeometry x="737.5" y="1762" width="94" height="20" as="geometry" />
        </mxCell>
        <mxCell id="9xa6xDA-MqHcSXDnbGct-48" value="&amp;lt;Classification Here&amp;gt;" style="rounded=0;whiteSpace=wrap;html=1;shadow=0;sketch=0;fontSize=12;align=center;fillColor=#FFFF33;" parent="IsJ_MTZ3b37aoJfhhxWW-1" vertex="1">
          <mxGeometry x="50" y="1720" width="984" height="20" as="geometry" />
        </mxCell>
        <mxCell id="fkzD_nHM4bk65XH7an8L-0" value="Eva Smart Upload" style="html=1;shadow=0;dashed=0;shape=mxgraph.bootstrap.rrect;rSize=5;html=1;strokeColor=#C8C8C8;fillColor=#ffffff;whiteSpace=wrap;verticalAlign=top;align=left;fontSize=18;spacing=15;spacingTop=-5;" parent="IsJ_MTZ3b37aoJfhhxWW-1" vertex="1">
          <mxGeometry x="1130" y="1870" width="490" height="560" as="geometry" />
        </mxCell>
        <mxCell id="fkzD_nHM4bk65XH7an8L-1" value="" style="shape=line;strokeColor=#dddddd;resizeWidth=1;" parent="fkzD_nHM4bk65XH7an8L-0" vertex="1">
          <mxGeometry width="490.00000000000006" height="10" relative="1" as="geometry">
            <mxPoint y="50" as="offset" />
          </mxGeometry>
        </mxCell>
        <mxCell id="fkzD_nHM4bk65XH7an8L-2" value="" style="html=1;shadow=0;dashed=0;shape=mxgraph.bootstrap.x;strokeColor=#868686;strokeWidth=2;" parent="fkzD_nHM4bk65XH7an8L-0" vertex="1">
          <mxGeometry x="1" width="8" height="8" relative="1" as="geometry">
            <mxPoint x="-24" y="20" as="offset" />
          </mxGeometry>
        </mxCell>
        <mxCell id="fkzD_nHM4bk65XH7an8L-3" value="" style="shape=line;strokeColor=#dddddd;resizeWidth=1;" parent="fkzD_nHM4bk65XH7an8L-0" vertex="1">
          <mxGeometry width="490.00000000000006" height="10" relative="1" as="geometry">
            <mxPoint y="480" as="offset" />
          </mxGeometry>
        </mxCell>
        <mxCell id="fkzD_nHM4bk65XH7an8L-4" value="Proceed" style="html=1;shadow=0;dashed=0;shape=mxgraph.bootstrap.rrect;rSize=5;fillColor=#0085FC;strokeColor=none;fontColor=#FFFFFF;fontSize=14;" parent="fkzD_nHM4bk65XH7an8L-0" vertex="1">
          <mxGeometry x="1" y="1" width="110" height="40" relative="1" as="geometry">
            <mxPoint x="-130" y="-60" as="offset" />
          </mxGeometry>
        </mxCell>
        <mxCell id="fkzD_nHM4bk65XH7an8L-5" value="Cancel" style="html=1;shadow=0;dashed=0;shape=mxgraph.bootstrap.rrect;rSize=5;fillColor=#6C757D;strokeColor=none;fontColor=#FFFFFF;fontSize=14;" parent="fkzD_nHM4bk65XH7an8L-0" vertex="1">
          <mxGeometry x="1" y="1" width="70" height="40" relative="1" as="geometry">
            <mxPoint x="-220" y="-60" as="offset" />
          </mxGeometry>
        </mxCell>
        <mxCell id="9-0WH7m34XIAzIfGcJYQ-10" value="1" style="shape=ellipse;strokeColor=none;fillColor=#4285F4;fontColor=#ffffff;" parent="fkzD_nHM4bk65XH7an8L-0" vertex="1">
          <mxGeometry x="10" y="100" width="24" height="24" as="geometry" />
        </mxCell>
        <mxCell id="9-0WH7m34XIAzIfGcJYQ-11" value="Processing Options" style="shape=rect;strokeColor=none;fillColor=none;align=left;fontStyle=1;" parent="fkzD_nHM4bk65XH7an8L-0" vertex="1">
          <mxGeometry x="46" y="100" width="200" height="24" as="geometry" />
        </mxCell>
        <mxCell id="9-0WH7m34XIAzIfGcJYQ-12" value="" style="shape=line;direction=north;strokeColor=#b3b3b3;" parent="fkzD_nHM4bk65XH7an8L-0" vertex="1">
          <mxGeometry x="17" y="130" width="10" height="130" as="geometry" />
        </mxCell>
        <mxCell id="9-0WH7m34XIAzIfGcJYQ-14" value="2" style="shape=ellipse;strokeColor=none;fillColor=#9e9e9e;fontColor=#ffffff;" parent="fkzD_nHM4bk65XH7an8L-0" vertex="1">
          <mxGeometry x="10" y="270" width="24" height="24" as="geometry" />
        </mxCell>
        <mxCell id="9-0WH7m34XIAzIfGcJYQ-15" value="Routing" style="shape=rect;strokeColor=none;fillColor=none;align=left;fontColor=#aaaaaa;" parent="fkzD_nHM4bk65XH7an8L-0" vertex="1">
          <mxGeometry x="46" y="270" width="200" height="24" as="geometry" />
        </mxCell>
        <mxCell id="9-0WH7m34XIAzIfGcJYQ-16" value="3" style="shape=ellipse;strokeColor=none;fillColor=#9e9e9e;fontColor=#ffffff;" parent="fkzD_nHM4bk65XH7an8L-0" vertex="1">
          <mxGeometry x="10" y="336" width="24" height="24" as="geometry" />
        </mxCell>
        <mxCell id="9-0WH7m34XIAzIfGcJYQ-17" value="Certification and Authorization" style="shape=rect;strokeColor=none;fillColor=none;align=left;fontColor=#aaaaaa;" parent="fkzD_nHM4bk65XH7an8L-0" vertex="1">
          <mxGeometry x="46" y="336" width="200" height="24" as="geometry" />
        </mxCell>
        <mxCell id="9-0WH7m34XIAzIfGcJYQ-18" value="" style="shape=line;direction=north;strokeColor=#b3b3b3;" parent="fkzD_nHM4bk65XH7an8L-0" vertex="1">
          <mxGeometry x="17" y="304" width="10" height="25" as="geometry" />
        </mxCell>
        <mxCell id="YxpuxXp5-XK3YFgYWokH-1" value="You have started to upload files into Eva.&amp;nbsp; If you did not intend to upload these files please click cancel now.&amp;nbsp; If you would like to continue with the upload please provide Eva with a little bit of additional information.&amp;nbsp;&amp;nbsp;" style="text;html=1;strokeColor=none;fillColor=none;align=left;verticalAlign=top;whiteSpace=wrap;rounded=0;shadow=1;dashed=1;labelBackgroundColor=none;sketch=0;fontSize=9;opacity=30;" parent="fkzD_nHM4bk65XH7an8L-0" vertex="1">
          <mxGeometry x="10" y="60" width="470" height="40" as="geometry" />
        </mxCell>
        <mxCell id="YxpuxXp5-XK3YFgYWokH-8" value="I know which dataset to send the files to." style="html=1;shadow=0;dashed=0;shape=mxgraph.bootstrap.radioButton2;labelPosition=right;verticalLabelPosition=middle;align=left;verticalAlign=middle;gradientColor=#DEDEDE;fillColor=#EDEDED;checked=1;spacing=5;checkedFill=#0085FC;checkedStroke=#ffffff;labelBackgroundColor=none;sketch=0;strokeColor=#000000;fontSize=9;fontColor=#000000;opacity=30;" parent="fkzD_nHM4bk65XH7an8L-0" vertex="1">
          <mxGeometry x="46" y="140" width="10" height="10" as="geometry" />
        </mxCell>
        <mxCell id="YxpuxXp5-XK3YFgYWokH-9" value="Place the files in a holding location, I&#39;ll come back for them." style="html=1;shadow=0;dashed=0;shape=mxgraph.bootstrap.radioButton2;labelPosition=right;verticalLabelPosition=middle;align=left;verticalAlign=middle;gradientColor=#DEDEDE;fillColor=#EDEDED;checked=0;spacing=5;checkedFill=#0085FC;checkedStroke=#ffffff;labelBackgroundColor=none;sketch=0;strokeColor=#000000;fontSize=9;fontColor=#000000;opacity=30;" parent="fkzD_nHM4bk65XH7an8L-0" vertex="1">
          <mxGeometry x="46" y="160" width="10" height="10" as="geometry" />
        </mxCell>
        <mxCell id="YxpuxXp5-XK3YFgYWokH-10" value="&lt;font style=&quot;font-size: 9px&quot; color=&quot;#000000&quot;&gt;There are too many files, Eva is Smart, let her figure it out.&amp;nbsp;&amp;nbsp;&lt;/font&gt;" style="html=1;shadow=0;dashed=0;shape=mxgraph.bootstrap.radioButton2;labelPosition=right;verticalLabelPosition=middle;align=left;verticalAlign=middle;gradientColor=#DEDEDE;fillColor=#EDEDED;checked=0;spacing=5;fontColor=#6C767D;checkedFill=#0085FC;checkedStroke=#ffffff;labelBackgroundColor=none;sketch=0;strokeColor=#000000;opacity=30;" parent="fkzD_nHM4bk65XH7an8L-0" vertex="1">
          <mxGeometry x="46" y="180" width="10" height="10" as="geometry" />
        </mxCell>
        <mxCell id="9-0WH7m34XIAzIfGcJYQ-13" value="Next" style="shape=rect;strokeColor=none;fillColor=#4285f4;fontColor=#ffffff;rounded=1;" parent="fkzD_nHM4bk65XH7an8L-0" vertex="1">
          <mxGeometry x="46" y="210" width="102" height="36" as="geometry" />
        </mxCell>
        <mxCell id="9-0WH7m34XIAzIfGcJYQ-19" value="Cancel" style="html=1;shadow=0;dashed=0;shape=mxgraph.bootstrap.rrect;rSize=5;fillColor=#6C757D;strokeColor=none;fontColor=#FFFFFF;fontSize=14;" parent="fkzD_nHM4bk65XH7an8L-0" vertex="1">
          <mxGeometry x="156.00402733964256" y="210" width="70" height="36" as="geometry" />
        </mxCell>
        <mxCell id="fkzD_nHM4bk65XH7an8L-24" value="I John McClane, certify that I am authorized to upload this data.&amp;nbsp;&amp;nbsp;" style="text;html=1;strokeColor=none;fillColor=none;align=left;verticalAlign=top;whiteSpace=wrap;rounded=0;shadow=1;dashed=1;labelBackgroundColor=none;sketch=0;fontSize=9;opacity=30;" parent="IsJ_MTZ3b37aoJfhhxWW-1" vertex="1">
          <mxGeometry x="1134" y="1720" width="400" height="20" as="geometry" />
        </mxCell>
        <mxCell id="YxpuxXp5-XK3YFgYWokH-0" value="" style="html=1;shadow=0;dashed=0;shape=mxgraph.atlassian.checkbox_2;fillColor=#0057D8;strokeColor=none;align=left;verticalAlign=middle;fontStyle=0;fontSize=12;labelPosition=right;verticalLabelPosition=middle;spacingLeft=10;rounded=1;sketch=0;" parent="IsJ_MTZ3b37aoJfhhxWW-1" vertex="1">
          <mxGeometry x="1110" y="1724" width="12.000000000000002" height="12" as="geometry" />
        </mxCell>
        <mxCell id="YxpuxXp5-XK3YFgYWokH-14" value="" style="rounded=0;whiteSpace=wrap;html=1;strokeColor=#000000;fillColor=#F8F9FA;" parent="IsJ_MTZ3b37aoJfhhxWW-1" vertex="1">
          <mxGeometry x="50" y="2671" width="984" height="719" as="geometry" />
        </mxCell>
        <mxCell id="YxpuxXp5-XK3YFgYWokH-15" value="" style="rounded=1;whiteSpace=wrap;html=1;shadow=1;labelBackgroundColor=#FFFFFF;sketch=0;gradientColor=none;fontSize=9;fontColor=#FFFFFF;opacity=30;align=left;arcSize=4;dashed=1;fillColor=#DFDFDF;" parent="IsJ_MTZ3b37aoJfhhxWW-1" vertex="1">
          <mxGeometry x="60" y="2690" width="960" height="670" as="geometry" />
        </mxCell>
        <mxCell id="YxpuxXp5-XK3YFgYWokH-16" value="" style="shape=image;html=1;verticalAlign=top;verticalLabelPosition=bottom;labelBackgroundColor=#D0D0D0;imageAspect=0;aspect=fixed;image=https://cdn1.iconfinder.com/data/icons/jumpicon-basic-ui-glyph-1/32/-_Cloud-Computing-Data-Server-Upload-128.png;shadow=1;strokeColor=#D0D0D0;fillColor=#D0D0D0;gradientColor=none;fontSize=9;fontColor=#D0D0D0;align=left;sketch=0;opacity=30;" parent="IsJ_MTZ3b37aoJfhhxWW-1" vertex="1">
          <mxGeometry x="438" y="2950" width="208" height="208" as="geometry" />
        </mxCell>
        <mxCell id="YxpuxXp5-XK3YFgYWokH-17" value="" style="rounded=0;whiteSpace=wrap;html=1;fillColor=#3333FF;" parent="IsJ_MTZ3b37aoJfhhxWW-1" vertex="1">
          <mxGeometry x="50" y="2610" width="984" height="61" as="geometry" />
        </mxCell>
        <mxCell id="YxpuxXp5-XK3YFgYWokH-18" value="&lt;font style=&quot;font-size: 14px&quot;&gt;FEEDBACK&lt;/font&gt;" style="rounded=1;whiteSpace=wrap;html=1;fillColor=#FF8000;strokeColor=#FF8000;fontColor=#FFFFFF;" parent="IsJ_MTZ3b37aoJfhhxWW-1" vertex="1">
          <mxGeometry x="900" y="2620.5" width="120" height="40" as="geometry" />
        </mxCell>
        <mxCell id="YxpuxXp5-XK3YFgYWokH-19" value="" style="shape=image;html=1;verticalAlign=top;verticalLabelPosition=bottom;labelBackgroundColor=#ffffff;imageAspect=0;aspect=fixed;image=https://cdn3.iconfinder.com/data/icons/social-media-2125/78/bell-128.png;strokeColor=#FF8000;fillColor=#FF8000;fontColor=#FFFFFF;" parent="IsJ_MTZ3b37aoJfhhxWW-1" vertex="1">
          <mxGeometry x="846" y="2622" width="37" height="37" as="geometry" />
        </mxCell>
        <mxCell id="YxpuxXp5-XK3YFgYWokH-20" value="" style="whiteSpace=wrap;html=1;shape=mxgraph.basic.octagon2;align=center;verticalAlign=middle;dx=12;shadow=0;sketch=0;fontSize=20;fontColor=#808080;fillColor=#FF8000;strokeColor=#FF8000;" parent="IsJ_MTZ3b37aoJfhhxWW-1" vertex="1">
          <mxGeometry x="60" y="2616.5" width="56" height="42" as="geometry" />
        </mxCell>
        <mxCell id="YxpuxXp5-XK3YFgYWokH-21" value="Eva" style="text;html=1;strokeColor=none;fillColor=none;align=center;verticalAlign=middle;whiteSpace=wrap;rounded=0;shadow=0;sketch=0;fontSize=20;fontColor=#FFFFFF;fontStyle=1" parent="IsJ_MTZ3b37aoJfhhxWW-1" vertex="1">
          <mxGeometry x="126" y="2630" width="40" height="20" as="geometry" />
        </mxCell>
        <mxCell id="YxpuxXp5-XK3YFgYWokH-22" value="" style="html=1;verticalLabelPosition=bottom;align=center;labelBackgroundColor=#ffffff;verticalAlign=top;strokeWidth=2;shadow=0;dashed=0;shape=mxgraph.ios7.icons.user;sketch=0;fontSize=20;fontColor=#FFFFFF;fillColor=#FFFFFF;" parent="IsJ_MTZ3b37aoJfhhxWW-1" vertex="1">
          <mxGeometry x="694" y="2627" width="30" height="30" as="geometry" />
        </mxCell>
        <mxCell id="YxpuxXp5-XK3YFgYWokH-23" value="John Doe" style="text;html=1;strokeColor=none;fillColor=none;align=center;verticalAlign=middle;whiteSpace=wrap;rounded=0;shadow=0;sketch=0;fontSize=19;fontColor=#FFFFFF;" parent="IsJ_MTZ3b37aoJfhhxWW-1" vertex="1">
          <mxGeometry x="737.5" y="2632" width="94" height="20" as="geometry" />
        </mxCell>
        <mxCell id="YxpuxXp5-XK3YFgYWokH-24" value="&amp;lt;Classification Here&amp;gt;" style="rounded=0;whiteSpace=wrap;html=1;shadow=0;sketch=0;fontSize=12;align=center;fillColor=#FFFF33;" parent="IsJ_MTZ3b37aoJfhhxWW-1" vertex="1">
          <mxGeometry x="50" y="2590" width="984" height="20" as="geometry" />
        </mxCell>
        <mxCell id="YxpuxXp5-XK3YFgYWokH-25" value="Eva Smart Upload" style="html=1;shadow=0;dashed=0;shape=mxgraph.bootstrap.rrect;rSize=5;html=1;strokeColor=#C8C8C8;fillColor=#ffffff;whiteSpace=wrap;verticalAlign=top;align=left;fontSize=18;spacing=15;spacingTop=-5;" parent="IsJ_MTZ3b37aoJfhhxWW-1" vertex="1">
          <mxGeometry x="1130" y="2750.5" width="490" height="560" as="geometry" />
        </mxCell>
        <mxCell id="YxpuxXp5-XK3YFgYWokH-26" value="" style="shape=line;strokeColor=#dddddd;resizeWidth=1;" parent="YxpuxXp5-XK3YFgYWokH-25" vertex="1">
          <mxGeometry width="490.00000000000006" height="10" relative="1" as="geometry">
            <mxPoint y="50" as="offset" />
          </mxGeometry>
        </mxCell>
        <mxCell id="YxpuxXp5-XK3YFgYWokH-27" value="" style="html=1;shadow=0;dashed=0;shape=mxgraph.bootstrap.x;strokeColor=#868686;strokeWidth=2;" parent="YxpuxXp5-XK3YFgYWokH-25" vertex="1">
          <mxGeometry x="1" width="8" height="8" relative="1" as="geometry">
            <mxPoint x="-24" y="20" as="offset" />
          </mxGeometry>
        </mxCell>
        <mxCell id="YxpuxXp5-XK3YFgYWokH-28" value="" style="shape=line;strokeColor=#dddddd;resizeWidth=1;" parent="YxpuxXp5-XK3YFgYWokH-25" vertex="1">
          <mxGeometry width="490.00000000000006" height="10" relative="1" as="geometry">
            <mxPoint y="480" as="offset" />
          </mxGeometry>
        </mxCell>
        <mxCell id="YxpuxXp5-XK3YFgYWokH-29" value="Proceed" style="html=1;shadow=0;dashed=0;shape=mxgraph.bootstrap.rrect;rSize=5;fillColor=#0085FC;strokeColor=none;fontColor=#FFFFFF;fontSize=14;" parent="YxpuxXp5-XK3YFgYWokH-25" vertex="1">
          <mxGeometry x="1" y="1" width="110" height="40" relative="1" as="geometry">
            <mxPoint x="-130" y="-60" as="offset" />
          </mxGeometry>
        </mxCell>
        <mxCell id="YxpuxXp5-XK3YFgYWokH-30" value="Cancel" style="html=1;shadow=0;dashed=0;shape=mxgraph.bootstrap.rrect;rSize=5;fillColor=#6C757D;strokeColor=none;fontColor=#FFFFFF;fontSize=14;" parent="YxpuxXp5-XK3YFgYWokH-25" vertex="1">
          <mxGeometry x="1" y="1" width="70" height="40" relative="1" as="geometry">
            <mxPoint x="-220" y="-60" as="offset" />
          </mxGeometry>
        </mxCell>
        <mxCell id="YxpuxXp5-XK3YFgYWokH-31" value="1" style="shape=ellipse;strokeColor=none;fontColor=#ffffff;fillColor=#9E9E9E;" parent="YxpuxXp5-XK3YFgYWokH-25" vertex="1">
          <mxGeometry x="10" y="100" width="24" height="24" as="geometry" />
        </mxCell>
        <mxCell id="YxpuxXp5-XK3YFgYWokH-32" value="Processing Options" style="shape=rect;strokeColor=none;fillColor=none;align=left;fontStyle=0;fontColor=#9E9E9E;" parent="YxpuxXp5-XK3YFgYWokH-25" vertex="1">
          <mxGeometry x="46" y="100" width="200" height="24" as="geometry" />
        </mxCell>
        <mxCell id="YxpuxXp5-XK3YFgYWokH-34" value="2" style="shape=ellipse;strokeColor=none;fontColor=#ffffff;fillColor=#0085FC;" parent="YxpuxXp5-XK3YFgYWokH-25" vertex="1">
          <mxGeometry x="10" y="160" width="24" height="24" as="geometry" />
        </mxCell>
        <mxCell id="YxpuxXp5-XK3YFgYWokH-35" value="Routing" style="shape=rect;strokeColor=none;fillColor=none;align=left;fontStyle=1" parent="YxpuxXp5-XK3YFgYWokH-25" vertex="1">
          <mxGeometry x="46" y="160" width="200" height="24" as="geometry" />
        </mxCell>
        <mxCell id="YxpuxXp5-XK3YFgYWokH-36" value="3" style="shape=ellipse;strokeColor=none;fillColor=#9e9e9e;fontColor=#ffffff;" parent="YxpuxXp5-XK3YFgYWokH-25" vertex="1">
          <mxGeometry x="10" y="326" width="24" height="24" as="geometry" />
        </mxCell>
        <mxCell id="YxpuxXp5-XK3YFgYWokH-37" value="Certification and Authorization" style="shape=rect;strokeColor=none;fillColor=none;align=left;fontColor=#aaaaaa;" parent="YxpuxXp5-XK3YFgYWokH-25" vertex="1">
          <mxGeometry x="46" y="326" width="200" height="24" as="geometry" />
        </mxCell>
        <mxCell id="YxpuxXp5-XK3YFgYWokH-38" value="" style="shape=line;direction=north;strokeColor=#b3b3b3;" parent="YxpuxXp5-XK3YFgYWokH-25" vertex="1">
          <mxGeometry x="17" y="130" width="10" height="25" as="geometry" />
        </mxCell>
        <mxCell id="YxpuxXp5-XK3YFgYWokH-39" value="You have started to upload files into Eva.&amp;nbsp; If you did not intend to upload these files please click cancel now.&amp;nbsp; If you would like to continue with the upload please provide Eva with a little bit of additional information.&amp;nbsp;&amp;nbsp;" style="text;html=1;strokeColor=none;fillColor=none;align=left;verticalAlign=top;whiteSpace=wrap;rounded=0;shadow=1;dashed=1;labelBackgroundColor=none;sketch=0;fontSize=9;opacity=30;" parent="YxpuxXp5-XK3YFgYWokH-25" vertex="1">
          <mxGeometry x="10" y="60" width="470" height="40" as="geometry" />
        </mxCell>
        <mxCell id="YxpuxXp5-XK3YFgYWokH-33" value="" style="shape=line;direction=north;strokeColor=#b3b3b3;" parent="YxpuxXp5-XK3YFgYWokH-25" vertex="1">
          <mxGeometry x="17" y="190" width="10" height="130" as="geometry" />
        </mxCell>
        <mxCell id="0uHh2HDslXPpGYFJ0D0W-0" value="Select Dataset" style="rounded=1;fillColor=#F1F2F4;strokeColor=none;html=1;fontColor=#596780;align=left;fontSize=12;spacingLeft=10;shadow=0;sketch=0;" parent="YxpuxXp5-XK3YFgYWokH-25" vertex="1">
          <mxGeometry x="46" y="240" width="424" height="30" as="geometry" />
        </mxCell>
        <mxCell id="0uHh2HDslXPpGYFJ0D0W-1" value="" style="shape=triangle;direction=south;fillColor=#596780;strokeColor=none;html=1" parent="0uHh2HDslXPpGYFJ0D0W-0" vertex="1">
          <mxGeometry x="1" y="0.5" width="12" height="6" relative="1" as="geometry">
            <mxPoint x="-20" y="-3" as="offset" />
          </mxGeometry>
        </mxCell>
        <mxCell id="uLN24a1T_LNBRFhIugJr-0" value="Dataset GUIDE ID" style="html=1;shadow=0;dashed=0;shape=mxgraph.bootstrap.rrect;rSize=5;strokeColor=#CED4DA;html=1;whiteSpace=wrap;fillColor=#FFFFFF;fontColor=#7D868C;align=left;spacing=2;spacingLeft=10;fontSize=12;" parent="YxpuxXp5-XK3YFgYWokH-25" vertex="1">
          <mxGeometry x="46" y="190" width="420" height="30" as="geometry" />
        </mxCell>
        <mxCell id="uLN24a1T_LNBRFhIugJr-1" value="&lt;b&gt;OR&lt;/b&gt;" style="text;html=1;strokeColor=none;fillColor=none;align=left;verticalAlign=middle;whiteSpace=wrap;rounded=0;shadow=1;dashed=1;labelBackgroundColor=none;sketch=0;fontSize=9;fontColor=#000000;opacity=30;" parent="YxpuxXp5-XK3YFgYWokH-25" vertex="1">
          <mxGeometry x="46" y="220" width="40" height="20" as="geometry" />
        </mxCell>
        <mxCell id="YxpuxXp5-XK3YFgYWokH-43" value="Next" style="shape=rect;strokeColor=none;fillColor=#4285f4;fontColor=#ffffff;rounded=1;" parent="YxpuxXp5-XK3YFgYWokH-25" vertex="1">
          <mxGeometry x="46" y="284" width="102" height="36" as="geometry" />
        </mxCell>
        <mxCell id="YxpuxXp5-XK3YFgYWokH-44" value="Cancel" style="html=1;shadow=0;dashed=0;shape=mxgraph.bootstrap.rrect;rSize=5;fillColor=#6C757D;strokeColor=none;fontColor=#FFFFFF;fontSize=14;" parent="YxpuxXp5-XK3YFgYWokH-25" vertex="1">
          <mxGeometry x="156.00402733964256" y="284" width="70" height="36" as="geometry" />
        </mxCell>
        <mxCell id="uLN24a1T_LNBRFhIugJr-2" value="Eva Smart Upload" style="html=1;shadow=0;dashed=0;shape=mxgraph.bootstrap.rrect;rSize=5;html=1;strokeColor=#C8C8C8;fillColor=#ffffff;whiteSpace=wrap;verticalAlign=top;align=left;fontSize=18;spacing=15;spacingTop=-5;" parent="IsJ_MTZ3b37aoJfhhxWW-1" vertex="1">
          <mxGeometry x="1660" y="2750.5" width="490" height="560" as="geometry" />
        </mxCell>
        <mxCell id="uLN24a1T_LNBRFhIugJr-3" value="" style="shape=line;strokeColor=#dddddd;resizeWidth=1;" parent="uLN24a1T_LNBRFhIugJr-2" vertex="1">
          <mxGeometry width="490.00000000000006" height="10" relative="1" as="geometry">
            <mxPoint y="50" as="offset" />
          </mxGeometry>
        </mxCell>
        <mxCell id="uLN24a1T_LNBRFhIugJr-4" value="" style="html=1;shadow=0;dashed=0;shape=mxgraph.bootstrap.x;strokeColor=#868686;strokeWidth=2;" parent="uLN24a1T_LNBRFhIugJr-2" vertex="1">
          <mxGeometry x="1" width="8" height="8" relative="1" as="geometry">
            <mxPoint x="-24" y="20" as="offset" />
          </mxGeometry>
        </mxCell>
        <mxCell id="uLN24a1T_LNBRFhIugJr-5" value="" style="shape=line;strokeColor=#dddddd;resizeWidth=1;" parent="uLN24a1T_LNBRFhIugJr-2" vertex="1">
          <mxGeometry width="490.00000000000006" height="10" relative="1" as="geometry">
            <mxPoint y="480" as="offset" />
          </mxGeometry>
        </mxCell>
        <mxCell id="uLN24a1T_LNBRFhIugJr-6" value="Proceed" style="html=1;shadow=0;dashed=0;shape=mxgraph.bootstrap.rrect;rSize=5;fillColor=#0085FC;strokeColor=none;fontColor=#FFFFFF;fontSize=14;" parent="uLN24a1T_LNBRFhIugJr-2" vertex="1">
          <mxGeometry x="1" y="1" width="110" height="40" relative="1" as="geometry">
            <mxPoint x="-130" y="-60" as="offset" />
          </mxGeometry>
        </mxCell>
        <mxCell id="uLN24a1T_LNBRFhIugJr-7" value="Cancel" style="html=1;shadow=0;dashed=0;shape=mxgraph.bootstrap.rrect;rSize=5;fillColor=#6C757D;strokeColor=none;fontColor=#FFFFFF;fontSize=14;" parent="uLN24a1T_LNBRFhIugJr-2" vertex="1">
          <mxGeometry x="1" y="1" width="70" height="40" relative="1" as="geometry">
            <mxPoint x="-220" y="-60" as="offset" />
          </mxGeometry>
        </mxCell>
        <mxCell id="uLN24a1T_LNBRFhIugJr-8" value="1" style="shape=ellipse;strokeColor=none;fontColor=#ffffff;fillColor=#9E9E9E;" parent="uLN24a1T_LNBRFhIugJr-2" vertex="1">
          <mxGeometry x="10" y="100" width="24" height="24" as="geometry" />
        </mxCell>
        <mxCell id="uLN24a1T_LNBRFhIugJr-9" value="Processing Options" style="shape=rect;strokeColor=none;fillColor=none;align=left;fontStyle=0;fontColor=#9E9E9E;" parent="uLN24a1T_LNBRFhIugJr-2" vertex="1">
          <mxGeometry x="46" y="100" width="200" height="24" as="geometry" />
        </mxCell>
        <mxCell id="uLN24a1T_LNBRFhIugJr-10" value="2" style="shape=ellipse;strokeColor=none;fontColor=#ffffff;fillColor=#0085FC;" parent="uLN24a1T_LNBRFhIugJr-2" vertex="1">
          <mxGeometry x="10" y="160" width="24" height="24" as="geometry" />
        </mxCell>
        <mxCell id="uLN24a1T_LNBRFhIugJr-11" value="Routing" style="shape=rect;strokeColor=none;fillColor=none;align=left;fontStyle=1" parent="uLN24a1T_LNBRFhIugJr-2" vertex="1">
          <mxGeometry x="46" y="160" width="200" height="24" as="geometry" />
        </mxCell>
        <mxCell id="uLN24a1T_LNBRFhIugJr-12" value="3" style="shape=ellipse;strokeColor=none;fillColor=#9e9e9e;fontColor=#ffffff;" parent="uLN24a1T_LNBRFhIugJr-2" vertex="1">
          <mxGeometry x="10" y="326" width="24" height="24" as="geometry" />
        </mxCell>
        <mxCell id="uLN24a1T_LNBRFhIugJr-13" value="Certification and Authorization" style="shape=rect;strokeColor=none;fillColor=none;align=left;fontColor=#aaaaaa;" parent="uLN24a1T_LNBRFhIugJr-2" vertex="1">
          <mxGeometry x="46" y="326" width="200" height="24" as="geometry" />
        </mxCell>
        <mxCell id="uLN24a1T_LNBRFhIugJr-14" value="" style="shape=line;direction=north;strokeColor=#b3b3b3;" parent="uLN24a1T_LNBRFhIugJr-2" vertex="1">
          <mxGeometry x="17" y="130" width="10" height="25" as="geometry" />
        </mxCell>
        <mxCell id="uLN24a1T_LNBRFhIugJr-15" value="You have started to upload files into Eva.&amp;nbsp; If you did not intend to upload these files please click cancel now.&amp;nbsp; If you would like to continue with the upload please provide Eva with a little bit of additional information.&amp;nbsp;&amp;nbsp;" style="text;html=1;strokeColor=none;fillColor=none;align=left;verticalAlign=top;whiteSpace=wrap;rounded=0;shadow=1;dashed=1;labelBackgroundColor=none;sketch=0;fontSize=9;opacity=30;" parent="uLN24a1T_LNBRFhIugJr-2" vertex="1">
          <mxGeometry x="10" y="60" width="470" height="40" as="geometry" />
        </mxCell>
        <mxCell id="uLN24a1T_LNBRFhIugJr-16" value="" style="shape=line;direction=north;strokeColor=#b3b3b3;" parent="uLN24a1T_LNBRFhIugJr-2" vertex="1">
          <mxGeometry x="17" y="190" width="10" height="130" as="geometry" />
        </mxCell>
        <mxCell id="uLN24a1T_LNBRFhIugJr-17" value="Select Folder Name" style="rounded=1;fillColor=#F1F2F4;strokeColor=none;html=1;fontColor=#596780;align=left;fontSize=12;spacingLeft=10;shadow=0;sketch=0;" parent="uLN24a1T_LNBRFhIugJr-2" vertex="1">
          <mxGeometry x="46" y="190" width="424" height="30" as="geometry" />
        </mxCell>
        <mxCell id="uLN24a1T_LNBRFhIugJr-18" value="" style="shape=triangle;direction=south;fillColor=#596780;strokeColor=none;html=1" parent="uLN24a1T_LNBRFhIugJr-17" vertex="1">
          <mxGeometry x="1" y="0.5" width="12" height="6" relative="1" as="geometry">
            <mxPoint x="-20" y="-3" as="offset" />
          </mxGeometry>
        </mxCell>
        <mxCell id="uLN24a1T_LNBRFhIugJr-20" value="&lt;b&gt;OR&lt;/b&gt;" style="text;html=1;strokeColor=none;fillColor=none;align=left;verticalAlign=middle;whiteSpace=wrap;rounded=0;shadow=1;dashed=1;labelBackgroundColor=none;sketch=0;fontSize=9;fontColor=#000000;opacity=30;" parent="uLN24a1T_LNBRFhIugJr-2" vertex="1">
          <mxGeometry x="46" y="220" width="40" height="20" as="geometry" />
        </mxCell>
        <mxCell id="uLN24a1T_LNBRFhIugJr-21" value="Next" style="shape=rect;strokeColor=none;fillColor=#4285f4;fontColor=#ffffff;rounded=1;" parent="uLN24a1T_LNBRFhIugJr-2" vertex="1">
          <mxGeometry x="46" y="284" width="102" height="36" as="geometry" />
        </mxCell>
        <mxCell id="uLN24a1T_LNBRFhIugJr-22" value="Cancel" style="html=1;shadow=0;dashed=0;shape=mxgraph.bootstrap.rrect;rSize=5;fillColor=#6C757D;strokeColor=none;fontColor=#FFFFFF;fontSize=14;" parent="uLN24a1T_LNBRFhIugJr-2" vertex="1">
          <mxGeometry x="156.00402733964256" y="284" width="70" height="36" as="geometry" />
        </mxCell>
        <mxCell id="uLN24a1T_LNBRFhIugJr-23" value="Create New Folder" style="html=1;shadow=0;dashed=0;shape=mxgraph.bootstrap.rrect;rSize=5;strokeColor=#CED4DA;html=1;whiteSpace=wrap;fillColor=#FFFFFF;fontColor=#7D868C;align=left;spacing=2;spacingLeft=10;fontSize=12;" parent="uLN24a1T_LNBRFhIugJr-2" vertex="1">
          <mxGeometry x="46" y="240" width="420" height="30" as="geometry" />
        </mxCell>
        <mxCell id="uLN24a1T_LNBRFhIugJr-24" value="" style="rounded=0;whiteSpace=wrap;html=1;strokeColor=#000000;fillColor=#F8F9FA;" parent="IsJ_MTZ3b37aoJfhhxWW-1" vertex="1">
          <mxGeometry x="60" y="3521" width="984" height="719" as="geometry" />
        </mxCell>
        <mxCell id="uLN24a1T_LNBRFhIugJr-25" value="" style="rounded=1;whiteSpace=wrap;html=1;shadow=1;labelBackgroundColor=#FFFFFF;sketch=0;gradientColor=none;fontSize=9;fontColor=#FFFFFF;opacity=30;align=left;arcSize=4;dashed=1;fillColor=#DFDFDF;" parent="IsJ_MTZ3b37aoJfhhxWW-1" vertex="1">
          <mxGeometry x="70" y="3540" width="960" height="670" as="geometry" />
        </mxCell>
        <mxCell id="uLN24a1T_LNBRFhIugJr-26" value="" style="shape=image;html=1;verticalAlign=top;verticalLabelPosition=bottom;labelBackgroundColor=#D0D0D0;imageAspect=0;aspect=fixed;image=https://cdn1.iconfinder.com/data/icons/jumpicon-basic-ui-glyph-1/32/-_Cloud-Computing-Data-Server-Upload-128.png;shadow=1;strokeColor=#D0D0D0;fillColor=#D0D0D0;gradientColor=none;fontSize=9;fontColor=#D0D0D0;align=left;sketch=0;opacity=30;" parent="IsJ_MTZ3b37aoJfhhxWW-1" vertex="1">
          <mxGeometry x="448" y="3800" width="208" height="208" as="geometry" />
        </mxCell>
        <mxCell id="uLN24a1T_LNBRFhIugJr-27" value="" style="rounded=0;whiteSpace=wrap;html=1;fillColor=#3333FF;" parent="IsJ_MTZ3b37aoJfhhxWW-1" vertex="1">
          <mxGeometry x="60" y="3460" width="984" height="61" as="geometry" />
        </mxCell>
        <mxCell id="uLN24a1T_LNBRFhIugJr-28" value="&lt;font style=&quot;font-size: 14px&quot;&gt;FEEDBACK&lt;/font&gt;" style="rounded=1;whiteSpace=wrap;html=1;fillColor=#FF8000;strokeColor=#FF8000;fontColor=#FFFFFF;" parent="IsJ_MTZ3b37aoJfhhxWW-1" vertex="1">
          <mxGeometry x="910" y="3470.5" width="120" height="40" as="geometry" />
        </mxCell>
        <mxCell id="uLN24a1T_LNBRFhIugJr-29" value="" style="shape=image;html=1;verticalAlign=top;verticalLabelPosition=bottom;labelBackgroundColor=#ffffff;imageAspect=0;aspect=fixed;image=https://cdn3.iconfinder.com/data/icons/social-media-2125/78/bell-128.png;strokeColor=#FF8000;fillColor=#FF8000;fontColor=#FFFFFF;" parent="IsJ_MTZ3b37aoJfhhxWW-1" vertex="1">
          <mxGeometry x="856" y="3472" width="37" height="37" as="geometry" />
        </mxCell>
        <mxCell id="uLN24a1T_LNBRFhIugJr-30" value="" style="whiteSpace=wrap;html=1;shape=mxgraph.basic.octagon2;align=center;verticalAlign=middle;dx=12;shadow=0;sketch=0;fontSize=20;fontColor=#808080;fillColor=#FF8000;strokeColor=#FF8000;" parent="IsJ_MTZ3b37aoJfhhxWW-1" vertex="1">
          <mxGeometry x="70" y="3466.5" width="56" height="42" as="geometry" />
        </mxCell>
        <mxCell id="uLN24a1T_LNBRFhIugJr-31" value="Eva" style="text;html=1;strokeColor=none;fillColor=none;align=center;verticalAlign=middle;whiteSpace=wrap;rounded=0;shadow=0;sketch=0;fontSize=20;fontColor=#FFFFFF;fontStyle=1" parent="IsJ_MTZ3b37aoJfhhxWW-1" vertex="1">
          <mxGeometry x="136" y="3480" width="40" height="20" as="geometry" />
        </mxCell>
        <mxCell id="uLN24a1T_LNBRFhIugJr-32" value="" style="html=1;verticalLabelPosition=bottom;align=center;labelBackgroundColor=#ffffff;verticalAlign=top;strokeWidth=2;shadow=0;dashed=0;shape=mxgraph.ios7.icons.user;sketch=0;fontSize=20;fontColor=#FFFFFF;fillColor=#FFFFFF;" parent="IsJ_MTZ3b37aoJfhhxWW-1" vertex="1">
          <mxGeometry x="704" y="3477" width="30" height="30" as="geometry" />
        </mxCell>
        <mxCell id="uLN24a1T_LNBRFhIugJr-33" value="John Doe" style="text;html=1;strokeColor=none;fillColor=none;align=center;verticalAlign=middle;whiteSpace=wrap;rounded=0;shadow=0;sketch=0;fontSize=19;fontColor=#FFFFFF;" parent="IsJ_MTZ3b37aoJfhhxWW-1" vertex="1">
          <mxGeometry x="747.5" y="3482" width="94" height="20" as="geometry" />
        </mxCell>
        <mxCell id="uLN24a1T_LNBRFhIugJr-34" value="&amp;lt;Classification Here&amp;gt;" style="rounded=0;whiteSpace=wrap;html=1;shadow=0;sketch=0;fontSize=12;align=center;fillColor=#FFFF33;" parent="IsJ_MTZ3b37aoJfhhxWW-1" vertex="1">
          <mxGeometry x="60" y="3440" width="984" height="20" as="geometry" />
        </mxCell>
        <mxCell id="uLN24a1T_LNBRFhIugJr-35" value="Eva Smart Upload" style="html=1;shadow=0;dashed=0;shape=mxgraph.bootstrap.rrect;rSize=5;html=1;strokeColor=#C8C8C8;fillColor=#ffffff;whiteSpace=wrap;verticalAlign=top;align=left;fontSize=18;spacing=15;spacingTop=-5;" parent="IsJ_MTZ3b37aoJfhhxWW-1" vertex="1">
          <mxGeometry x="1140" y="3600.5" width="490" height="560" as="geometry" />
        </mxCell>
        <mxCell id="uLN24a1T_LNBRFhIugJr-36" value="" style="shape=line;strokeColor=#dddddd;resizeWidth=1;" parent="uLN24a1T_LNBRFhIugJr-35" vertex="1">
          <mxGeometry width="490.00000000000006" height="10" relative="1" as="geometry">
            <mxPoint y="50" as="offset" />
          </mxGeometry>
        </mxCell>
        <mxCell id="uLN24a1T_LNBRFhIugJr-37" value="" style="html=1;shadow=0;dashed=0;shape=mxgraph.bootstrap.x;strokeColor=#868686;strokeWidth=2;" parent="uLN24a1T_LNBRFhIugJr-35" vertex="1">
          <mxGeometry x="1" width="8" height="8" relative="1" as="geometry">
            <mxPoint x="-24" y="20" as="offset" />
          </mxGeometry>
        </mxCell>
        <mxCell id="uLN24a1T_LNBRFhIugJr-38" value="" style="shape=line;strokeColor=#dddddd;resizeWidth=1;" parent="uLN24a1T_LNBRFhIugJr-35" vertex="1">
          <mxGeometry width="490.00000000000006" height="10" relative="1" as="geometry">
            <mxPoint y="480" as="offset" />
          </mxGeometry>
        </mxCell>
        <mxCell id="uLN24a1T_LNBRFhIugJr-39" value="Proceed" style="html=1;shadow=0;dashed=0;shape=mxgraph.bootstrap.rrect;rSize=5;fillColor=#0085FC;strokeColor=none;fontColor=#FFFFFF;fontSize=14;" parent="uLN24a1T_LNBRFhIugJr-35" vertex="1">
          <mxGeometry x="1" y="1" width="110" height="40" relative="1" as="geometry">
            <mxPoint x="-130" y="-60" as="offset" />
          </mxGeometry>
        </mxCell>
        <mxCell id="uLN24a1T_LNBRFhIugJr-40" value="Cancel" style="html=1;shadow=0;dashed=0;shape=mxgraph.bootstrap.rrect;rSize=5;fillColor=#6C757D;strokeColor=none;fontColor=#FFFFFF;fontSize=14;" parent="uLN24a1T_LNBRFhIugJr-35" vertex="1">
          <mxGeometry x="1" y="1" width="70" height="40" relative="1" as="geometry">
            <mxPoint x="-220" y="-60" as="offset" />
          </mxGeometry>
        </mxCell>
        <mxCell id="uLN24a1T_LNBRFhIugJr-41" value="1" style="shape=ellipse;strokeColor=none;fontColor=#ffffff;fillColor=#9E9E9E;" parent="uLN24a1T_LNBRFhIugJr-35" vertex="1">
          <mxGeometry x="10" y="100" width="24" height="24" as="geometry" />
        </mxCell>
        <mxCell id="uLN24a1T_LNBRFhIugJr-42" value="Processing Options" style="shape=rect;strokeColor=none;fillColor=none;align=left;fontStyle=0;fontColor=#9E9E9E;" parent="uLN24a1T_LNBRFhIugJr-35" vertex="1">
          <mxGeometry x="46" y="100" width="200" height="24" as="geometry" />
        </mxCell>
        <mxCell id="uLN24a1T_LNBRFhIugJr-43" value="2" style="shape=ellipse;strokeColor=none;fontColor=#ffffff;fillColor=#9E9E9E;" parent="uLN24a1T_LNBRFhIugJr-35" vertex="1">
          <mxGeometry x="10" y="160" width="24" height="24" as="geometry" />
        </mxCell>
        <mxCell id="uLN24a1T_LNBRFhIugJr-44" value="Routing" style="shape=rect;strokeColor=none;fillColor=none;align=left;fontStyle=0;fontColor=#9E9E9E;" parent="uLN24a1T_LNBRFhIugJr-35" vertex="1">
          <mxGeometry x="46" y="160" width="200" height="24" as="geometry" />
        </mxCell>
        <mxCell id="uLN24a1T_LNBRFhIugJr-45" value="3" style="shape=ellipse;strokeColor=none;fontColor=#ffffff;fillColor=#0085FC;" parent="uLN24a1T_LNBRFhIugJr-35" vertex="1">
          <mxGeometry x="10" y="221.5" width="24" height="24" as="geometry" />
        </mxCell>
        <mxCell id="uLN24a1T_LNBRFhIugJr-46" value="Certification and Authorization" style="shape=rect;strokeColor=none;fillColor=none;align=left;fontStyle=1" parent="uLN24a1T_LNBRFhIugJr-35" vertex="1">
          <mxGeometry x="46" y="221.5" width="200" height="24" as="geometry" />
        </mxCell>
        <mxCell id="uLN24a1T_LNBRFhIugJr-47" value="" style="shape=line;direction=north;strokeColor=#b3b3b3;" parent="uLN24a1T_LNBRFhIugJr-35" vertex="1">
          <mxGeometry x="17" y="130" width="10" height="25" as="geometry" />
        </mxCell>
        <mxCell id="uLN24a1T_LNBRFhIugJr-48" value="You have started to upload files into Eva.&amp;nbsp; If you did not intend to upload these files please click cancel now.&amp;nbsp; If you would like to continue with the upload please provide Eva with a little bit of additional information.&amp;nbsp;&amp;nbsp;" style="text;html=1;strokeColor=none;fillColor=none;align=left;verticalAlign=top;whiteSpace=wrap;rounded=0;shadow=1;dashed=1;labelBackgroundColor=none;sketch=0;fontSize=9;opacity=30;" parent="uLN24a1T_LNBRFhIugJr-35" vertex="1">
          <mxGeometry x="10" y="60" width="470" height="40" as="geometry" />
        </mxCell>
        <mxCell id="uLN24a1T_LNBRFhIugJr-79" value="" style="shape=line;direction=north;strokeColor=#b3b3b3;" parent="uLN24a1T_LNBRFhIugJr-35" vertex="1">
          <mxGeometry x="17" y="189.5" width="10" height="25" as="geometry" />
        </mxCell>
        <mxCell id="uLN24a1T_LNBRFhIugJr-49" value="" style="shape=line;direction=north;strokeColor=#b3b3b3;" parent="uLN24a1T_LNBRFhIugJr-35" vertex="1">
          <mxGeometry x="17" y="249.5" width="10" height="190.5" as="geometry" />
        </mxCell>
        <mxCell id="uLN24a1T_LNBRFhIugJr-56" value="I John McClane, certify that I am authorized to upload this data.&amp;nbsp;&amp;nbsp;" style="text;html=1;strokeColor=none;fillColor=none;align=left;verticalAlign=top;whiteSpace=wrap;rounded=0;shadow=1;dashed=1;labelBackgroundColor=none;sketch=0;fontSize=9;opacity=30;" parent="uLN24a1T_LNBRFhIugJr-35" vertex="1">
          <mxGeometry x="70" y="419.5" width="400" height="20" as="geometry" />
        </mxCell>
        <mxCell id="uLN24a1T_LNBRFhIugJr-57" value="" style="html=1;shadow=0;dashed=0;shape=mxgraph.atlassian.checkbox_2;fillColor=#0057D8;strokeColor=none;align=left;verticalAlign=middle;fontStyle=0;fontSize=12;labelPosition=right;verticalLabelPosition=middle;spacingLeft=10;rounded=1;sketch=0;" parent="uLN24a1T_LNBRFhIugJr-35" vertex="1">
          <mxGeometry x="46" y="423.5" width="12.000000000000002" height="12" as="geometry" />
        </mxCell>
        <mxCell id="uLN24a1T_LNBRFhIugJr-80" value="You have chosen to upload these collection of files into the&amp;nbsp;&lt;font style=&quot;font-weight: bold ; font-size: 11px&quot;&gt;(U) ABD Secrete Squirrel Dataset 2020 &lt;/font&gt;&lt;font style=&quot;font-size: 9px&quot;&gt;&lt;b&gt;dataset&lt;/b&gt;&lt;/font&gt;.&amp;nbsp; Once you click proceed these files will begin an automated process, to ensure these files have the appropriate metatada.&amp;nbsp; Please check the reprocessor page for any failures from your upload" style="text;html=1;strokeColor=none;fillColor=none;align=left;verticalAlign=top;whiteSpace=wrap;rounded=0;shadow=1;dashed=1;labelBackgroundColor=none;sketch=0;fontSize=9;opacity=30;" parent="uLN24a1T_LNBRFhIugJr-35" vertex="1">
          <mxGeometry x="46" y="249.5" width="424" height="100.5" as="geometry" />
        </mxCell>
        <mxCell id="pnVAfCxwNO1ZCe6ARC8F-0" value="Eva Smart Upload" style="html=1;shadow=0;dashed=0;shape=mxgraph.bootstrap.rrect;rSize=5;html=1;strokeColor=#C8C8C8;fillColor=#ffffff;whiteSpace=wrap;verticalAlign=top;align=left;fontSize=18;spacing=15;spacingTop=-5;" parent="IsJ_MTZ3b37aoJfhhxWW-1" vertex="1">
          <mxGeometry x="1670" y="3600.5" width="490" height="560" as="geometry" />
        </mxCell>
        <mxCell id="pnVAfCxwNO1ZCe6ARC8F-1" value="" style="shape=line;strokeColor=#dddddd;resizeWidth=1;" parent="pnVAfCxwNO1ZCe6ARC8F-0" vertex="1">
          <mxGeometry width="490.00000000000006" height="10" relative="1" as="geometry">
            <mxPoint y="50" as="offset" />
          </mxGeometry>
        </mxCell>
        <mxCell id="pnVAfCxwNO1ZCe6ARC8F-2" value="" style="html=1;shadow=0;dashed=0;shape=mxgraph.bootstrap.x;strokeColor=#868686;strokeWidth=2;" parent="pnVAfCxwNO1ZCe6ARC8F-0" vertex="1">
          <mxGeometry x="1" width="8" height="8" relative="1" as="geometry">
            <mxPoint x="-24" y="20" as="offset" />
          </mxGeometry>
        </mxCell>
        <mxCell id="pnVAfCxwNO1ZCe6ARC8F-3" value="" style="shape=line;strokeColor=#dddddd;resizeWidth=1;" parent="pnVAfCxwNO1ZCe6ARC8F-0" vertex="1">
          <mxGeometry width="490.00000000000006" height="10" relative="1" as="geometry">
            <mxPoint y="480" as="offset" />
          </mxGeometry>
        </mxCell>
        <mxCell id="pnVAfCxwNO1ZCe6ARC8F-4" value="Proceed" style="html=1;shadow=0;dashed=0;shape=mxgraph.bootstrap.rrect;rSize=5;fillColor=#0085FC;strokeColor=none;fontColor=#FFFFFF;fontSize=14;" parent="pnVAfCxwNO1ZCe6ARC8F-0" vertex="1">
          <mxGeometry x="1" y="1" width="110" height="40" relative="1" as="geometry">
            <mxPoint x="-130" y="-60" as="offset" />
          </mxGeometry>
        </mxCell>
        <mxCell id="pnVAfCxwNO1ZCe6ARC8F-5" value="Cancel" style="html=1;shadow=0;dashed=0;shape=mxgraph.bootstrap.rrect;rSize=5;fillColor=#6C757D;strokeColor=none;fontColor=#FFFFFF;fontSize=14;" parent="pnVAfCxwNO1ZCe6ARC8F-0" vertex="1">
          <mxGeometry x="1" y="1" width="70" height="40" relative="1" as="geometry">
            <mxPoint x="-220" y="-60" as="offset" />
          </mxGeometry>
        </mxCell>
        <mxCell id="pnVAfCxwNO1ZCe6ARC8F-6" value="1" style="shape=ellipse;strokeColor=none;fontColor=#ffffff;fillColor=#9E9E9E;" parent="pnVAfCxwNO1ZCe6ARC8F-0" vertex="1">
          <mxGeometry x="10" y="100" width="24" height="24" as="geometry" />
        </mxCell>
        <mxCell id="pnVAfCxwNO1ZCe6ARC8F-7" value="Processing Options" style="shape=rect;strokeColor=none;fillColor=none;align=left;fontStyle=0;fontColor=#9E9E9E;" parent="pnVAfCxwNO1ZCe6ARC8F-0" vertex="1">
          <mxGeometry x="46" y="100" width="200" height="24" as="geometry" />
        </mxCell>
        <mxCell id="pnVAfCxwNO1ZCe6ARC8F-8" value="2" style="shape=ellipse;strokeColor=none;fontColor=#ffffff;fillColor=#9E9E9E;" parent="pnVAfCxwNO1ZCe6ARC8F-0" vertex="1">
          <mxGeometry x="10" y="160" width="24" height="24" as="geometry" />
        </mxCell>
        <mxCell id="pnVAfCxwNO1ZCe6ARC8F-9" value="Routing" style="shape=rect;strokeColor=none;fillColor=none;align=left;fontStyle=0;fontColor=#9E9E9E;" parent="pnVAfCxwNO1ZCe6ARC8F-0" vertex="1">
          <mxGeometry x="46" y="160" width="200" height="24" as="geometry" />
        </mxCell>
        <mxCell id="pnVAfCxwNO1ZCe6ARC8F-10" value="3" style="shape=ellipse;strokeColor=none;fontColor=#ffffff;fillColor=#0085FC;" parent="pnVAfCxwNO1ZCe6ARC8F-0" vertex="1">
          <mxGeometry x="10" y="221.5" width="24" height="24" as="geometry" />
        </mxCell>
        <mxCell id="pnVAfCxwNO1ZCe6ARC8F-11" value="Certification and Authorization" style="shape=rect;strokeColor=none;fillColor=none;align=left;fontStyle=1" parent="pnVAfCxwNO1ZCe6ARC8F-0" vertex="1">
          <mxGeometry x="46" y="221.5" width="200" height="24" as="geometry" />
        </mxCell>
        <mxCell id="pnVAfCxwNO1ZCe6ARC8F-12" value="" style="shape=line;direction=north;strokeColor=#b3b3b3;" parent="pnVAfCxwNO1ZCe6ARC8F-0" vertex="1">
          <mxGeometry x="17" y="130" width="10" height="25" as="geometry" />
        </mxCell>
        <mxCell id="pnVAfCxwNO1ZCe6ARC8F-13" value="You have started to upload files into Eva.&amp;nbsp; If you did not intend to upload these files please click cancel now.&amp;nbsp; If you would like to continue with the upload please provide Eva with a little bit of additional information.&amp;nbsp;&amp;nbsp;" style="text;html=1;strokeColor=none;fillColor=none;align=left;verticalAlign=top;whiteSpace=wrap;rounded=0;shadow=1;dashed=1;labelBackgroundColor=none;sketch=0;fontSize=9;opacity=30;" parent="pnVAfCxwNO1ZCe6ARC8F-0" vertex="1">
          <mxGeometry x="10" y="60" width="470" height="40" as="geometry" />
        </mxCell>
        <mxCell id="pnVAfCxwNO1ZCe6ARC8F-14" value="" style="shape=line;direction=north;strokeColor=#b3b3b3;" parent="pnVAfCxwNO1ZCe6ARC8F-0" vertex="1">
          <mxGeometry x="17" y="189.5" width="10" height="25" as="geometry" />
        </mxCell>
        <mxCell id="pnVAfCxwNO1ZCe6ARC8F-15" value="" style="shape=line;direction=north;strokeColor=#b3b3b3;" parent="pnVAfCxwNO1ZCe6ARC8F-0" vertex="1">
          <mxGeometry x="17" y="249.5" width="10" height="190.5" as="geometry" />
        </mxCell>
        <mxCell id="pnVAfCxwNO1ZCe6ARC8F-16" value="I John McClane, certify that I am authorized to upload this data.&amp;nbsp;&amp;nbsp;" style="text;html=1;strokeColor=none;fillColor=none;align=left;verticalAlign=top;whiteSpace=wrap;rounded=0;shadow=1;dashed=1;labelBackgroundColor=none;sketch=0;fontSize=9;opacity=30;" parent="pnVAfCxwNO1ZCe6ARC8F-0" vertex="1">
          <mxGeometry x="70" y="419.5" width="400" height="20" as="geometry" />
        </mxCell>
        <mxCell id="pnVAfCxwNO1ZCe6ARC8F-17" value="" style="html=1;shadow=0;dashed=0;shape=mxgraph.atlassian.checkbox_2;fillColor=#0057D8;strokeColor=none;align=left;verticalAlign=middle;fontStyle=0;fontSize=12;labelPosition=right;verticalLabelPosition=middle;spacingLeft=10;rounded=1;sketch=0;" parent="pnVAfCxwNO1ZCe6ARC8F-0" vertex="1">
          <mxGeometry x="46" y="423.5" width="12.000000000000002" height="12" as="geometry" />
        </mxCell>
        <mxCell id="pnVAfCxwNO1ZCe6ARC8F-18" value="You have chosen to upload these collection of files into the&amp;nbsp;&lt;font&gt;&lt;b style=&quot;font-size: 11px&quot;&gt;Warehouse January 2021 &lt;/b&gt;&lt;font style=&quot;font-size: 9px&quot;&gt;folder&lt;/font&gt;&lt;/font&gt;.&amp;nbsp; Once you click proceed these files will begin an automated process, which will move these files into the folder you selected.&amp;nbsp; Once the files are in place, you will have six months to move these files into another location, before the bucket policy moves the files into long term storage.&amp;nbsp; Please note the costs to retrieve the objects from long term storage go up significantly as does the amount of time it takes to retrieve these files.&amp;nbsp; After an additional six month in long term storage the files will be deleted.&amp;nbsp; You will receive notifications as you reach each milestone in the process.&amp;nbsp; &amp;nbsp;" style="text;html=1;strokeColor=none;fillColor=none;align=left;verticalAlign=top;whiteSpace=wrap;rounded=0;shadow=1;dashed=1;labelBackgroundColor=none;sketch=0;fontSize=9;opacity=30;" parent="pnVAfCxwNO1ZCe6ARC8F-0" vertex="1">
          <mxGeometry x="46" y="249.5" width="424" height="100.5" as="geometry" />
        </mxCell>
        <mxCell id="THTEg2EI7KLqDR-8xR3u-0" value="Eva Smart Upload" style="html=1;shadow=0;dashed=0;shape=mxgraph.bootstrap.rrect;rSize=5;html=1;strokeColor=#C8C8C8;fillColor=#ffffff;whiteSpace=wrap;verticalAlign=top;align=left;fontSize=18;spacing=15;spacingTop=-5;" parent="IsJ_MTZ3b37aoJfhhxWW-1" vertex="1">
          <mxGeometry x="2200" y="3600.5" width="490" height="560" as="geometry" />
        </mxCell>
        <mxCell id="THTEg2EI7KLqDR-8xR3u-1" value="" style="shape=line;strokeColor=#dddddd;resizeWidth=1;" parent="THTEg2EI7KLqDR-8xR3u-0" vertex="1">
          <mxGeometry width="490.00000000000006" height="10" relative="1" as="geometry">
            <mxPoint y="50" as="offset" />
          </mxGeometry>
        </mxCell>
        <mxCell id="THTEg2EI7KLqDR-8xR3u-2" value="" style="html=1;shadow=0;dashed=0;shape=mxgraph.bootstrap.x;strokeColor=#868686;strokeWidth=2;" parent="THTEg2EI7KLqDR-8xR3u-0" vertex="1">
          <mxGeometry x="1" width="8" height="8" relative="1" as="geometry">
            <mxPoint x="-24" y="20" as="offset" />
          </mxGeometry>
        </mxCell>
        <mxCell id="THTEg2EI7KLqDR-8xR3u-3" value="" style="shape=line;strokeColor=#dddddd;resizeWidth=1;" parent="THTEg2EI7KLqDR-8xR3u-0" vertex="1">
          <mxGeometry width="490.00000000000006" height="10" relative="1" as="geometry">
            <mxPoint y="480" as="offset" />
          </mxGeometry>
        </mxCell>
        <mxCell id="THTEg2EI7KLqDR-8xR3u-4" value="Proceed" style="html=1;shadow=0;dashed=0;shape=mxgraph.bootstrap.rrect;rSize=5;fillColor=#0085FC;strokeColor=none;fontColor=#FFFFFF;fontSize=14;" parent="THTEg2EI7KLqDR-8xR3u-0" vertex="1">
          <mxGeometry x="1" y="1" width="110" height="40" relative="1" as="geometry">
            <mxPoint x="-130" y="-60" as="offset" />
          </mxGeometry>
        </mxCell>
        <mxCell id="THTEg2EI7KLqDR-8xR3u-5" value="Cancel" style="html=1;shadow=0;dashed=0;shape=mxgraph.bootstrap.rrect;rSize=5;fillColor=#6C757D;strokeColor=none;fontColor=#FFFFFF;fontSize=14;" parent="THTEg2EI7KLqDR-8xR3u-0" vertex="1">
          <mxGeometry x="1" y="1" width="70" height="40" relative="1" as="geometry">
            <mxPoint x="-220" y="-60" as="offset" />
          </mxGeometry>
        </mxCell>
        <mxCell id="THTEg2EI7KLqDR-8xR3u-6" value="1" style="shape=ellipse;strokeColor=none;fontColor=#ffffff;fillColor=#9E9E9E;" parent="THTEg2EI7KLqDR-8xR3u-0" vertex="1">
          <mxGeometry x="10" y="100" width="24" height="24" as="geometry" />
        </mxCell>
        <mxCell id="THTEg2EI7KLqDR-8xR3u-7" value="Processing Options" style="shape=rect;strokeColor=none;fillColor=none;align=left;fontStyle=0;fontColor=#9E9E9E;" parent="THTEg2EI7KLqDR-8xR3u-0" vertex="1">
          <mxGeometry x="46" y="100" width="200" height="24" as="geometry" />
        </mxCell>
        <mxCell id="THTEg2EI7KLqDR-8xR3u-8" value="2" style="shape=ellipse;strokeColor=none;fontColor=#ffffff;fillColor=#9E9E9E;" parent="THTEg2EI7KLqDR-8xR3u-0" vertex="1">
          <mxGeometry x="10" y="160" width="24" height="24" as="geometry" />
        </mxCell>
        <mxCell id="THTEg2EI7KLqDR-8xR3u-9" value="Routing" style="shape=rect;strokeColor=none;fillColor=none;align=left;fontStyle=0;fontColor=#9E9E9E;" parent="THTEg2EI7KLqDR-8xR3u-0" vertex="1">
          <mxGeometry x="46" y="160" width="200" height="24" as="geometry" />
        </mxCell>
        <mxCell id="THTEg2EI7KLqDR-8xR3u-10" value="3" style="shape=ellipse;strokeColor=none;fontColor=#ffffff;fillColor=#0085FC;" parent="THTEg2EI7KLqDR-8xR3u-0" vertex="1">
          <mxGeometry x="10" y="221.5" width="24" height="24" as="geometry" />
        </mxCell>
        <mxCell id="THTEg2EI7KLqDR-8xR3u-11" value="Certification and Authorization" style="shape=rect;strokeColor=none;fillColor=none;align=left;fontStyle=1" parent="THTEg2EI7KLqDR-8xR3u-0" vertex="1">
          <mxGeometry x="46" y="221.5" width="200" height="24" as="geometry" />
        </mxCell>
        <mxCell id="THTEg2EI7KLqDR-8xR3u-12" value="" style="shape=line;direction=north;strokeColor=#b3b3b3;" parent="THTEg2EI7KLqDR-8xR3u-0" vertex="1">
          <mxGeometry x="17" y="130" width="10" height="25" as="geometry" />
        </mxCell>
        <mxCell id="THTEg2EI7KLqDR-8xR3u-13" value="You have started to upload files into Eva.&amp;nbsp; If you did not intend to upload these files please click cancel now.&amp;nbsp; If you would like to continue with the upload please provide Eva with a little bit of additional information.&amp;nbsp;&amp;nbsp;" style="text;html=1;strokeColor=none;fillColor=none;align=left;verticalAlign=top;whiteSpace=wrap;rounded=0;shadow=1;dashed=1;labelBackgroundColor=none;sketch=0;fontSize=9;opacity=30;" parent="THTEg2EI7KLqDR-8xR3u-0" vertex="1">
          <mxGeometry x="10" y="60" width="470" height="40" as="geometry" />
        </mxCell>
        <mxCell id="THTEg2EI7KLqDR-8xR3u-14" value="" style="shape=line;direction=north;strokeColor=#b3b3b3;" parent="THTEg2EI7KLqDR-8xR3u-0" vertex="1">
          <mxGeometry x="17" y="189.5" width="10" height="25" as="geometry" />
        </mxCell>
        <mxCell id="THTEg2EI7KLqDR-8xR3u-15" value="" style="shape=line;direction=north;strokeColor=#b3b3b3;" parent="THTEg2EI7KLqDR-8xR3u-0" vertex="1">
          <mxGeometry x="17" y="249.5" width="10" height="190.5" as="geometry" />
        </mxCell>
        <mxCell id="THTEg2EI7KLqDR-8xR3u-16" value="I John McClane, certify that I am authorized to upload this data.&amp;nbsp;&amp;nbsp;" style="text;html=1;strokeColor=none;fillColor=none;align=left;verticalAlign=top;whiteSpace=wrap;rounded=0;shadow=1;dashed=1;labelBackgroundColor=none;sketch=0;fontSize=9;opacity=30;" parent="THTEg2EI7KLqDR-8xR3u-0" vertex="1">
          <mxGeometry x="70" y="419.5" width="400" height="20" as="geometry" />
        </mxCell>
        <mxCell id="THTEg2EI7KLqDR-8xR3u-17" value="" style="html=1;shadow=0;dashed=0;shape=mxgraph.atlassian.checkbox_2;fillColor=#0057D8;strokeColor=none;align=left;verticalAlign=middle;fontStyle=0;fontSize=12;labelPosition=right;verticalLabelPosition=middle;spacingLeft=10;rounded=1;sketch=0;" parent="THTEg2EI7KLqDR-8xR3u-0" vertex="1">
          <mxGeometry x="46" y="423.5" width="12.000000000000002" height="12" as="geometry" />
        </mxCell>
        <mxCell id="THTEg2EI7KLqDR-8xR3u-18" value="You have chosen to allow Eva to route these files into the appropriate location based on attributes about the objects.&amp;nbsp; &lt;br&gt;&lt;br&gt;Files that meet the standard &amp;lt;thing1&amp;gt;_&amp;lt;thing2&amp;gt;_&amp;lt;thing3&amp;gt; or the xxxxxxx.zip format will be routed to the appropriate dataset, assuming it exits.&amp;nbsp; If the dataset does not yet exist, the files will be visible in the reprocess page, where you will be given the opportunity to &quot;auto-create&quot; the appropriate dataset(s).&amp;nbsp; Once that dataset(s) is created the tool will attempt to reprocess those files and route them in the the new dataset(s)&lt;br&gt;&lt;br&gt;Files that fail to meet Auto-Eva standards will be placed in &amp;lt;User Name&amp;gt;&amp;lt;Upload Date&amp;gt; Holding Pen folder where you will have six months to move these files into the appropriate dataset.&amp;nbsp;&amp;nbsp;" style="text;html=1;strokeColor=none;fillColor=none;align=left;verticalAlign=top;whiteSpace=wrap;rounded=0;shadow=1;dashed=1;labelBackgroundColor=none;sketch=0;fontSize=9;opacity=30;" parent="THTEg2EI7KLqDR-8xR3u-0" vertex="1">
          <mxGeometry x="46" y="249.5" width="424" height="150.5" as="geometry" />
        </mxCell>
        <mxCell id="THTEg2EI7KLqDR-8xR3u-19" value="Eva Smart Upload" style="html=1;shadow=0;dashed=0;shape=mxgraph.bootstrap.rrect;rSize=5;html=1;strokeColor=#C8C8C8;fillColor=#ffffff;whiteSpace=wrap;verticalAlign=top;align=left;fontSize=18;spacing=15;spacingTop=-5;" parent="IsJ_MTZ3b37aoJfhhxWW-1" vertex="1">
          <mxGeometry x="2220" y="2750" width="490" height="560" as="geometry" />
        </mxCell>
        <mxCell id="THTEg2EI7KLqDR-8xR3u-20" value="" style="shape=line;strokeColor=#dddddd;resizeWidth=1;" parent="THTEg2EI7KLqDR-8xR3u-19" vertex="1">
          <mxGeometry width="490.00000000000006" height="10" relative="1" as="geometry">
            <mxPoint y="50" as="offset" />
          </mxGeometry>
        </mxCell>
        <mxCell id="THTEg2EI7KLqDR-8xR3u-21" value="" style="html=1;shadow=0;dashed=0;shape=mxgraph.bootstrap.x;strokeColor=#868686;strokeWidth=2;" parent="THTEg2EI7KLqDR-8xR3u-19" vertex="1">
          <mxGeometry x="1" width="8" height="8" relative="1" as="geometry">
            <mxPoint x="-24" y="20" as="offset" />
          </mxGeometry>
        </mxCell>
        <mxCell id="THTEg2EI7KLqDR-8xR3u-22" value="" style="shape=line;strokeColor=#dddddd;resizeWidth=1;" parent="THTEg2EI7KLqDR-8xR3u-19" vertex="1">
          <mxGeometry width="490.00000000000006" height="10" relative="1" as="geometry">
            <mxPoint y="480" as="offset" />
          </mxGeometry>
        </mxCell>
        <mxCell id="THTEg2EI7KLqDR-8xR3u-23" value="Proceed" style="html=1;shadow=0;dashed=0;shape=mxgraph.bootstrap.rrect;rSize=5;fillColor=#0085FC;strokeColor=none;fontColor=#FFFFFF;fontSize=14;" parent="THTEg2EI7KLqDR-8xR3u-19" vertex="1">
          <mxGeometry x="1" y="1" width="110" height="40" relative="1" as="geometry">
            <mxPoint x="-130" y="-60" as="offset" />
          </mxGeometry>
        </mxCell>
        <mxCell id="THTEg2EI7KLqDR-8xR3u-24" value="Cancel" style="html=1;shadow=0;dashed=0;shape=mxgraph.bootstrap.rrect;rSize=5;fillColor=#6C757D;strokeColor=none;fontColor=#FFFFFF;fontSize=14;" parent="THTEg2EI7KLqDR-8xR3u-19" vertex="1">
          <mxGeometry x="1" y="1" width="70" height="40" relative="1" as="geometry">
            <mxPoint x="-220" y="-60" as="offset" />
          </mxGeometry>
        </mxCell>
        <mxCell id="THTEg2EI7KLqDR-8xR3u-25" value="1" style="shape=ellipse;strokeColor=none;fontColor=#ffffff;fillColor=#9E9E9E;" parent="THTEg2EI7KLqDR-8xR3u-19" vertex="1">
          <mxGeometry x="10" y="100" width="24" height="24" as="geometry" />
        </mxCell>
        <mxCell id="THTEg2EI7KLqDR-8xR3u-26" value="Processing Options" style="shape=rect;strokeColor=none;fillColor=none;align=left;fontStyle=0;fontColor=#9E9E9E;" parent="THTEg2EI7KLqDR-8xR3u-19" vertex="1">
          <mxGeometry x="46" y="100" width="200" height="24" as="geometry" />
        </mxCell>
        <mxCell id="THTEg2EI7KLqDR-8xR3u-27" value="2" style="shape=ellipse;strokeColor=none;fontColor=#ffffff;fillColor=#0085FC;" parent="THTEg2EI7KLqDR-8xR3u-19" vertex="1">
          <mxGeometry x="10" y="160" width="24" height="24" as="geometry" />
        </mxCell>
        <mxCell id="THTEg2EI7KLqDR-8xR3u-28" value="Routing" style="shape=rect;strokeColor=none;fillColor=none;align=left;fontStyle=1" parent="THTEg2EI7KLqDR-8xR3u-19" vertex="1">
          <mxGeometry x="46" y="160" width="200" height="24" as="geometry" />
        </mxCell>
        <mxCell id="THTEg2EI7KLqDR-8xR3u-29" value="3" style="shape=ellipse;strokeColor=none;fillColor=#9e9e9e;fontColor=#ffffff;" parent="THTEg2EI7KLqDR-8xR3u-19" vertex="1">
          <mxGeometry x="10" y="326" width="24" height="24" as="geometry" />
        </mxCell>
        <mxCell id="THTEg2EI7KLqDR-8xR3u-30" value="Certification and Authorization" style="shape=rect;strokeColor=none;fillColor=none;align=left;fontColor=#aaaaaa;" parent="THTEg2EI7KLqDR-8xR3u-19" vertex="1">
          <mxGeometry x="46" y="326" width="200" height="24" as="geometry" />
        </mxCell>
        <mxCell id="THTEg2EI7KLqDR-8xR3u-31" value="" style="shape=line;direction=north;strokeColor=#b3b3b3;" parent="THTEg2EI7KLqDR-8xR3u-19" vertex="1">
          <mxGeometry x="17" y="130" width="10" height="25" as="geometry" />
        </mxCell>
        <mxCell id="THTEg2EI7KLqDR-8xR3u-32" value="You have started to upload files into Eva.&amp;nbsp; If you did not intend to upload these files please click cancel now.&amp;nbsp; If you would like to continue with the upload please provide Eva with a little bit of additional information.&amp;nbsp;&amp;nbsp;" style="text;html=1;strokeColor=none;fillColor=none;align=left;verticalAlign=top;whiteSpace=wrap;rounded=0;shadow=1;dashed=1;labelBackgroundColor=none;sketch=0;fontSize=9;opacity=30;" parent="THTEg2EI7KLqDR-8xR3u-19" vertex="1">
          <mxGeometry x="10" y="60" width="470" height="40" as="geometry" />
        </mxCell>
        <mxCell id="THTEg2EI7KLqDR-8xR3u-33" value="" style="shape=line;direction=north;strokeColor=#b3b3b3;" parent="THTEg2EI7KLqDR-8xR3u-19" vertex="1">
          <mxGeometry x="17" y="190" width="10" height="130" as="geometry" />
        </mxCell>
        <mxCell id="THTEg2EI7KLqDR-8xR3u-37" value="Next" style="shape=rect;strokeColor=none;fillColor=#4285f4;fontColor=#ffffff;rounded=1;" parent="THTEg2EI7KLqDR-8xR3u-19" vertex="1">
          <mxGeometry x="46" y="284" width="102" height="36" as="geometry" />
        </mxCell>
        <mxCell id="THTEg2EI7KLqDR-8xR3u-38" value="Cancel" style="html=1;shadow=0;dashed=0;shape=mxgraph.bootstrap.rrect;rSize=5;fillColor=#6C757D;strokeColor=none;fontColor=#FFFFFF;fontSize=14;" parent="THTEg2EI7KLqDR-8xR3u-19" vertex="1">
          <mxGeometry x="156.00402733964256" y="284" width="70" height="36" as="geometry" />
        </mxCell>
        <mxCell id="THTEg2EI7KLqDR-8xR3u-42" value="No really, I want Eva to figure it out for me, but I know I will likely have work to do at the end.&amp;nbsp;" style="text;html=1;strokeColor=none;fillColor=none;align=left;verticalAlign=top;whiteSpace=wrap;rounded=0;shadow=1;dashed=1;labelBackgroundColor=none;sketch=0;fontSize=9;opacity=30;" parent="THTEg2EI7KLqDR-8xR3u-19" vertex="1">
          <mxGeometry x="70" y="200" width="400" height="20" as="geometry" />
        </mxCell>
        <mxCell id="THTEg2EI7KLqDR-8xR3u-43" value="" style="html=1;shadow=0;dashed=0;shape=mxgraph.atlassian.checkbox_2;fillColor=#0057D8;strokeColor=none;align=left;verticalAlign=middle;fontStyle=0;fontSize=12;labelPosition=right;verticalLabelPosition=middle;spacingLeft=10;rounded=1;sketch=0;" parent="THTEg2EI7KLqDR-8xR3u-19" vertex="1">
          <mxGeometry x="46" y="204" width="12.000000000000002" height="12" as="geometry" />
        </mxCell>
      </root>
    </mxGraphModel>
  </diagram>
  <diagram id="HSI4RDXepnZmiy3H8vmF" name="Digitization/holding pen">
    <mxGraphModel dx="1220" dy="262" grid="1" gridSize="10" guides="1" tooltips="1" connect="1" arrows="1" fold="1" page="1" pageScale="1" pageWidth="1100" pageHeight="850" math="0" shadow="0">
      <root>
        <mxCell id="3AvB2vERW7-ND82bwLwe-0" />
        <mxCell id="3AvB2vERW7-ND82bwLwe-1" parent="3AvB2vERW7-ND82bwLwe-0" />
        <mxCell id="5INGhxoA7RqxQDNWfhh2-3" value="Inital Digitization/Holding pen page&lt;br style=&quot;font-size: 18px;&quot;&gt;" style="text;html=1;strokeColor=none;fillColor=none;align=center;verticalAlign=middle;whiteSpace=wrap;rounded=0;dashed=1;fontStyle=1;fontSize=18;" parent="3AvB2vERW7-ND82bwLwe-1" vertex="1">
          <mxGeometry x="20" y="870" width="327" height="20" as="geometry" />
        </mxCell>
        <mxCell id="Q9i4fuydbNNz2N4A2zQZ-0" value="" style="rounded=0;whiteSpace=wrap;html=1;fillColor=#3333FF;" parent="3AvB2vERW7-ND82bwLwe-1" vertex="1">
          <mxGeometry x="60" y="919.0361445783133" width="1029" height="57.108433734939766" as="geometry" />
        </mxCell>
        <mxCell id="Q9i4fuydbNNz2N4A2zQZ-1" value="&lt;font style=&quot;font-size: 14px&quot;&gt;FEEDBACK&lt;/font&gt;" style="rounded=1;whiteSpace=wrap;html=1;fillColor=#FF8000;strokeColor=#FF8000;fontColor=#FFFFFF;" parent="3AvB2vERW7-ND82bwLwe-1" vertex="1">
          <mxGeometry x="961.9391955098223" y="928.5542168674699" width="115.50982226379794" height="38.0722891566265" as="geometry" />
        </mxCell>
        <mxCell id="Q9i4fuydbNNz2N4A2zQZ-2" value="" style="shape=image;html=1;verticalAlign=top;verticalLabelPosition=bottom;labelBackgroundColor=#ffffff;imageAspect=0;aspect=fixed;image=https://cdn3.iconfinder.com/data/icons/social-media-2125/78/bell-128.png;strokeColor=#FF8000;fillColor=#FF8000;fontColor=#FFFFFF;" parent="3AvB2vERW7-ND82bwLwe-1" vertex="1">
          <mxGeometry x="902.2591206735267" y="928.5542168674699" width="35.216867469879524" height="35.216867469879524" as="geometry" />
        </mxCell>
        <mxCell id="Q9i4fuydbNNz2N4A2zQZ-3" value="" style="whiteSpace=wrap;html=1;shape=mxgraph.basic.octagon2;align=center;verticalAlign=middle;dx=12;shadow=0;sketch=0;fontSize=20;fontColor=#808080;fillColor=#FF8000;strokeColor=#FF8000;" parent="3AvB2vERW7-ND82bwLwe-1" vertex="1">
          <mxGeometry x="69.62581852198316" y="925.222891566265" width="53.9045837231057" height="39.975903614457835" as="geometry" />
        </mxCell>
        <mxCell id="Q9i4fuydbNNz2N4A2zQZ-4" value="Digitization" style="text;html=1;strokeColor=none;fillColor=none;align=center;verticalAlign=middle;whiteSpace=wrap;rounded=0;shadow=0;sketch=0;fontSize=20;fontColor=#FFFFFF;fontStyle=1" parent="3AvB2vERW7-ND82bwLwe-1" vertex="1">
          <mxGeometry x="133.16" y="938.07" width="106.84" height="19.04" as="geometry" />
        </mxCell>
        <mxCell id="Q9i4fuydbNNz2N4A2zQZ-5" value="" style="html=1;verticalLabelPosition=bottom;align=center;labelBackgroundColor=#ffffff;verticalAlign=top;strokeWidth=2;shadow=0;dashed=0;shape=mxgraph.ios7.icons.user;sketch=0;fontSize=20;fontColor=#FFFFFF;fillColor=#FFFFFF;" parent="3AvB2vERW7-ND82bwLwe-1" vertex="1">
          <mxGeometry x="755.9466791393827" y="933.3132530120482" width="28.877455565949486" height="28.554216867469883" as="geometry" />
        </mxCell>
        <mxCell id="Q9i4fuydbNNz2N4A2zQZ-6" value="John Doe" style="text;html=1;strokeColor=none;fillColor=none;align=center;verticalAlign=middle;whiteSpace=wrap;rounded=0;shadow=0;sketch=0;fontSize=19;fontColor=#FFFFFF;" parent="3AvB2vERW7-ND82bwLwe-1" vertex="1">
          <mxGeometry x="797.8189897100094" y="938.0722891566265" width="90.48269410664173" height="19.03614457831325" as="geometry" />
        </mxCell>
        <mxCell id="Q9i4fuydbNNz2N4A2zQZ-7" value="&amp;lt;Classification Here&amp;gt;" style="rounded=0;whiteSpace=wrap;html=1;shadow=0;sketch=0;fontSize=12;align=center;fillColor=#FFFF33;" parent="3AvB2vERW7-ND82bwLwe-1" vertex="1">
          <mxGeometry x="60" y="900" width="1029" height="19.03614457831325" as="geometry" />
        </mxCell>
        <mxCell id="Q9i4fuydbNNz2N4A2zQZ-8" value="" style="rounded=0;whiteSpace=wrap;html=1;" parent="3AvB2vERW7-ND82bwLwe-1" vertex="1">
          <mxGeometry x="60" y="976.144578313253" width="1029" height="713.8554216867469" as="geometry" />
        </mxCell>
        <mxCell id="Q9i4fuydbNNz2N4A2zQZ-9" value="" style="line;strokeWidth=1;fillColor=none;align=left;verticalAlign=middle;spacingTop=-1;spacingLeft=3;spacingRight=3;rotatable=0;labelPosition=right;points=[];portConstraint=eastwest;sketch=0;direction=south;" parent="3AvB2vERW7-ND82bwLwe-1" vertex="1">
          <mxGeometry x="305.45837231057067" y="976.144578313253" width="7.70065481758653" height="713.8554216867469" as="geometry" />
        </mxCell>
        <mxCell id="Q9i4fuydbNNz2N4A2zQZ-20" value="" style="perimeter=none;dashed=0;shape=mxgraph.gmdl.triangle;strokeColor=none;fillColor=#666666;direction=south;aspect=fixed;" parent="3AvB2vERW7-ND82bwLwe-1" vertex="1">
          <mxGeometry x="297.7577174929841" y="1325.4578313253012" width="7.614457831325302" height="15.228915662650603" as="geometry">
            <mxPoint x="-27" as="offset" />
          </mxGeometry>
        </mxCell>
        <mxCell id="Q9i4fuydbNNz2N4A2zQZ-54" value="Fav:" style="text;html=1;strokeColor=none;fillColor=none;align=center;verticalAlign=middle;whiteSpace=wrap;rounded=0;shadow=0;sketch=0;fontSize=10;fontColor=#FFFFFF;" parent="3AvB2vERW7-ND82bwLwe-1" vertex="1">
          <mxGeometry x="507.6005612722171" y="1059.9036144578313" width="38.50327408793265" height="19.03614457831325" as="geometry" />
        </mxCell>
        <mxCell id="5INGhxoA7RqxQDNWfhh2-1" value="" style="rounded=0;whiteSpace=wrap;html=1;fillColor=none;dashed=1;" parent="3AvB2vERW7-ND82bwLwe-1" vertex="1">
          <mxGeometry x="318.93451824134706" y="985.6626506024096" width="760.4396632366697" height="694.8192771084338" as="geometry" />
        </mxCell>
        <mxCell id="5INGhxoA7RqxQDNWfhh2-5" value="Drop file here" style="text;html=1;strokeColor=none;fillColor=none;align=center;verticalAlign=middle;whiteSpace=wrap;rounded=0;dashed=1;fontSize=20;fontColor=#CCCCCC;" parent="3AvB2vERW7-ND82bwLwe-1" vertex="1">
          <mxGeometry x="630" y="1321" width="130" height="20" as="geometry" />
        </mxCell>
        <mxCell id="5INGhxoA7RqxQDNWfhh2-6" value="On file drop" style="text;html=1;strokeColor=none;fillColor=none;align=center;verticalAlign=middle;whiteSpace=wrap;rounded=0;dashed=1;fontStyle=1;fontSize=18;" parent="3AvB2vERW7-ND82bwLwe-1" vertex="1">
          <mxGeometry x="20" y="1715" width="327" height="20" as="geometry" />
        </mxCell>
        <mxCell id="5INGhxoA7RqxQDNWfhh2-7" value="" style="rounded=0;whiteSpace=wrap;html=1;fillColor=#3333FF;" parent="3AvB2vERW7-ND82bwLwe-1" vertex="1">
          <mxGeometry x="60" y="1764.0361445783133" width="1029" height="57.108433734939766" as="geometry" />
        </mxCell>
        <mxCell id="5INGhxoA7RqxQDNWfhh2-8" value="&lt;font style=&quot;font-size: 14px&quot;&gt;FEEDBACK&lt;/font&gt;" style="rounded=1;whiteSpace=wrap;html=1;fillColor=#FF8000;strokeColor=#FF8000;fontColor=#FFFFFF;" parent="3AvB2vERW7-ND82bwLwe-1" vertex="1">
          <mxGeometry x="961.9391955098223" y="1773.55421686747" width="115.50982226379794" height="38.0722891566265" as="geometry" />
        </mxCell>
        <mxCell id="5INGhxoA7RqxQDNWfhh2-9" value="" style="shape=image;html=1;verticalAlign=top;verticalLabelPosition=bottom;labelBackgroundColor=#ffffff;imageAspect=0;aspect=fixed;image=https://cdn3.iconfinder.com/data/icons/social-media-2125/78/bell-128.png;strokeColor=#FF8000;fillColor=#FF8000;fontColor=#FFFFFF;" parent="3AvB2vERW7-ND82bwLwe-1" vertex="1">
          <mxGeometry x="902.2591206735267" y="1773.55421686747" width="35.216867469879524" height="35.216867469879524" as="geometry" />
        </mxCell>
        <mxCell id="5INGhxoA7RqxQDNWfhh2-10" value="" style="whiteSpace=wrap;html=1;shape=mxgraph.basic.octagon2;align=center;verticalAlign=middle;dx=12;shadow=0;sketch=0;fontSize=20;fontColor=#808080;fillColor=#FF8000;strokeColor=#FF8000;" parent="3AvB2vERW7-ND82bwLwe-1" vertex="1">
          <mxGeometry x="69.62581852198316" y="1770.222891566265" width="53.9045837231057" height="39.975903614457835" as="geometry" />
        </mxCell>
        <mxCell id="5INGhxoA7RqxQDNWfhh2-11" value="Digitization" style="text;html=1;strokeColor=none;fillColor=none;align=center;verticalAlign=middle;whiteSpace=wrap;rounded=0;shadow=0;sketch=0;fontSize=20;fontColor=#FFFFFF;fontStyle=1" parent="3AvB2vERW7-ND82bwLwe-1" vertex="1">
          <mxGeometry x="133.16" y="1783.0700000000002" width="106.84" height="19.04" as="geometry" />
        </mxCell>
        <mxCell id="5INGhxoA7RqxQDNWfhh2-12" value="" style="html=1;verticalLabelPosition=bottom;align=center;labelBackgroundColor=#ffffff;verticalAlign=top;strokeWidth=2;shadow=0;dashed=0;shape=mxgraph.ios7.icons.user;sketch=0;fontSize=20;fontColor=#FFFFFF;fillColor=#FFFFFF;" parent="3AvB2vERW7-ND82bwLwe-1" vertex="1">
          <mxGeometry x="755.9466791393827" y="1778.3132530120483" width="28.877455565949486" height="28.554216867469883" as="geometry" />
        </mxCell>
        <mxCell id="5INGhxoA7RqxQDNWfhh2-13" value="John Doe" style="text;html=1;strokeColor=none;fillColor=none;align=center;verticalAlign=middle;whiteSpace=wrap;rounded=0;shadow=0;sketch=0;fontSize=19;fontColor=#FFFFFF;" parent="3AvB2vERW7-ND82bwLwe-1" vertex="1">
          <mxGeometry x="797.8189897100094" y="1783.0722891566265" width="90.48269410664173" height="19.03614457831325" as="geometry" />
        </mxCell>
        <mxCell id="5INGhxoA7RqxQDNWfhh2-14" value="&amp;lt;Classification Here&amp;gt;" style="rounded=0;whiteSpace=wrap;html=1;shadow=0;sketch=0;fontSize=12;align=center;fillColor=#FFFF33;" parent="3AvB2vERW7-ND82bwLwe-1" vertex="1">
          <mxGeometry x="60" y="1745" width="1029" height="19.03614457831325" as="geometry" />
        </mxCell>
        <mxCell id="5INGhxoA7RqxQDNWfhh2-15" value="" style="rounded=0;whiteSpace=wrap;html=1;" parent="3AvB2vERW7-ND82bwLwe-1" vertex="1">
          <mxGeometry x="60" y="1821.144578313253" width="1029" height="713.8554216867469" as="geometry" />
        </mxCell>
        <mxCell id="5INGhxoA7RqxQDNWfhh2-18" value="Fav:" style="text;html=1;strokeColor=none;fillColor=none;align=center;verticalAlign=middle;whiteSpace=wrap;rounded=0;shadow=0;sketch=0;fontSize=10;fontColor=#FFFFFF;" parent="3AvB2vERW7-ND82bwLwe-1" vertex="1">
          <mxGeometry x="500" y="1904.9" width="46.1" height="19.04" as="geometry" />
        </mxCell>
        <mxCell id="5INGhxoA7RqxQDNWfhh2-19" value="&lt;span style=&quot;color: rgb(204 , 204 , 204) ; font-size: 20px&quot;&gt;Drop file here&lt;/span&gt;" style="rounded=0;whiteSpace=wrap;html=1;dashed=1;opacity=40;fillColor=#808080;" parent="3AvB2vERW7-ND82bwLwe-1" vertex="1">
          <mxGeometry x="60" y="1764.04" width="1030" height="771" as="geometry" />
        </mxCell>
        <mxCell id="otkOWQHjd1t32IUKRerO-37" value="" style="group" parent="3AvB2vERW7-ND82bwLwe-1" vertex="1" connectable="0">
          <mxGeometry x="270" y="1960" width="600" height="360" as="geometry" />
        </mxCell>
        <mxCell id="rqhAeIMt7U-xd0CSBNV8-0" value="File Upload" style="html=1;shadow=0;dashed=0;shape=mxgraph.bootstrap.rrect;rSize=5;html=1;strokeColor=#C8C8C8;fillColor=#ffffff;whiteSpace=wrap;verticalAlign=top;align=left;fontSize=18;spacing=15;spacingTop=-5;" parent="otkOWQHjd1t32IUKRerO-37" vertex="1">
          <mxGeometry width="600" height="360" as="geometry" />
        </mxCell>
        <mxCell id="rqhAeIMt7U-xd0CSBNV8-1" value="" style="shape=line;strokeColor=#dddddd;resizeWidth=1;" parent="rqhAeIMt7U-xd0CSBNV8-0" vertex="1">
          <mxGeometry width="590.1639344262295" height="10" relative="1" as="geometry">
            <mxPoint y="50" as="offset" />
          </mxGeometry>
        </mxCell>
        <mxCell id="rqhAeIMt7U-xd0CSBNV8-2" value="" style="html=1;shadow=0;dashed=0;shape=mxgraph.bootstrap.x;strokeColor=#868686;strokeWidth=2;" parent="rqhAeIMt7U-xd0CSBNV8-0" vertex="1">
          <mxGeometry x="1" width="8" height="8" relative="1" as="geometry">
            <mxPoint x="-24" y="20" as="offset" />
          </mxGeometry>
        </mxCell>
        <mxCell id="rqhAeIMt7U-xd0CSBNV8-4" value="" style="shape=line;strokeColor=#dddddd;resizeWidth=1;" parent="rqhAeIMt7U-xd0CSBNV8-0" vertex="1">
          <mxGeometry width="590.1639344262295" height="10" relative="1" as="geometry">
            <mxPoint y="290" as="offset" />
          </mxGeometry>
        </mxCell>
        <mxCell id="rqhAeIMt7U-xd0CSBNV8-5" value="Upload" style="html=1;shadow=0;dashed=0;shape=mxgraph.bootstrap.rrect;rSize=5;fillColor=#0085FC;strokeColor=none;fontColor=#FFFFFF;fontSize=14;" parent="rqhAeIMt7U-xd0CSBNV8-0" vertex="1">
          <mxGeometry x="1" y="1" width="110" height="40" relative="1" as="geometry">
            <mxPoint x="-120" y="-50" as="offset" />
          </mxGeometry>
        </mxCell>
        <mxCell id="rqhAeIMt7U-xd0CSBNV8-6" value="Close" style="html=1;shadow=0;dashed=0;shape=mxgraph.bootstrap.rrect;rSize=5;fillColor=#6C757D;strokeColor=none;fontColor=#FFFFFF;fontSize=14;" parent="rqhAeIMt7U-xd0CSBNV8-0" vertex="1">
          <mxGeometry x="1" y="1" width="70" height="40" relative="1" as="geometry">
            <mxPoint x="-200" y="-50" as="offset" />
          </mxGeometry>
        </mxCell>
        <mxCell id="otkOWQHjd1t32IUKRerO-0" value="Upload location" style="rounded=1;fillColor=#F1F2F4;strokeColor=none;html=1;fontColor=#596780;align=left;fontSize=12;spacingLeft=10;shadow=0;sketch=0;" parent="rqhAeIMt7U-xd0CSBNV8-0" vertex="1">
          <mxGeometry x="9.836065573770492" y="70" width="570.4918032786885" height="30" as="geometry" />
        </mxCell>
        <mxCell id="otkOWQHjd1t32IUKRerO-1" value="" style="shape=triangle;direction=north;fillColor=#596780;strokeColor=none;html=1" parent="otkOWQHjd1t32IUKRerO-0" vertex="1">
          <mxGeometry x="1" y="0.5" width="12" height="6" relative="1" as="geometry">
            <mxPoint x="-20" y="-3" as="offset" />
          </mxGeometry>
        </mxCell>
        <mxCell id="otkOWQHjd1t32IUKRerO-13" value="# of valid files.&lt;br&gt;# of invalid files&lt;br&gt;&lt;br&gt;Information here" style="text;html=1;strokeColor=none;fillColor=none;align=center;verticalAlign=middle;whiteSpace=wrap;rounded=0;dashed=1;fontSize=12;fontColor=#000000;" parent="rqhAeIMt7U-xd0CSBNV8-0" vertex="1">
          <mxGeometry x="127.87" y="170" width="304.92" height="90" as="geometry" />
        </mxCell>
        <mxCell id="otkOWQHjd1t32IUKRerO-2" value="" style="dashed=0;shape=rect;shadow=1;strokeColor=#eeeeee;strokeWidth=1;fillColor=#ffffff;fontSize=22;fontColor=#000000;align=left;spacingLeft=65;dashPattern=1 4;verticalAlign=top;spacingTop=6;container=0;" parent="otkOWQHjd1t32IUKRerO-37" vertex="1">
          <mxGeometry x="10" y="100" width="580" height="50" as="geometry" />
        </mxCell>
        <mxCell id="otkOWQHjd1t32IUKRerO-5" value="" style="dashed=0;shape=line;strokeWidth=1;strokeColor=#eeeeee;resizeWidth=1;" parent="otkOWQHjd1t32IUKRerO-37" vertex="1">
          <mxGeometry x="10" y="82" width="580" height="86" as="geometry">
            <mxPoint y="49" as="offset" />
          </mxGeometry>
        </mxCell>
        <mxCell id="otkOWQHjd1t32IUKRerO-10" value="Holding Pen" style="text;html=1;strokeColor=none;fillColor=none;align=center;verticalAlign=middle;whiteSpace=wrap;rounded=0;dashed=1;fontSize=12;" parent="otkOWQHjd1t32IUKRerO-37" vertex="1">
          <mxGeometry y="125" width="110" height="20" as="geometry" />
        </mxCell>
        <mxCell id="otkOWQHjd1t32IUKRerO-11" value="Eva" style="text;html=1;strokeColor=none;fillColor=none;align=center;verticalAlign=middle;whiteSpace=wrap;rounded=0;dashed=1;fontSize=12;" parent="otkOWQHjd1t32IUKRerO-37" vertex="1">
          <mxGeometry x="10" y="100" width="40" height="20" as="geometry" />
        </mxCell>
        <mxCell id="otkOWQHjd1t32IUKRerO-38" value="After file upload" style="text;html=1;strokeColor=none;fillColor=none;align=center;verticalAlign=middle;whiteSpace=wrap;rounded=0;dashed=1;fontStyle=1;fontSize=18;" parent="3AvB2vERW7-ND82bwLwe-1" vertex="1">
          <mxGeometry x="19" y="2565" width="327" height="20" as="geometry" />
        </mxCell>
        <mxCell id="otkOWQHjd1t32IUKRerO-65" value="" style="rounded=0;whiteSpace=wrap;html=1;fillColor=#3333FF;" parent="3AvB2vERW7-ND82bwLwe-1" vertex="1">
          <mxGeometry x="60" y="2619.0361445783133" width="1029" height="57.108433734939766" as="geometry" />
        </mxCell>
        <mxCell id="otkOWQHjd1t32IUKRerO-66" value="&lt;font style=&quot;font-size: 14px&quot;&gt;FEEDBACK&lt;/font&gt;" style="rounded=1;whiteSpace=wrap;html=1;fillColor=#FF8000;strokeColor=#FF8000;fontColor=#FFFFFF;" parent="3AvB2vERW7-ND82bwLwe-1" vertex="1">
          <mxGeometry x="961.9391955098223" y="2628.55421686747" width="115.50982226379794" height="38.0722891566265" as="geometry" />
        </mxCell>
        <mxCell id="otkOWQHjd1t32IUKRerO-67" value="" style="shape=image;html=1;verticalAlign=top;verticalLabelPosition=bottom;labelBackgroundColor=#ffffff;imageAspect=0;aspect=fixed;image=https://cdn3.iconfinder.com/data/icons/social-media-2125/78/bell-128.png;strokeColor=#FF8000;fillColor=#FF8000;fontColor=#FFFFFF;" parent="3AvB2vERW7-ND82bwLwe-1" vertex="1">
          <mxGeometry x="902.2591206735267" y="2628.55421686747" width="35.216867469879524" height="35.216867469879524" as="geometry" />
        </mxCell>
        <mxCell id="otkOWQHjd1t32IUKRerO-68" value="" style="whiteSpace=wrap;html=1;shape=mxgraph.basic.octagon2;align=center;verticalAlign=middle;dx=12;shadow=0;sketch=0;fontSize=20;fontColor=#808080;fillColor=#FF8000;strokeColor=#FF8000;" parent="3AvB2vERW7-ND82bwLwe-1" vertex="1">
          <mxGeometry x="69.62581852198316" y="2625.222891566265" width="53.9045837231057" height="39.975903614457835" as="geometry" />
        </mxCell>
        <mxCell id="otkOWQHjd1t32IUKRerO-69" value="Digitization" style="text;html=1;strokeColor=none;fillColor=none;align=center;verticalAlign=middle;whiteSpace=wrap;rounded=0;shadow=0;sketch=0;fontSize=20;fontColor=#FFFFFF;fontStyle=1" parent="3AvB2vERW7-ND82bwLwe-1" vertex="1">
          <mxGeometry x="133.16" y="2638.07" width="106.84" height="19.04" as="geometry" />
        </mxCell>
        <mxCell id="otkOWQHjd1t32IUKRerO-70" value="" style="html=1;verticalLabelPosition=bottom;align=center;labelBackgroundColor=#ffffff;verticalAlign=top;strokeWidth=2;shadow=0;dashed=0;shape=mxgraph.ios7.icons.user;sketch=0;fontSize=20;fontColor=#FFFFFF;fillColor=#FFFFFF;" parent="3AvB2vERW7-ND82bwLwe-1" vertex="1">
          <mxGeometry x="755.9466791393827" y="2633.3132530120483" width="28.877455565949486" height="28.554216867469883" as="geometry" />
        </mxCell>
        <mxCell id="otkOWQHjd1t32IUKRerO-71" value="John Doe" style="text;html=1;strokeColor=none;fillColor=none;align=center;verticalAlign=middle;whiteSpace=wrap;rounded=0;shadow=0;sketch=0;fontSize=19;fontColor=#FFFFFF;" parent="3AvB2vERW7-ND82bwLwe-1" vertex="1">
          <mxGeometry x="797.8189897100094" y="2638.0722891566265" width="90.48269410664173" height="19.03614457831325" as="geometry" />
        </mxCell>
        <mxCell id="otkOWQHjd1t32IUKRerO-72" value="&amp;lt;Classification Here&amp;gt;" style="rounded=0;whiteSpace=wrap;html=1;shadow=0;sketch=0;fontSize=12;align=center;fillColor=#FFFF33;" parent="3AvB2vERW7-ND82bwLwe-1" vertex="1">
          <mxGeometry x="60" y="2600" width="1029" height="19.03614457831325" as="geometry" />
        </mxCell>
        <mxCell id="otkOWQHjd1t32IUKRerO-73" value="" style="rounded=0;whiteSpace=wrap;html=1;" parent="3AvB2vERW7-ND82bwLwe-1" vertex="1">
          <mxGeometry x="60" y="2676.144578313253" width="1029" height="713.8554216867469" as="geometry" />
        </mxCell>
        <mxCell id="otkOWQHjd1t32IUKRerO-74" value="" style="line;strokeWidth=1;fillColor=none;align=left;verticalAlign=middle;spacingTop=-1;spacingLeft=3;spacingRight=3;rotatable=0;labelPosition=right;points=[];portConstraint=eastwest;sketch=0;direction=south;" parent="3AvB2vERW7-ND82bwLwe-1" vertex="1">
          <mxGeometry x="305.45837231057067" y="2676.144578313253" width="7.70065481758653" height="713.8554216867469" as="geometry" />
        </mxCell>
        <mxCell id="otkOWQHjd1t32IUKRerO-75" value="" style="perimeter=none;dashed=0;shape=mxgraph.gmdl.triangle;strokeColor=none;fillColor=#666666;direction=south;aspect=fixed;" parent="3AvB2vERW7-ND82bwLwe-1" vertex="1">
          <mxGeometry x="297.7577174929841" y="3025.4578313253014" width="7.614457831325302" height="15.228915662650603" as="geometry">
            <mxPoint x="-27" as="offset" />
          </mxGeometry>
        </mxCell>
        <mxCell id="otkOWQHjd1t32IUKRerO-76" value="Fav:" style="text;html=1;strokeColor=none;fillColor=none;align=center;verticalAlign=middle;whiteSpace=wrap;rounded=0;shadow=0;sketch=0;fontSize=10;fontColor=#FFFFFF;" parent="3AvB2vERW7-ND82bwLwe-1" vertex="1">
          <mxGeometry x="507.6005612722171" y="2759.9036144578313" width="38.50327408793265" height="19.03614457831325" as="geometry" />
        </mxCell>
        <mxCell id="otkOWQHjd1t32IUKRerO-77" value="" style="rounded=0;whiteSpace=wrap;html=1;fillColor=none;dashed=1;" parent="3AvB2vERW7-ND82bwLwe-1" vertex="1">
          <mxGeometry x="318.93451824134706" y="2685.6626506024095" width="760.4396632366697" height="694.8192771084338" as="geometry" />
        </mxCell>
        <mxCell id="otkOWQHjd1t32IUKRerO-78" value="Drop file here" style="text;html=1;strokeColor=none;fillColor=none;align=center;verticalAlign=middle;whiteSpace=wrap;rounded=0;dashed=1;fontSize=20;fontColor=#CCCCCC;" parent="3AvB2vERW7-ND82bwLwe-1" vertex="1">
          <mxGeometry x="630" y="3021" width="130" height="20" as="geometry" />
        </mxCell>
        <mxCell id="otkOWQHjd1t32IUKRerO-79" value="&lt;b style=&quot;font-size: 18px;&quot;&gt;&lt;font color=&quot;#808080&quot; style=&quot;font-size: 18px;&quot;&gt;Status&lt;/font&gt;&lt;/b&gt;" style="text;html=1;strokeColor=none;fillColor=none;align=center;verticalAlign=middle;whiteSpace=wrap;rounded=0;dashed=1;fontSize=18;fontColor=#000000;" parent="3AvB2vERW7-ND82bwLwe-1" vertex="1">
          <mxGeometry x="77" y="2686" width="53" height="24" as="geometry" />
        </mxCell>
        <mxCell id="otkOWQHjd1t32IUKRerO-81" value="" style="line;strokeWidth=1;fillColor=none;align=left;verticalAlign=middle;spacingTop=-1;spacingLeft=3;spacingRight=3;rotatable=0;labelPosition=right;points=[];portConstraint=eastwest;fontSize=18;fontColor=#000000;strokeColor=#E6E6E6;" parent="3AvB2vERW7-ND82bwLwe-1" vertex="1">
          <mxGeometry x="60" y="2710" width="250" height="8" as="geometry" />
        </mxCell>
        <mxCell id="otkOWQHjd1t32IUKRerO-82" value="&lt;b style=&quot;font-size: 15px&quot;&gt;&lt;font color=&quot;#808080&quot; style=&quot;font-size: 15px&quot;&gt;Successful&lt;/font&gt;&lt;/b&gt;" style="text;html=1;strokeColor=none;fillColor=none;align=center;verticalAlign=middle;whiteSpace=wrap;rounded=0;dashed=1;fontSize=15;fontColor=#000000;" parent="3AvB2vERW7-ND82bwLwe-1" vertex="1">
          <mxGeometry x="88.69" y="2718" width="99.47" height="24" as="geometry" />
        </mxCell>
        <mxCell id="otkOWQHjd1t32IUKRerO-83" value="&lt;b style=&quot;font-size: 15px&quot;&gt;&lt;font color=&quot;#808080&quot; style=&quot;font-size: 15px&quot;&gt;Failed&lt;/font&gt;&lt;/b&gt;" style="text;html=1;strokeColor=none;fillColor=none;align=center;verticalAlign=middle;whiteSpace=wrap;rounded=0;dashed=1;fontSize=15;fontColor=#000000;" parent="3AvB2vERW7-ND82bwLwe-1" vertex="1">
          <mxGeometry x="69.63" y="2850" width="99.47" height="24" as="geometry" />
        </mxCell>
        <mxCell id="otkOWQHjd1t32IUKRerO-85" value="&lt;u&gt;Reprocess page link&lt;/u&gt;" style="fillColor=none;strokeColor=none;html=1;fontColor=#0057D8;align=left;fontSize=12" parent="3AvB2vERW7-ND82bwLwe-1" vertex="1">
          <mxGeometry x="188.16000000000003" y="2845.5" width="125" height="33" as="geometry" />
        </mxCell>
        <mxCell id="otkOWQHjd1t32IUKRerO-86" value="" style="html=1;shadow=0;dashed=0;shape=mxgraph.atlassian.checkbox;fillColor=#008465;strokeColor=none;html=1;fontSize=15;fontColor=#000000;" parent="3AvB2vERW7-ND82bwLwe-1" vertex="1">
          <mxGeometry x="69.63000000000002" y="2723" width="14" height="14" as="geometry" />
        </mxCell>
        <mxCell id="otkOWQHjd1t32IUKRerO-89" value="" style="html=1;shadow=0;dashed=0;shape=mxgraph.atlassian.close;fillColor=#BA3200;strokeColor=none;html=1;fontSize=15;fontColor=#000000;" parent="3AvB2vERW7-ND82bwLwe-1" vertex="1">
          <mxGeometry x="69.63" y="2855" width="14" height="14" as="geometry" />
        </mxCell>
        <mxCell id="otkOWQHjd1t32IUKRerO-90" value="" style="shape=image;html=1;verticalAlign=top;verticalLabelPosition=bottom;labelBackgroundColor=#ffffff;imageAspect=0;aspect=fixed;image=https://cdn4.iconfinder.com/data/icons/simple-lines-2/32/Menu_List_Text_Line_Item_Bullet_Paragraph-128.png;strokeColor=#E6E6E6;fillColor=#808080;fontSize=15;" parent="3AvB2vERW7-ND82bwLwe-1" vertex="1">
          <mxGeometry x="74.42" y="2860" width="128" height="128" as="geometry" />
        </mxCell>
        <mxCell id="otkOWQHjd1t32IUKRerO-91" value="" style="shape=image;html=1;verticalAlign=top;verticalLabelPosition=bottom;labelBackgroundColor=#ffffff;imageAspect=0;aspect=fixed;image=https://cdn4.iconfinder.com/data/icons/simple-lines-2/32/Menu_List_Text_Line_Item_Bullet_Paragraph-128.png;strokeColor=#E6E6E6;fillColor=#808080;fontSize=15;fontColor=#000000;" parent="3AvB2vERW7-ND82bwLwe-1" vertex="1">
          <mxGeometry x="74.42" y="2727" width="128" height="128" as="geometry" />
        </mxCell>
        <mxCell id="otkOWQHjd1t32IUKRerO-92" value="Reprocess page" style="text;html=1;strokeColor=none;fillColor=none;align=center;verticalAlign=middle;whiteSpace=wrap;rounded=0;dashed=1;fontStyle=1;fontSize=18;" parent="3AvB2vERW7-ND82bwLwe-1" vertex="1">
          <mxGeometry x="20" y="3413" width="327" height="20" as="geometry" />
        </mxCell>
        <mxCell id="otkOWQHjd1t32IUKRerO-93" value="" style="rounded=0;whiteSpace=wrap;html=1;fillColor=#3333FF;" parent="3AvB2vERW7-ND82bwLwe-1" vertex="1">
          <mxGeometry x="61.00000000000001" y="3467.0361445783133" width="1029" height="57.108433734939766" as="geometry" />
        </mxCell>
        <mxCell id="otkOWQHjd1t32IUKRerO-94" value="&lt;font style=&quot;font-size: 14px&quot;&gt;FEEDBACK&lt;/font&gt;" style="rounded=1;whiteSpace=wrap;html=1;fillColor=#FF8000;strokeColor=#FF8000;fontColor=#FFFFFF;" parent="3AvB2vERW7-ND82bwLwe-1" vertex="1">
          <mxGeometry x="962.9391955098223" y="3476.55421686747" width="115.50982226379794" height="38.0722891566265" as="geometry" />
        </mxCell>
        <mxCell id="otkOWQHjd1t32IUKRerO-95" value="" style="shape=image;html=1;verticalAlign=top;verticalLabelPosition=bottom;labelBackgroundColor=#ffffff;imageAspect=0;aspect=fixed;image=https://cdn3.iconfinder.com/data/icons/social-media-2125/78/bell-128.png;strokeColor=#FF8000;fillColor=#FF8000;fontColor=#FFFFFF;" parent="3AvB2vERW7-ND82bwLwe-1" vertex="1">
          <mxGeometry x="903.2591206735267" y="3476.55421686747" width="35.216867469879524" height="35.216867469879524" as="geometry" />
        </mxCell>
        <mxCell id="otkOWQHjd1t32IUKRerO-96" value="" style="whiteSpace=wrap;html=1;shape=mxgraph.basic.octagon2;align=center;verticalAlign=middle;dx=12;shadow=0;sketch=0;fontSize=20;fontColor=#808080;fillColor=#FF8000;strokeColor=#FF8000;" parent="3AvB2vERW7-ND82bwLwe-1" vertex="1">
          <mxGeometry x="70.62581852198316" y="3473.222891566265" width="53.9045837231057" height="39.975903614457835" as="geometry" />
        </mxCell>
        <mxCell id="otkOWQHjd1t32IUKRerO-97" value="Reprocess" style="text;html=1;strokeColor=none;fillColor=none;align=center;verticalAlign=middle;whiteSpace=wrap;rounded=0;shadow=0;sketch=0;fontSize=20;fontColor=#FFFFFF;fontStyle=1" parent="3AvB2vERW7-ND82bwLwe-1" vertex="1">
          <mxGeometry x="134.16" y="3486.07" width="106.84" height="19.04" as="geometry" />
        </mxCell>
        <mxCell id="otkOWQHjd1t32IUKRerO-98" value="" style="html=1;verticalLabelPosition=bottom;align=center;labelBackgroundColor=#ffffff;verticalAlign=top;strokeWidth=2;shadow=0;dashed=0;shape=mxgraph.ios7.icons.user;sketch=0;fontSize=20;fontColor=#FFFFFF;fillColor=#FFFFFF;" parent="3AvB2vERW7-ND82bwLwe-1" vertex="1">
          <mxGeometry x="756.9466791393827" y="3481.3132530120483" width="28.877455565949486" height="28.554216867469883" as="geometry" />
        </mxCell>
        <mxCell id="otkOWQHjd1t32IUKRerO-99" value="John Doe" style="text;html=1;strokeColor=none;fillColor=none;align=center;verticalAlign=middle;whiteSpace=wrap;rounded=0;shadow=0;sketch=0;fontSize=19;fontColor=#FFFFFF;" parent="3AvB2vERW7-ND82bwLwe-1" vertex="1">
          <mxGeometry x="798.8189897100094" y="3486.0722891566265" width="90.48269410664173" height="19.03614457831325" as="geometry" />
        </mxCell>
        <mxCell id="otkOWQHjd1t32IUKRerO-100" value="&amp;lt;Classification Here&amp;gt;" style="rounded=0;whiteSpace=wrap;html=1;shadow=0;sketch=0;fontSize=12;align=center;fillColor=#FFFF33;" parent="3AvB2vERW7-ND82bwLwe-1" vertex="1">
          <mxGeometry x="61.00000000000001" y="3448" width="1029" height="19.03614457831325" as="geometry" />
        </mxCell>
        <mxCell id="otkOWQHjd1t32IUKRerO-101" value="" style="rounded=0;whiteSpace=wrap;html=1;" parent="3AvB2vERW7-ND82bwLwe-1" vertex="1">
          <mxGeometry x="61.00000000000001" y="3524.144578313253" width="1029" height="713.8554216867469" as="geometry" />
        </mxCell>
        <mxCell id="otkOWQHjd1t32IUKRerO-102" value="" style="line;strokeWidth=1;fillColor=none;align=left;verticalAlign=middle;spacingTop=-1;spacingLeft=3;spacingRight=3;rotatable=0;labelPosition=right;points=[];portConstraint=eastwest;sketch=0;direction=south;" parent="3AvB2vERW7-ND82bwLwe-1" vertex="1">
          <mxGeometry x="306.45837231057067" y="3524.144578313253" width="7.70065481758653" height="713.8554216867469" as="geometry" />
        </mxCell>
        <mxCell id="otkOWQHjd1t32IUKRerO-103" value="" style="perimeter=none;dashed=0;shape=mxgraph.gmdl.triangle;strokeColor=none;fillColor=#666666;direction=south;aspect=fixed;" parent="3AvB2vERW7-ND82bwLwe-1" vertex="1">
          <mxGeometry x="298.7577174929841" y="3873.4578313253014" width="7.614457831325302" height="15.228915662650603" as="geometry">
            <mxPoint x="-27" as="offset" />
          </mxGeometry>
        </mxCell>
        <mxCell id="otkOWQHjd1t32IUKRerO-104" value="Fav:" style="text;html=1;strokeColor=none;fillColor=none;align=center;verticalAlign=middle;whiteSpace=wrap;rounded=0;shadow=0;sketch=0;fontSize=10;fontColor=#FFFFFF;" parent="3AvB2vERW7-ND82bwLwe-1" vertex="1">
          <mxGeometry x="508.6005612722171" y="3607.9036144578313" width="38.50327408793265" height="19.03614457831325" as="geometry" />
        </mxCell>
        <mxCell id="otkOWQHjd1t32IUKRerO-106" value="Drop file here" style="text;html=1;strokeColor=none;fillColor=none;align=center;verticalAlign=middle;whiteSpace=wrap;rounded=0;dashed=1;fontSize=20;fontColor=#CCCCCC;" parent="3AvB2vERW7-ND82bwLwe-1" vertex="1">
          <mxGeometry x="631" y="3869" width="130" height="20" as="geometry" />
        </mxCell>
        <mxCell id="otkOWQHjd1t32IUKRerO-108" value="" style="line;strokeWidth=1;fillColor=none;align=left;verticalAlign=middle;spacingTop=-1;spacingLeft=3;spacingRight=3;rotatable=0;labelPosition=right;points=[];portConstraint=eastwest;fontSize=18;fontColor=#000000;strokeColor=#E6E6E6;" parent="3AvB2vERW7-ND82bwLwe-1" vertex="1">
          <mxGeometry x="61.00000000000001" y="3558" width="250" height="8" as="geometry" />
        </mxCell>
        <mxCell id="OQKBeqOdO4yQdyy7nP2A-0" value="Failed" style="rounded=1;fillColor=#F1F2F4;strokeColor=none;html=1;fontColor=#596780;align=left;fontSize=12;spacingLeft=10;shadow=0;sketch=0;" parent="3AvB2vERW7-ND82bwLwe-1" vertex="1">
          <mxGeometry x="69.62999999999988" y="3528" width="80" height="30" as="geometry" />
        </mxCell>
        <mxCell id="OQKBeqOdO4yQdyy7nP2A-1" value="" style="shape=triangle;direction=south;fillColor=#596780;strokeColor=none;html=1" parent="OQKBeqOdO4yQdyy7nP2A-0" vertex="1">
          <mxGeometry x="1" y="0.5" width="12" height="6" relative="1" as="geometry">
            <mxPoint x="-20" y="-3" as="offset" />
          </mxGeometry>
        </mxCell>
        <mxCell id="ruLj6s_d2kl648r2gLQv-0" value="File infomation" style="shape=rect;fillColor=#ffffff;strokeColor=#eeeeee;shadow=1;fontColor=#000000;fontSize=23;fontStyle=0;verticalAlign=top;spacingBottom=0;spacingLeft=16;spacingTop=20;align=left;rounded=0;" parent="3AvB2vERW7-ND82bwLwe-1" vertex="1">
          <mxGeometry x="319.37" y="3530" width="760" height="550" as="geometry" />
        </mxCell>
        <mxCell id="ruLj6s_d2kl648r2gLQv-1" value="Guide: 123456/1258d25s8f22f" style="text;fontSize=12;fontStyle=4;verticalAlign=middle;spacingBottom=0;spacingLeft=16;resizeWidth=1;fontColor=#0645AD;" parent="ruLj6s_d2kl648r2gLQv-0" vertex="1">
          <mxGeometry width="760" height="20" relative="1" as="geometry">
            <mxPoint y="59" as="offset" />
          </mxGeometry>
        </mxCell>
        <mxCell id="ruLj6s_d2kl648r2gLQv-2" value="Failed Location:&#xa;&#xa;&#xa;" style="text;whiteSpace=wrap;fontSize=13;spacing=16;spacingTop=-4;resizeWidth=1;resizeHeight=1;fontStyle=1" parent="ruLj6s_d2kl648r2gLQv-0" vertex="1">
          <mxGeometry width="233.8461538461539" height="366.6666666666667" relative="1" as="geometry">
            <mxPoint x="5" y="80" as="offset" />
          </mxGeometry>
        </mxCell>
        <mxCell id="ruLj6s_d2kl648r2gLQv-3" value="Reprocess" style="shape=rect;strokeColor=#666666;fontColor=#333333;fontStyle=1;shadow=1;rounded=1;fillColor=#F8F9FA;" parent="ruLj6s_d2kl648r2gLQv-0" vertex="1">
          <mxGeometry y="1" width="70" height="40" relative="1" as="geometry">
            <mxPoint x="8" y="-48" as="offset" />
          </mxGeometry>
        </mxCell>
        <mxCell id="ruLj6s_d2kl648r2gLQv-6" value="failed ..." style="text;whiteSpace=wrap;fontSize=10;spacing=16;spacingTop=-4;resizeWidth=1;resizeHeight=1;" parent="ruLj6s_d2kl648r2gLQv-0" vertex="1">
          <mxGeometry x="219.23076923076923" y="81.4814814814815" width="482.3076923076924" height="61.111111111111114" as="geometry" />
        </mxCell>
        <mxCell id="HXqVfzr10lpkye7FsW-1-0" value="" style="group" parent="3AvB2vERW7-ND82bwLwe-1" vertex="1" connectable="0">
          <mxGeometry x="69" y="3566" width="232" height="120" as="geometry" />
        </mxCell>
        <mxCell id="HXqVfzr10lpkye7FsW-1-1" value="File 1" style="dashed=0;shape=rect;strokeColor=none;verticalLabelPosition=middle;align=left;verticalAlign=middle;fontSize=15;spacingLeft=72;fillColor=#E6E6E6;" parent="HXqVfzr10lpkye7FsW-1-0" vertex="1">
          <mxGeometry width="232" height="30" as="geometry" />
        </mxCell>
        <mxCell id="HXqVfzr10lpkye7FsW-1-2" value="" style="dashed=0;shape=mxgraph.gmdl.checkbox;strokeColor=none;fillColor=#089953;strokeWidth=2;" parent="HXqVfzr10lpkye7FsW-1-1" vertex="1">
          <mxGeometry y="0.5" width="18" height="18" relative="1" as="geometry">
            <mxPoint x="16" y="-9" as="offset" />
          </mxGeometry>
        </mxCell>
        <mxCell id="HXqVfzr10lpkye7FsW-1-3" value="File 2" style="dashed=0;shape=rect;fillColor=#ffffff;strokeColor=none;verticalLabelPosition=middle;align=left;verticalAlign=middle;fontSize=15;spacingLeft=72;" parent="HXqVfzr10lpkye7FsW-1-0" vertex="1">
          <mxGeometry y="30" width="232" height="30" as="geometry" />
        </mxCell>
        <mxCell id="HXqVfzr10lpkye7FsW-1-4" value="" style="dashed=0;shape=mxgraph.gmdl.checkbox;strokeColor=#666666;fillColor=none;strokeWidth=2;" parent="HXqVfzr10lpkye7FsW-1-3" vertex="1">
          <mxGeometry y="0.5" width="18" height="18" relative="1" as="geometry">
            <mxPoint x="16" y="-9" as="offset" />
          </mxGeometry>
        </mxCell>
        <mxCell id="HXqVfzr10lpkye7FsW-1-5" value="File name" style="dashed=0;shape=rect;fillColor=#ffffff;strokeColor=none;verticalLabelPosition=middle;align=left;verticalAlign=middle;fontSize=15;spacingLeft=72;" parent="HXqVfzr10lpkye7FsW-1-0" vertex="1">
          <mxGeometry y="60" width="232" height="30" as="geometry" />
        </mxCell>
        <mxCell id="HXqVfzr10lpkye7FsW-1-6" value="" style="dashed=0;shape=mxgraph.gmdl.checkbox;strokeColor=#666666;fillColor=none;strokeWidth=2;" parent="HXqVfzr10lpkye7FsW-1-5" vertex="1">
          <mxGeometry y="0.5" width="18" height="18" relative="1" as="geometry">
            <mxPoint x="16" y="-9" as="offset" />
          </mxGeometry>
        </mxCell>
        <mxCell id="HXqVfzr10lpkye7FsW-1-7" value="file names" style="dashed=0;shape=rect;fillColor=#ffffff;strokeColor=none;verticalLabelPosition=middle;align=left;verticalAlign=middle;fontSize=15;spacingLeft=72;" parent="HXqVfzr10lpkye7FsW-1-0" vertex="1">
          <mxGeometry y="90" width="232" height="30" as="geometry" />
        </mxCell>
        <mxCell id="HXqVfzr10lpkye7FsW-1-8" value="" style="dashed=0;shape=mxgraph.gmdl.checkbox;strokeColor=#666666;fillColor=none;strokeWidth=2;" parent="HXqVfzr10lpkye7FsW-1-7" vertex="1">
          <mxGeometry y="0.5" width="18" height="18" relative="1" as="geometry">
            <mxPoint x="16" y="-9" as="offset" />
          </mxGeometry>
        </mxCell>
        <mxCell id="dCld8-xE8H-8SWanPMht-0" value="Reprocess" style="shape=rect;strokeColor=none;fillColor=#4285f4;fontColor=#ffffff;rounded=1;" parent="3AvB2vERW7-ND82bwLwe-1" vertex="1">
          <mxGeometry x="233.71" y="3528" width="71.66" height="30" as="geometry" />
        </mxCell>
      </root>
    </mxGraphModel>
  </diagram>
</mxfile>
